M48
INCH
T42C0.035
T41C0.020
T40C0.152
T39C0.042
%
T41
X003750Y001250
X004700Y002700
X005600Y003800
X006000Y003100
X008000Y009000
X010200Y006400
X011600Y006000
X012200Y003800
X014500Y007200
X016500Y007200
T42
X014700Y005000
T39
X001000Y003500
X001000Y002500
X001000Y001500
X002000Y003500
X002000Y002500
X002000Y001500
X009000Y006000
X009000Y005000
X009000Y004000
X011700Y002800
X012700Y002800
X013600Y009000
X013600Y008000
X015200Y001000
X016200Y001000
X018250Y008000
X018250Y006750
X018250Y005500
T40
X001500Y008500
X018500Y001500
M30
