G04 start of page 7 for group -4062 idx -4062 *
G04 Title: (unknown), soldermask *
G04 Creator: pcb 20140316 *
G04 CreationDate: Mon 07 Sep 2020 04:57:56 PM GMT UTC *
G04 For: thomasc *
G04 Format: Gerber/RS-274X *
G04 PCB-Dimensions (mil): 2000.00 1000.00 *
G04 PCB-Coordinate-Origin: lower left *
%MOIN*%
%FSLAX25Y25*%
%LNBOTTOMMASK*%
%ADD53C,0.1620*%
%ADD52C,0.0001*%
%ADD51C,0.0760*%
G54D51*X182500Y67500D03*
Y80000D03*
Y55000D03*
G54D52*G36*
X132200Y83800D02*Y76200D01*
X139800D01*
Y83800D01*
X132200D01*
G37*
G54D51*X136000Y90000D03*
G54D53*X15000Y85000D03*
G54D51*X10000Y15000D03*
Y25000D03*
Y35000D03*
G54D52*G36*
X16200Y18800D02*Y11200D01*
X23800D01*
Y18800D01*
X16200D01*
G37*
G54D51*X20000Y25000D03*
Y35000D03*
G54D52*G36*
X86200Y43800D02*Y36200D01*
X93800D01*
Y43800D01*
X86200D01*
G37*
G54D51*X90000Y50000D03*
Y60000D03*
G54D53*X185000Y15000D03*
G54D52*G36*
X123200Y31800D02*Y24200D01*
X130800D01*
Y31800D01*
X123200D01*
G37*
G54D51*X117000Y28000D03*
G54D52*G36*
X148200Y13800D02*Y6200D01*
X155800D01*
Y13800D01*
X148200D01*
G37*
G54D51*X162000Y10000D03*
M02*
