G04 start of page 3 for group 5 idx 5 *
G04 Title: (unknown), bottom *
G04 Creator: pcb 20140316 *
G04 CreationDate: Mon 07 Sep 2020 04:57:56 PM GMT UTC *
G04 For: thomasc *
G04 Format: Gerber/RS-274X *
G04 PCB-Dimensions (mil): 2000.00 1000.00 *
G04 PCB-Coordinate-Origin: lower left *
%MOIN*%
%FSLAX25Y25*%
%LNBOTTOM*%
%ADD37C,0.1520*%
%ADD36C,0.0420*%
%ADD35C,0.0350*%
%ADD34C,0.0200*%
%ADD33C,0.0600*%
%ADD32C,0.0360*%
%ADD31C,0.1560*%
%ADD30C,0.0001*%
%ADD29C,0.0700*%
%ADD28C,0.0250*%
%ADD27C,0.0100*%
G54D27*X165000Y72000D02*X159500Y77500D01*
X145500D01*
X132000Y64000D01*
X122000Y49000D02*X145000Y72000D01*
X15000Y28000D02*X17000Y30000D01*
X44000D01*
X47000Y27000D01*
X20000Y25000D02*X25000D01*
X37500Y12500D01*
X10000Y15000D02*X15000Y20000D01*
Y28000D01*
X20000Y35000D02*X48000D01*
G54D28*X17000Y42000D02*X52000D01*
X56000Y38000D01*
X71000D01*
X83000Y50000D01*
X90000D01*
G54D27*X48000Y35000D02*X52000Y31000D01*
X60000D01*
G54D28*X80000Y90000D02*Y53000D01*
X83000Y50000D01*
X10000Y35000D02*X17000Y42000D01*
G54D27*X132000Y64000D02*X102000D01*
X116000Y60000D02*Y29000D01*
X117000Y28000D01*
G54D28*X152000Y45000D02*Y10000D01*
G54D27*X122000Y49000D02*Y38000D01*
G54D28*X147000Y50000D02*X152000Y45000D01*
G54D29*X182500Y67500D03*
Y80000D03*
Y55000D03*
G54D30*G36*
X132500Y83500D02*Y76500D01*
X139500D01*
Y83500D01*
X132500D01*
G37*
G54D29*X136000Y90000D03*
G54D31*X15000Y85000D03*
G54D29*X10000Y15000D03*
Y25000D03*
Y35000D03*
G54D30*G36*
X16500Y18500D02*Y11500D01*
X23500D01*
Y18500D01*
X16500D01*
G37*
G54D29*X20000Y25000D03*
Y35000D03*
G54D30*G36*
X86500Y43500D02*Y36500D01*
X93500D01*
Y43500D01*
X86500D01*
G37*
G54D29*X90000Y50000D03*
Y60000D03*
G54D31*X185000Y15000D03*
G54D30*G36*
X123500Y31500D02*Y24500D01*
X130500D01*
Y31500D01*
X123500D01*
G37*
G54D29*X117000Y28000D03*
G54D30*G36*
X148500Y13500D02*Y6500D01*
X155500D01*
Y13500D01*
X148500D01*
G37*
G54D29*X162000Y10000D03*
G54D32*X145000Y72000D03*
G54D33*X147000Y50000D03*
G54D32*X37500Y12500D03*
X47000Y27000D03*
X56000Y38000D03*
X60000Y31000D03*
X165000Y72000D03*
X80000Y90000D03*
X102000Y64000D03*
X116000Y60000D03*
X122000Y38000D03*
G54D34*G54D35*G54D34*G54D36*G54D37*G54D36*G54D37*G54D36*M02*
