G04 #@! TF.GenerationSoftware,KiCad,Pcbnew,8.0.9-8.0.9-0~ubuntu22.04.1*
G04 #@! TF.CreationDate,2025-03-10T17:04:53-04:00*
G04 #@! TF.ProjectId,sfx-202502,7366782d-3230-4323-9530-322e6b696361,rev?*
G04 #@! TF.SameCoordinates,Original*
G04 #@! TF.FileFunction,Copper,L2,Bot*
G04 #@! TF.FilePolarity,Positive*
%FSLAX46Y46*%
G04 Gerber Fmt 4.6, Leading zero omitted, Abs format (unit mm)*
G04 Created by KiCad (PCBNEW 8.0.9-8.0.9-0~ubuntu22.04.1) date 2025-03-10 17:04:53*
%MOMM*%
%LPD*%
G01*
G04 APERTURE LIST*
G04 #@! TA.AperFunction,ComponentPad*
%ADD10R,1.700000X1.700000*%
G04 #@! TD*
G04 #@! TA.AperFunction,ComponentPad*
%ADD11O,1.700000X1.700000*%
G04 #@! TD*
G04 #@! TA.AperFunction,ComponentPad*
%ADD12R,2.100000X2.100000*%
G04 #@! TD*
G04 #@! TA.AperFunction,ComponentPad*
%ADD13C,2.100000*%
G04 #@! TD*
G04 #@! TA.AperFunction,ComponentPad*
%ADD14C,1.778000*%
G04 #@! TD*
G04 #@! TA.AperFunction,ComponentPad*
%ADD15C,1.700000*%
G04 #@! TD*
G04 #@! TA.AperFunction,ViaPad*
%ADD16C,1.270000*%
G04 #@! TD*
G04 #@! TA.AperFunction,Conductor*
%ADD17C,0.508000*%
G04 #@! TD*
G04 #@! TA.AperFunction,Conductor*
%ADD18C,1.270000*%
G04 #@! TD*
G04 APERTURE END LIST*
D10*
X175895000Y-62865000D03*
D11*
X175895000Y-65405000D03*
X175895000Y-67945000D03*
X175895000Y-70485000D03*
X175895000Y-73025000D03*
X175895000Y-75565000D03*
D10*
X133985000Y-59055000D03*
D11*
X136525000Y-59055000D03*
X139065000Y-59055000D03*
D10*
X145415000Y-59055000D03*
D11*
X147955000Y-59055000D03*
X150495000Y-59055000D03*
D12*
X116205000Y-85725000D03*
D13*
X116205000Y-83185000D03*
X116205000Y-80645000D03*
X116205000Y-78105000D03*
X116205000Y-75565000D03*
X116205000Y-73025000D03*
X116205000Y-70485000D03*
X116205000Y-67945000D03*
D12*
X156845000Y-52705000D03*
D13*
X159385000Y-52705000D03*
D14*
X114935000Y-61595000D03*
X117475000Y-61595000D03*
X120015000Y-61595000D03*
X114935000Y-59055000D03*
X120015000Y-59055000D03*
G04 #@! TA.AperFunction,ComponentPad*
G36*
G01*
X177585000Y-86325000D02*
X177585000Y-85125000D01*
G75*
G02*
X177835000Y-84875000I250000J0D01*
G01*
X179035000Y-84875000D01*
G75*
G02*
X179285000Y-85125000I0J-250000D01*
G01*
X179285000Y-86325000D01*
G75*
G02*
X179035000Y-86575000I-250000J0D01*
G01*
X177835000Y-86575000D01*
G75*
G02*
X177585000Y-86325000I0J250000D01*
G01*
G37*
G04 #@! TD.AperFunction*
D15*
X180975000Y-85725000D03*
X178435000Y-88265000D03*
X180975000Y-88265000D03*
X178435000Y-90805000D03*
X180975000Y-90805000D03*
D12*
X125095000Y-52705000D03*
D13*
X127635000Y-52705000D03*
D12*
X116205000Y-53975000D03*
D13*
X116205000Y-51435000D03*
D12*
X165735000Y-52705000D03*
D13*
X168275000Y-52705000D03*
X170815000Y-52705000D03*
X173355000Y-52705000D03*
D16*
X145669000Y-78105000D03*
X125349000Y-95631000D03*
X154305000Y-78359000D03*
X145669000Y-83693000D03*
X145669000Y-66675000D03*
X130429000Y-59563000D03*
X168021000Y-63881000D03*
X147955000Y-90805000D03*
X145669000Y-72263000D03*
X160147000Y-88773000D03*
X167767000Y-77597000D03*
X157607000Y-69723000D03*
X161925000Y-85725000D03*
X154305000Y-82677000D03*
X152273000Y-89789000D03*
X152273000Y-82677000D03*
X151765000Y-62357000D03*
X155829000Y-72517000D03*
X152273000Y-79121000D03*
X149479000Y-88265000D03*
X159385000Y-77851000D03*
X158877000Y-62335000D03*
X170053000Y-78613000D03*
X163195000Y-72263000D03*
X160909000Y-67945000D03*
X172339000Y-83185000D03*
X172085000Y-75565000D03*
X172085000Y-65405000D03*
X126365000Y-85725000D03*
X147701000Y-73787000D03*
X150749000Y-73787000D03*
X133985000Y-63881000D03*
X147066000Y-64262000D03*
X169545000Y-68961000D03*
X169545000Y-73025000D03*
X146431000Y-85659000D03*
X153543000Y-75819000D03*
D17*
X157353000Y-85725000D02*
X154305000Y-82677000D01*
X161925000Y-85725000D02*
X157353000Y-85725000D01*
X152273000Y-82677000D02*
X152273000Y-89789000D01*
X149479000Y-88265000D02*
X149479000Y-81915000D01*
X159385000Y-77851000D02*
X159385000Y-76073000D01*
X158877000Y-61341000D02*
X157861000Y-60325000D01*
X149479000Y-81915000D02*
X152273000Y-79121000D01*
X153797000Y-60325000D02*
X151765000Y-62357000D01*
X159385000Y-76073000D02*
X155829000Y-72517000D01*
X158877000Y-62335000D02*
X158877000Y-61341000D01*
X157861000Y-60325000D02*
X153797000Y-60325000D01*
D18*
X127635000Y-55245000D02*
X127635000Y-52705000D01*
X120015000Y-61595000D02*
X120015000Y-59055000D01*
X120015000Y-59055000D02*
X123825000Y-59055000D01*
X123825000Y-59055000D02*
X127635000Y-55245000D01*
D17*
X170053000Y-86995000D02*
X173863000Y-90805000D01*
X160909000Y-67945000D02*
X163195000Y-70231000D01*
X163195000Y-70231000D02*
X163195000Y-72263000D01*
X170053000Y-78613000D02*
X170053000Y-86995000D01*
X173863000Y-90805000D02*
X178435000Y-90805000D01*
X174625000Y-88265000D02*
X178435000Y-88265000D01*
X172339000Y-85979000D02*
X174625000Y-88265000D01*
X172339000Y-83185000D02*
X172339000Y-85979000D01*
X172085000Y-65405000D02*
X172085000Y-75565000D01*
X126365000Y-85725000D02*
X116205000Y-85725000D01*
X147701000Y-73787000D02*
X150749000Y-73787000D01*
X133985000Y-63881000D02*
X133985000Y-59055000D01*
X145415000Y-62611000D02*
X145415000Y-59055000D01*
X147066000Y-64262000D02*
X145415000Y-62611000D01*
D18*
X114935000Y-61595000D02*
X114935000Y-59055000D01*
D17*
X169545000Y-68961000D02*
X169545000Y-73025000D01*
X152273000Y-75819000D02*
X153543000Y-75819000D01*
X146431000Y-85659000D02*
X148209000Y-83881000D01*
X148209000Y-83881000D02*
X148209000Y-79883000D01*
X148209000Y-79883000D02*
X152273000Y-75819000D01*
G04 #@! TA.AperFunction,Conductor*
G36*
X179789855Y-88931546D02*
G01*
X179806575Y-88950842D01*
X179936500Y-89136395D01*
X179936505Y-89136401D01*
X180103599Y-89303495D01*
X180276288Y-89424413D01*
X180289595Y-89433731D01*
X180333219Y-89488308D01*
X180340412Y-89557807D01*
X180308890Y-89620161D01*
X180289594Y-89636881D01*
X180213627Y-89690073D01*
X180213626Y-89690073D01*
X180845591Y-90322037D01*
X180782007Y-90339075D01*
X180667993Y-90404901D01*
X180574901Y-90497993D01*
X180509075Y-90612007D01*
X180492037Y-90675590D01*
X179860073Y-90043626D01*
X179860072Y-90043627D01*
X179806880Y-90119595D01*
X179752303Y-90163220D01*
X179682805Y-90170414D01*
X179620450Y-90138891D01*
X179603730Y-90119595D01*
X179596122Y-90108730D01*
X179529919Y-90014181D01*
X179473494Y-89933597D01*
X179306402Y-89766506D01*
X179306396Y-89766501D01*
X179120842Y-89636575D01*
X179077217Y-89581998D01*
X179070023Y-89512500D01*
X179101546Y-89450145D01*
X179120842Y-89433425D01*
X179223090Y-89361830D01*
X179306401Y-89303495D01*
X179473495Y-89136401D01*
X179603425Y-88950842D01*
X179658002Y-88907217D01*
X179727500Y-88900023D01*
X179789855Y-88931546D01*
G37*
G04 #@! TD.AperFunction*
G04 #@! TA.AperFunction,Conductor*
G36*
X175910677Y-48914685D02*
G01*
X175931319Y-48931319D01*
X177128681Y-50128681D01*
X177162166Y-50190004D01*
X177165000Y-50216362D01*
X177165000Y-55245000D01*
X179705000Y-57785000D01*
X184733638Y-57785000D01*
X184800677Y-57804685D01*
X184821319Y-57821319D01*
X186018681Y-59018681D01*
X186052166Y-59080004D01*
X186055000Y-59106362D01*
X186055000Y-95833638D01*
X186035315Y-95900677D01*
X186018681Y-95921319D01*
X184821319Y-97118681D01*
X184759996Y-97152166D01*
X184733638Y-97155000D01*
X122606362Y-97155000D01*
X122539323Y-97135315D01*
X122518681Y-97118681D01*
X121321319Y-95921319D01*
X121287834Y-95859996D01*
X121285000Y-95833638D01*
X121285000Y-90805000D01*
X118745000Y-88265000D01*
X113716362Y-88265000D01*
X113649323Y-88245315D01*
X113628681Y-88228681D01*
X112431319Y-87031319D01*
X112397834Y-86969996D01*
X112395000Y-86943638D01*
X112395000Y-67945000D01*
X114649706Y-67945000D01*
X114668853Y-68188297D01*
X114668853Y-68188300D01*
X114668854Y-68188302D01*
X114709343Y-68356950D01*
X114725830Y-68425619D01*
X114819222Y-68651089D01*
X114946737Y-68859173D01*
X114946738Y-68859176D01*
X114946741Y-68859179D01*
X115105241Y-69044759D01*
X115170137Y-69100185D01*
X115194168Y-69120710D01*
X115232361Y-69179217D01*
X115232859Y-69249085D01*
X115195505Y-69308131D01*
X115194168Y-69309290D01*
X115105241Y-69385241D01*
X114946738Y-69570823D01*
X114946737Y-69570826D01*
X114819222Y-69778910D01*
X114725830Y-70004380D01*
X114668853Y-70241702D01*
X114649706Y-70485000D01*
X114668853Y-70728297D01*
X114725830Y-70965619D01*
X114819222Y-71191089D01*
X114946737Y-71399173D01*
X114946738Y-71399176D01*
X115000449Y-71462063D01*
X115105241Y-71584759D01*
X115131246Y-71606969D01*
X115194168Y-71660710D01*
X115232361Y-71719217D01*
X115232859Y-71789085D01*
X115195505Y-71848131D01*
X115194168Y-71849290D01*
X115105241Y-71925241D01*
X114946738Y-72110823D01*
X114946737Y-72110826D01*
X114819222Y-72318910D01*
X114725830Y-72544380D01*
X114668853Y-72781702D01*
X114649706Y-73025000D01*
X114668853Y-73268297D01*
X114668853Y-73268300D01*
X114668854Y-73268302D01*
X114709343Y-73436950D01*
X114725830Y-73505619D01*
X114819222Y-73731089D01*
X114946737Y-73939173D01*
X114946738Y-73939176D01*
X114946741Y-73939179D01*
X115105241Y-74124759D01*
X115173250Y-74182844D01*
X115194168Y-74200710D01*
X115232361Y-74259217D01*
X115232859Y-74329085D01*
X115195505Y-74388131D01*
X115194168Y-74389290D01*
X115105241Y-74465241D01*
X114946738Y-74650823D01*
X114946737Y-74650826D01*
X114819222Y-74858910D01*
X114725830Y-75084380D01*
X114668853Y-75321702D01*
X114649706Y-75565000D01*
X114668853Y-75808297D01*
X114668853Y-75808300D01*
X114668854Y-75808302D01*
X114714562Y-75998688D01*
X114725830Y-76045619D01*
X114819222Y-76271089D01*
X114946737Y-76479173D01*
X114946738Y-76479176D01*
X114946741Y-76479179D01*
X115105241Y-76664759D01*
X115173250Y-76722844D01*
X115194168Y-76740710D01*
X115232361Y-76799217D01*
X115232859Y-76869085D01*
X115195505Y-76928131D01*
X115194168Y-76929290D01*
X115105241Y-77005241D01*
X114946738Y-77190823D01*
X114946737Y-77190826D01*
X114819222Y-77398910D01*
X114725830Y-77624380D01*
X114668853Y-77861702D01*
X114649706Y-78105000D01*
X114668853Y-78348297D01*
X114725830Y-78585619D01*
X114819222Y-78811089D01*
X114946737Y-79019173D01*
X114946738Y-79019176D01*
X115000449Y-79082063D01*
X115105241Y-79204759D01*
X115133953Y-79229281D01*
X115194168Y-79280710D01*
X115232361Y-79339217D01*
X115232859Y-79409085D01*
X115195505Y-79468131D01*
X115194168Y-79469290D01*
X115105241Y-79545241D01*
X114946738Y-79730823D01*
X114946737Y-79730826D01*
X114819222Y-79938910D01*
X114725830Y-80164380D01*
X114668853Y-80401702D01*
X114649706Y-80645000D01*
X114668853Y-80888297D01*
X114725830Y-81125619D01*
X114819222Y-81351089D01*
X114946737Y-81559173D01*
X114946738Y-81559176D01*
X114946741Y-81559179D01*
X115105241Y-81744759D01*
X115131246Y-81766969D01*
X115194168Y-81820710D01*
X115232361Y-81879217D01*
X115232859Y-81949085D01*
X115195505Y-82008131D01*
X115194168Y-82009290D01*
X115105241Y-82085241D01*
X114946738Y-82270823D01*
X114946737Y-82270826D01*
X114819222Y-82478910D01*
X114725830Y-82704380D01*
X114668853Y-82941702D01*
X114649706Y-83185000D01*
X114668853Y-83428297D01*
X114668853Y-83428300D01*
X114668854Y-83428302D01*
X114709343Y-83596950D01*
X114725830Y-83665619D01*
X114819222Y-83891089D01*
X114932449Y-84075857D01*
X114950694Y-84143303D01*
X114929578Y-84209905D01*
X114901034Y-84239913D01*
X114797452Y-84317455D01*
X114711206Y-84432664D01*
X114711202Y-84432671D01*
X114660908Y-84567517D01*
X114658545Y-84589500D01*
X114654501Y-84627123D01*
X114654500Y-84627135D01*
X114654500Y-86822870D01*
X114654501Y-86822876D01*
X114660908Y-86882483D01*
X114711202Y-87017328D01*
X114711206Y-87017335D01*
X114797452Y-87132544D01*
X114797455Y-87132547D01*
X114912664Y-87218793D01*
X114912671Y-87218797D01*
X115047517Y-87269091D01*
X115047516Y-87269091D01*
X115054444Y-87269835D01*
X115107127Y-87275500D01*
X117302872Y-87275499D01*
X117362483Y-87269091D01*
X117497331Y-87218796D01*
X117612546Y-87132546D01*
X117698796Y-87017331D01*
X117749091Y-86882483D01*
X117755500Y-86822873D01*
X117755500Y-86603500D01*
X117775185Y-86536461D01*
X117827989Y-86490706D01*
X117879500Y-86479500D01*
X125459129Y-86479500D01*
X125526168Y-86499185D01*
X125542667Y-86511863D01*
X125677776Y-86635030D01*
X125677778Y-86635032D01*
X125856692Y-86745811D01*
X125856698Y-86745814D01*
X125882553Y-86755830D01*
X126052924Y-86821832D01*
X126259780Y-86860500D01*
X126259782Y-86860500D01*
X126470218Y-86860500D01*
X126470220Y-86860500D01*
X126677076Y-86821832D01*
X126873304Y-86745813D01*
X127052223Y-86635031D01*
X127207740Y-86493259D01*
X127334558Y-86325325D01*
X127428359Y-86136947D01*
X127485948Y-85934542D01*
X127505365Y-85725000D01*
X127499249Y-85658999D01*
X145290635Y-85658999D01*
X145290635Y-85659000D01*
X145310051Y-85868537D01*
X145310051Y-85868539D01*
X145310052Y-85868542D01*
X145362624Y-86053314D01*
X145367642Y-86070950D01*
X145454338Y-86245059D01*
X145461442Y-86259325D01*
X145581473Y-86418272D01*
X145588261Y-86427260D01*
X145743776Y-86569030D01*
X145743778Y-86569032D01*
X145922692Y-86679811D01*
X145922698Y-86679814D01*
X145929567Y-86682475D01*
X146118924Y-86755832D01*
X146325780Y-86794500D01*
X146325782Y-86794500D01*
X146536218Y-86794500D01*
X146536220Y-86794500D01*
X146743076Y-86755832D01*
X146939304Y-86679813D01*
X147118223Y-86569031D01*
X147273740Y-86427259D01*
X147400558Y-86259325D01*
X147494359Y-86070947D01*
X147551948Y-85868542D01*
X147571365Y-85659000D01*
X147570516Y-85649840D01*
X147583930Y-85581271D01*
X147606303Y-85550720D01*
X148512819Y-84644203D01*
X148574142Y-84610719D01*
X148643834Y-84615703D01*
X148699767Y-84657575D01*
X148724184Y-84723039D01*
X148724500Y-84731885D01*
X148724500Y-87361547D01*
X148704815Y-87428586D01*
X148684039Y-87453183D01*
X148636262Y-87496738D01*
X148509442Y-87664674D01*
X148415642Y-87853049D01*
X148415641Y-87853053D01*
X148365412Y-88029592D01*
X148358051Y-88055462D01*
X148338635Y-88264999D01*
X148338635Y-88265000D01*
X148358051Y-88474537D01*
X148358051Y-88474539D01*
X148358052Y-88474542D01*
X148365413Y-88500413D01*
X148415642Y-88676950D01*
X148450007Y-88745963D01*
X148509442Y-88865325D01*
X148603974Y-88990506D01*
X148636261Y-89033260D01*
X148791776Y-89175030D01*
X148791778Y-89175032D01*
X148970692Y-89285811D01*
X148970698Y-89285814D01*
X149012268Y-89301918D01*
X149166924Y-89361832D01*
X149373780Y-89400500D01*
X149373782Y-89400500D01*
X149584218Y-89400500D01*
X149584220Y-89400500D01*
X149791076Y-89361832D01*
X149987304Y-89285813D01*
X150166223Y-89175031D01*
X150321740Y-89033259D01*
X150448558Y-88865325D01*
X150542359Y-88676947D01*
X150599948Y-88474542D01*
X150619365Y-88265000D01*
X150599948Y-88055458D01*
X150542359Y-87853053D01*
X150448558Y-87664675D01*
X150321740Y-87496741D01*
X150315240Y-87490815D01*
X150273961Y-87453183D01*
X150237680Y-87393472D01*
X150233500Y-87361547D01*
X150233500Y-82676999D01*
X151132635Y-82676999D01*
X151132635Y-82677000D01*
X151152051Y-82886537D01*
X151152051Y-82886539D01*
X151152052Y-82886542D01*
X151177351Y-82975458D01*
X151209642Y-83088950D01*
X151303442Y-83277325D01*
X151391956Y-83394537D01*
X151430261Y-83445260D01*
X151478037Y-83488813D01*
X151514319Y-83548524D01*
X151518500Y-83580451D01*
X151518500Y-88885547D01*
X151498815Y-88952586D01*
X151478039Y-88977183D01*
X151430262Y-89020738D01*
X151303442Y-89188674D01*
X151209642Y-89377049D01*
X151152051Y-89579462D01*
X151132635Y-89788999D01*
X151132635Y-89789000D01*
X151152051Y-89998537D01*
X151152051Y-89998539D01*
X151152052Y-89998542D01*
X151209641Y-90200947D01*
X151303442Y-90389325D01*
X151385504Y-90497993D01*
X151430261Y-90557260D01*
X151585776Y-90699030D01*
X151585778Y-90699032D01*
X151764692Y-90809811D01*
X151764698Y-90809814D01*
X151806268Y-90825918D01*
X151960924Y-90885832D01*
X152167780Y-90924500D01*
X152167782Y-90924500D01*
X152378218Y-90924500D01*
X152378220Y-90924500D01*
X152585076Y-90885832D01*
X152781304Y-90809813D01*
X152960223Y-90699031D01*
X153115740Y-90557259D01*
X153242558Y-90389325D01*
X153336359Y-90200947D01*
X153393948Y-89998542D01*
X153413365Y-89789000D01*
X153393948Y-89579458D01*
X153336359Y-89377053D01*
X153242558Y-89188675D01*
X153115740Y-89020741D01*
X153114378Y-89019499D01*
X153067961Y-88977183D01*
X153031680Y-88917472D01*
X153027500Y-88885547D01*
X153027500Y-83580451D01*
X153047185Y-83513412D01*
X153067963Y-83488813D01*
X153115740Y-83445259D01*
X153190046Y-83346861D01*
X153246155Y-83305226D01*
X153315867Y-83300535D01*
X153377049Y-83334277D01*
X153387953Y-83346861D01*
X153423956Y-83394537D01*
X153462261Y-83445260D01*
X153617776Y-83587030D01*
X153617778Y-83587032D01*
X153796692Y-83697811D01*
X153796698Y-83697814D01*
X153838268Y-83713918D01*
X153992924Y-83773832D01*
X154199780Y-83812500D01*
X154322113Y-83812500D01*
X154389152Y-83832185D01*
X154409794Y-83848819D01*
X156872030Y-86311056D01*
X156872031Y-86311057D01*
X156872034Y-86311059D01*
X156995611Y-86393630D01*
X157055108Y-86418274D01*
X157132920Y-86450505D01*
X157132922Y-86450505D01*
X157132924Y-86450506D01*
X157157104Y-86455315D01*
X157157110Y-86455316D01*
X157278686Y-86479501D01*
X157278688Y-86479501D01*
X157433426Y-86479501D01*
X157433446Y-86479500D01*
X161019129Y-86479500D01*
X161086168Y-86499185D01*
X161102667Y-86511863D01*
X161237776Y-86635030D01*
X161237778Y-86635032D01*
X161416692Y-86745811D01*
X161416698Y-86745814D01*
X161442553Y-86755830D01*
X161612924Y-86821832D01*
X161819780Y-86860500D01*
X161819782Y-86860500D01*
X162030218Y-86860500D01*
X162030220Y-86860500D01*
X162237076Y-86821832D01*
X162433304Y-86745813D01*
X162612223Y-86635031D01*
X162767740Y-86493259D01*
X162894558Y-86325325D01*
X162988359Y-86136947D01*
X163045948Y-85934542D01*
X163065365Y-85725000D01*
X163045948Y-85515458D01*
X162988359Y-85313053D01*
X162894558Y-85124675D01*
X162767740Y-84956741D01*
X162761239Y-84950815D01*
X162612223Y-84814969D01*
X162612221Y-84814967D01*
X162433307Y-84704188D01*
X162433301Y-84704185D01*
X162278470Y-84644204D01*
X162237076Y-84628168D01*
X162030220Y-84589500D01*
X161819780Y-84589500D01*
X161612924Y-84628168D01*
X161612921Y-84628168D01*
X161612921Y-84628169D01*
X161416698Y-84704185D01*
X161416692Y-84704188D01*
X161237778Y-84814967D01*
X161237776Y-84814969D01*
X161102667Y-84938137D01*
X161039863Y-84968754D01*
X161019129Y-84970500D01*
X157716887Y-84970500D01*
X157649848Y-84950815D01*
X157629206Y-84934181D01*
X155480306Y-82785281D01*
X155446821Y-82723958D01*
X155444516Y-82686159D01*
X155445365Y-82677000D01*
X155425948Y-82467458D01*
X155368359Y-82265053D01*
X155274558Y-82076675D01*
X155147740Y-81908741D01*
X154992223Y-81766969D01*
X154992221Y-81766967D01*
X154813307Y-81656188D01*
X154813301Y-81656185D01*
X154658648Y-81596273D01*
X154617076Y-81580168D01*
X154410220Y-81541500D01*
X154199780Y-81541500D01*
X153992924Y-81580168D01*
X153992921Y-81580168D01*
X153992921Y-81580169D01*
X153796698Y-81656185D01*
X153796692Y-81656188D01*
X153617778Y-81766967D01*
X153617776Y-81766969D01*
X153462261Y-81908739D01*
X153387954Y-82007137D01*
X153331845Y-82048773D01*
X153262133Y-82053464D01*
X153200951Y-82019722D01*
X153190046Y-82007137D01*
X153129333Y-81926741D01*
X153115740Y-81908741D01*
X152960223Y-81766969D01*
X152960221Y-81766967D01*
X152781307Y-81656188D01*
X152781301Y-81656185D01*
X152626648Y-81596273D01*
X152585076Y-81580168D01*
X152378220Y-81541500D01*
X152167780Y-81541500D01*
X151960924Y-81580168D01*
X151960921Y-81580168D01*
X151960921Y-81580169D01*
X151764698Y-81656185D01*
X151764692Y-81656188D01*
X151585778Y-81766967D01*
X151585776Y-81766969D01*
X151430261Y-81908739D01*
X151303442Y-82076674D01*
X151209642Y-82265049D01*
X151152051Y-82467462D01*
X151132635Y-82676999D01*
X150233500Y-82676999D01*
X150233500Y-82278886D01*
X150253185Y-82211847D01*
X150269819Y-82191205D01*
X152168205Y-80292819D01*
X152229528Y-80259334D01*
X152255886Y-80256500D01*
X152378218Y-80256500D01*
X152378220Y-80256500D01*
X152585076Y-80217832D01*
X152781304Y-80141813D01*
X152960223Y-80031031D01*
X153115740Y-79889259D01*
X153242558Y-79721325D01*
X153336359Y-79532947D01*
X153393948Y-79330542D01*
X153413365Y-79121000D01*
X153393948Y-78911458D01*
X153336359Y-78709053D01*
X153242558Y-78520675D01*
X153115740Y-78352741D01*
X152960223Y-78210969D01*
X152960221Y-78210967D01*
X152781307Y-78100188D01*
X152781301Y-78100185D01*
X152626648Y-78040273D01*
X152585076Y-78024168D01*
X152378220Y-77985500D01*
X152167780Y-77985500D01*
X151960924Y-78024168D01*
X151960921Y-78024168D01*
X151960921Y-78024169D01*
X151764698Y-78100185D01*
X151764692Y-78100188D01*
X151585778Y-78210967D01*
X151585776Y-78210969D01*
X151430261Y-78352739D01*
X151303442Y-78520674D01*
X151209642Y-78709049D01*
X151152051Y-78911462D01*
X151132635Y-79120998D01*
X151133484Y-79130165D01*
X151120065Y-79198734D01*
X151097693Y-79229281D01*
X149175181Y-81151794D01*
X149113858Y-81185279D01*
X149044166Y-81180295D01*
X148988233Y-81138423D01*
X148963816Y-81072959D01*
X148963500Y-81064113D01*
X148963500Y-80246886D01*
X148983185Y-80179847D01*
X148999819Y-80159205D01*
X152549205Y-76609819D01*
X152610528Y-76576334D01*
X152636886Y-76573500D01*
X152637129Y-76573500D01*
X152704168Y-76593185D01*
X152720667Y-76605863D01*
X152855776Y-76729030D01*
X152855778Y-76729032D01*
X153034692Y-76839811D01*
X153034698Y-76839814D01*
X153052579Y-76846741D01*
X153230924Y-76915832D01*
X153437780Y-76954500D01*
X153437782Y-76954500D01*
X153648218Y-76954500D01*
X153648220Y-76954500D01*
X153855076Y-76915832D01*
X154051304Y-76839813D01*
X154230223Y-76729031D01*
X154385740Y-76587259D01*
X154512558Y-76419325D01*
X154606359Y-76230947D01*
X154663948Y-76028542D01*
X154683365Y-75819000D01*
X154663948Y-75609458D01*
X154606359Y-75407053D01*
X154512558Y-75218675D01*
X154385740Y-75050741D01*
X154230223Y-74908969D01*
X154230221Y-74908967D01*
X154051307Y-74798188D01*
X154051301Y-74798185D01*
X153896648Y-74738273D01*
X153855076Y-74722168D01*
X153648220Y-74683500D01*
X153437780Y-74683500D01*
X153230924Y-74722168D01*
X153230921Y-74722168D01*
X153230921Y-74722169D01*
X153034698Y-74798185D01*
X153034692Y-74798188D01*
X152855778Y-74908967D01*
X152855776Y-74908969D01*
X152720667Y-75032137D01*
X152657863Y-75062754D01*
X152637129Y-75064500D01*
X152353446Y-75064500D01*
X152353426Y-75064499D01*
X152347312Y-75064499D01*
X152198688Y-75064499D01*
X152198686Y-75064499D01*
X152098742Y-75084380D01*
X152077105Y-75088684D01*
X152062540Y-75091581D01*
X152052918Y-75093495D01*
X152052917Y-75093495D01*
X151996045Y-75117052D01*
X151996045Y-75117053D01*
X151915611Y-75150370D01*
X151915609Y-75150371D01*
X151792033Y-75232941D01*
X151739487Y-75285487D01*
X151686941Y-75338034D01*
X151686939Y-75338036D01*
X147622943Y-79402030D01*
X147622942Y-79402031D01*
X147540372Y-79525607D01*
X147540366Y-79525618D01*
X147483496Y-79662916D01*
X147483493Y-79662926D01*
X147454499Y-79808685D01*
X147454499Y-79963425D01*
X147454500Y-79963446D01*
X147454500Y-83517113D01*
X147434815Y-83584152D01*
X147418181Y-83604794D01*
X146535794Y-84487181D01*
X146474471Y-84520666D01*
X146448113Y-84523500D01*
X146325780Y-84523500D01*
X146118924Y-84562168D01*
X146118921Y-84562168D01*
X146118921Y-84562169D01*
X145922698Y-84638185D01*
X145922692Y-84638188D01*
X145743778Y-84748967D01*
X145743776Y-84748969D01*
X145588261Y-84890739D01*
X145461442Y-85058674D01*
X145367642Y-85247049D01*
X145310051Y-85449462D01*
X145290635Y-85658999D01*
X127499249Y-85658999D01*
X127485948Y-85515458D01*
X127428359Y-85313053D01*
X127334558Y-85124675D01*
X127207740Y-84956741D01*
X127201239Y-84950815D01*
X127052223Y-84814969D01*
X127052221Y-84814967D01*
X126873307Y-84704188D01*
X126873301Y-84704185D01*
X126718470Y-84644204D01*
X126677076Y-84628168D01*
X126470220Y-84589500D01*
X126259780Y-84589500D01*
X126052924Y-84628168D01*
X126052921Y-84628168D01*
X126052921Y-84628169D01*
X125856698Y-84704185D01*
X125856692Y-84704188D01*
X125677778Y-84814967D01*
X125677776Y-84814969D01*
X125542667Y-84938137D01*
X125479863Y-84968754D01*
X125459129Y-84970500D01*
X117879499Y-84970500D01*
X117812460Y-84950815D01*
X117766705Y-84898011D01*
X117755499Y-84846500D01*
X117755499Y-84627129D01*
X117755498Y-84627123D01*
X117755497Y-84627116D01*
X117749091Y-84567517D01*
X117747096Y-84562169D01*
X117698797Y-84432671D01*
X117698793Y-84432664D01*
X117612547Y-84317455D01*
X117612544Y-84317452D01*
X117508966Y-84239913D01*
X117467095Y-84183979D01*
X117462111Y-84114288D01*
X117477548Y-84075860D01*
X117590777Y-83891089D01*
X117684172Y-83665612D01*
X117741146Y-83428302D01*
X117760294Y-83185000D01*
X117741146Y-82941698D01*
X117684172Y-82704388D01*
X117672828Y-82677000D01*
X117590777Y-82478910D01*
X117463262Y-82270826D01*
X117463261Y-82270823D01*
X117372183Y-82164185D01*
X117304759Y-82085241D01*
X117304757Y-82085239D01*
X117304756Y-82085238D01*
X117215832Y-82009290D01*
X117177638Y-81950784D01*
X117177139Y-81880916D01*
X117214493Y-81821869D01*
X117215832Y-81820710D01*
X117278754Y-81766969D01*
X117304759Y-81744759D01*
X117463259Y-81559179D01*
X117590777Y-81351089D01*
X117684172Y-81125612D01*
X117741146Y-80888302D01*
X117760294Y-80645000D01*
X117741146Y-80401698D01*
X117684172Y-80164388D01*
X117674822Y-80141814D01*
X117590777Y-79938910D01*
X117463262Y-79730826D01*
X117463261Y-79730823D01*
X117304756Y-79545238D01*
X117215832Y-79469290D01*
X117177638Y-79410784D01*
X117177139Y-79340916D01*
X117214493Y-79281869D01*
X117215832Y-79280710D01*
X117294729Y-79213325D01*
X117304759Y-79204759D01*
X117463259Y-79019179D01*
X117590777Y-78811089D01*
X117684172Y-78585612D01*
X117741146Y-78348302D01*
X117760294Y-78105000D01*
X117741146Y-77861698D01*
X117684172Y-77624388D01*
X117684169Y-77624380D01*
X117590777Y-77398910D01*
X117463262Y-77190826D01*
X117463261Y-77190823D01*
X117370950Y-77082741D01*
X117304759Y-77005241D01*
X117304757Y-77005239D01*
X117304756Y-77005238D01*
X117215832Y-76929290D01*
X117177638Y-76870784D01*
X117177139Y-76800916D01*
X117214493Y-76741869D01*
X117215832Y-76740710D01*
X117247276Y-76713853D01*
X117304759Y-76664759D01*
X117463259Y-76479179D01*
X117590777Y-76271089D01*
X117684172Y-76045612D01*
X117741146Y-75808302D01*
X117760294Y-75565000D01*
X117741146Y-75321698D01*
X117684172Y-75084388D01*
X117670235Y-75050741D01*
X117590777Y-74858910D01*
X117463262Y-74650826D01*
X117463261Y-74650823D01*
X117304756Y-74465238D01*
X117215832Y-74389290D01*
X117177638Y-74330784D01*
X117177139Y-74260916D01*
X117214493Y-74201869D01*
X117215832Y-74200710D01*
X117247276Y-74173853D01*
X117304759Y-74124759D01*
X117463259Y-73939179D01*
X117556515Y-73786999D01*
X146560635Y-73786999D01*
X146560635Y-73787000D01*
X146580051Y-73996537D01*
X146580051Y-73996539D01*
X146580052Y-73996542D01*
X146626702Y-74160500D01*
X146637642Y-74198950D01*
X146691316Y-74306741D01*
X146731442Y-74387325D01*
X146790281Y-74465241D01*
X146858261Y-74555260D01*
X147013776Y-74697030D01*
X147013778Y-74697032D01*
X147192692Y-74807811D01*
X147192698Y-74807814D01*
X147234268Y-74823918D01*
X147388924Y-74883832D01*
X147595780Y-74922500D01*
X147595782Y-74922500D01*
X147806218Y-74922500D01*
X147806220Y-74922500D01*
X148013076Y-74883832D01*
X148209304Y-74807813D01*
X148388223Y-74697031D01*
X148471411Y-74621194D01*
X148523333Y-74573863D01*
X148586137Y-74543246D01*
X148606871Y-74541500D01*
X149843129Y-74541500D01*
X149910168Y-74561185D01*
X149926667Y-74573863D01*
X150061776Y-74697030D01*
X150061778Y-74697032D01*
X150240692Y-74807811D01*
X150240698Y-74807814D01*
X150282268Y-74823918D01*
X150436924Y-74883832D01*
X150643780Y-74922500D01*
X150643782Y-74922500D01*
X150854218Y-74922500D01*
X150854220Y-74922500D01*
X151061076Y-74883832D01*
X151257304Y-74807813D01*
X151436223Y-74697031D01*
X151591740Y-74555259D01*
X151718558Y-74387325D01*
X151812359Y-74198947D01*
X151869948Y-73996542D01*
X151889365Y-73787000D01*
X151869948Y-73577458D01*
X151812359Y-73375053D01*
X151718558Y-73186675D01*
X151591740Y-73018741D01*
X151585239Y-73012815D01*
X151436223Y-72876969D01*
X151436221Y-72876967D01*
X151257307Y-72766188D01*
X151257301Y-72766185D01*
X151102648Y-72706273D01*
X151061076Y-72690168D01*
X150854220Y-72651500D01*
X150643780Y-72651500D01*
X150436924Y-72690168D01*
X150436921Y-72690168D01*
X150436921Y-72690169D01*
X150240698Y-72766185D01*
X150240692Y-72766188D01*
X150061778Y-72876967D01*
X150061776Y-72876969D01*
X149926667Y-73000137D01*
X149863863Y-73030754D01*
X149843129Y-73032500D01*
X148606871Y-73032500D01*
X148539832Y-73012815D01*
X148523333Y-73000137D01*
X148388223Y-72876969D01*
X148388221Y-72876967D01*
X148209307Y-72766188D01*
X148209301Y-72766185D01*
X148054648Y-72706273D01*
X148013076Y-72690168D01*
X147806220Y-72651500D01*
X147595780Y-72651500D01*
X147388924Y-72690168D01*
X147388921Y-72690168D01*
X147388921Y-72690169D01*
X147192698Y-72766185D01*
X147192692Y-72766188D01*
X147013778Y-72876967D01*
X147013776Y-72876969D01*
X146858261Y-73018739D01*
X146731442Y-73186674D01*
X146637642Y-73375049D01*
X146580051Y-73577462D01*
X146560635Y-73786999D01*
X117556515Y-73786999D01*
X117590777Y-73731089D01*
X117684172Y-73505612D01*
X117741146Y-73268302D01*
X117760294Y-73025000D01*
X117741146Y-72781698D01*
X117684172Y-72544388D01*
X117672828Y-72517000D01*
X117672828Y-72516999D01*
X154688635Y-72516999D01*
X154688635Y-72517000D01*
X154708051Y-72726537D01*
X154708051Y-72726539D01*
X154708052Y-72726542D01*
X154750852Y-72876969D01*
X154765642Y-72928950D01*
X154816335Y-73030754D01*
X154859442Y-73117325D01*
X154967493Y-73260408D01*
X154986261Y-73285260D01*
X155141776Y-73427030D01*
X155141778Y-73427032D01*
X155320692Y-73537811D01*
X155320698Y-73537814D01*
X155362268Y-73553918D01*
X155516924Y-73613832D01*
X155723780Y-73652500D01*
X155846113Y-73652500D01*
X155913152Y-73672185D01*
X155933794Y-73688819D01*
X158594181Y-76349205D01*
X158627666Y-76410528D01*
X158630500Y-76436886D01*
X158630500Y-76947547D01*
X158610815Y-77014586D01*
X158590039Y-77039183D01*
X158542262Y-77082738D01*
X158415442Y-77250674D01*
X158321642Y-77439049D01*
X158321641Y-77439053D01*
X158278071Y-77592188D01*
X158264051Y-77641462D01*
X158244635Y-77850999D01*
X158244635Y-77851000D01*
X158264051Y-78060537D01*
X158264051Y-78060539D01*
X158264052Y-78060542D01*
X158306852Y-78210969D01*
X158321642Y-78262950D01*
X158366352Y-78352739D01*
X158415442Y-78451325D01*
X158537533Y-78613000D01*
X158542261Y-78619260D01*
X158697776Y-78761030D01*
X158697778Y-78761032D01*
X158876692Y-78871811D01*
X158876698Y-78871814D01*
X158918268Y-78887918D01*
X159072924Y-78947832D01*
X159279780Y-78986500D01*
X159279782Y-78986500D01*
X159490218Y-78986500D01*
X159490220Y-78986500D01*
X159697076Y-78947832D01*
X159893304Y-78871813D01*
X160072223Y-78761031D01*
X160227740Y-78619259D01*
X160232467Y-78612999D01*
X168912635Y-78612999D01*
X168912635Y-78613000D01*
X168932051Y-78822537D01*
X168932051Y-78822539D01*
X168932052Y-78822542D01*
X168967700Y-78947832D01*
X168989642Y-79024950D01*
X169042033Y-79130165D01*
X169083442Y-79213325D01*
X169205533Y-79375000D01*
X169210261Y-79381260D01*
X169258037Y-79424813D01*
X169294319Y-79484524D01*
X169298500Y-79516451D01*
X169298500Y-86915552D01*
X169298499Y-86915578D01*
X169298499Y-87069314D01*
X169317967Y-87167182D01*
X169322684Y-87190894D01*
X169325581Y-87205460D01*
X169327495Y-87215082D01*
X169339550Y-87244181D01*
X169339551Y-87244187D01*
X169339552Y-87244187D01*
X169384366Y-87352381D01*
X169384372Y-87352392D01*
X169466942Y-87475968D01*
X169466943Y-87475969D01*
X173272600Y-91281624D01*
X173272621Y-91281647D01*
X173382031Y-91391057D01*
X173459445Y-91442783D01*
X173505606Y-91473627D01*
X173505607Y-91473627D01*
X173505611Y-91473630D01*
X173586043Y-91506945D01*
X173586044Y-91506946D01*
X173609603Y-91516704D01*
X173642920Y-91530505D01*
X173642929Y-91530506D01*
X173642930Y-91530507D01*
X173667103Y-91535315D01*
X173667110Y-91535316D01*
X173788686Y-91559501D01*
X173788688Y-91559501D01*
X173943426Y-91559501D01*
X173943446Y-91559500D01*
X177250099Y-91559500D01*
X177317138Y-91579185D01*
X177351674Y-91612376D01*
X177396505Y-91676401D01*
X177563599Y-91843495D01*
X177660384Y-91911265D01*
X177757165Y-91979032D01*
X177757167Y-91979033D01*
X177757170Y-91979035D01*
X177971337Y-92078903D01*
X178199592Y-92140063D01*
X178387918Y-92156539D01*
X178434999Y-92160659D01*
X178435000Y-92160659D01*
X178435001Y-92160659D01*
X178474234Y-92157226D01*
X178670408Y-92140063D01*
X178898663Y-92078903D01*
X179112830Y-91979035D01*
X179306401Y-91843495D01*
X179473495Y-91676401D01*
X179603730Y-91490405D01*
X179658307Y-91446781D01*
X179727805Y-91439587D01*
X179790160Y-91471110D01*
X179806879Y-91490405D01*
X179860072Y-91566372D01*
X179860073Y-91566372D01*
X180492037Y-90934408D01*
X180509075Y-90997993D01*
X180574901Y-91112007D01*
X180667993Y-91205099D01*
X180782007Y-91270925D01*
X180845591Y-91287962D01*
X180213626Y-91919926D01*
X180297417Y-91978598D01*
X180297421Y-91978600D01*
X180511507Y-92078429D01*
X180511516Y-92078433D01*
X180739673Y-92139567D01*
X180739684Y-92139569D01*
X180974998Y-92160157D01*
X180975002Y-92160157D01*
X181210315Y-92139569D01*
X181210326Y-92139567D01*
X181438483Y-92078433D01*
X181438492Y-92078429D01*
X181652580Y-91978599D01*
X181736371Y-91919925D01*
X181104408Y-91287962D01*
X181167993Y-91270925D01*
X181282007Y-91205099D01*
X181375099Y-91112007D01*
X181440925Y-90997993D01*
X181457962Y-90934408D01*
X182089925Y-91566371D01*
X182148599Y-91482580D01*
X182248429Y-91268492D01*
X182248433Y-91268483D01*
X182309567Y-91040326D01*
X182309569Y-91040315D01*
X182330157Y-90805001D01*
X182330157Y-90804998D01*
X182309569Y-90569684D01*
X182309567Y-90569673D01*
X182248433Y-90341516D01*
X182248429Y-90341507D01*
X182148601Y-90127424D01*
X182089925Y-90043626D01*
X181457962Y-90675590D01*
X181440925Y-90612007D01*
X181375099Y-90497993D01*
X181282007Y-90404901D01*
X181167993Y-90339075D01*
X181104409Y-90322037D01*
X181736372Y-89690073D01*
X181736372Y-89690072D01*
X181660405Y-89636879D01*
X181616780Y-89582302D01*
X181609588Y-89512804D01*
X181641110Y-89450449D01*
X181660406Y-89433730D01*
X181660842Y-89433425D01*
X181846401Y-89303495D01*
X182013495Y-89136401D01*
X182149035Y-88942830D01*
X182248903Y-88728663D01*
X182310063Y-88500408D01*
X182330659Y-88265000D01*
X182310063Y-88029592D01*
X182248903Y-87801337D01*
X182149035Y-87587171D01*
X182143425Y-87579158D01*
X182013494Y-87393597D01*
X181846402Y-87226506D01*
X181846392Y-87226498D01*
X181660842Y-87096575D01*
X181617217Y-87041998D01*
X181610023Y-86972500D01*
X181641546Y-86910145D01*
X181660842Y-86893425D01*
X181761596Y-86822876D01*
X181846401Y-86763495D01*
X182013495Y-86596401D01*
X182149035Y-86402830D01*
X182248903Y-86188663D01*
X182310063Y-85960408D01*
X182330659Y-85725000D01*
X182310063Y-85489592D01*
X182248903Y-85261337D01*
X182149035Y-85047171D01*
X182085715Y-84956739D01*
X182013494Y-84853597D01*
X181846402Y-84686506D01*
X181846395Y-84686501D01*
X181652834Y-84550967D01*
X181652830Y-84550965D01*
X181593931Y-84523500D01*
X181438663Y-84451097D01*
X181438659Y-84451096D01*
X181438655Y-84451094D01*
X181210413Y-84389938D01*
X181210403Y-84389936D01*
X180975001Y-84369341D01*
X180974999Y-84369341D01*
X180739596Y-84389936D01*
X180739586Y-84389938D01*
X180511344Y-84451094D01*
X180511335Y-84451098D01*
X180297171Y-84550964D01*
X180297169Y-84550965D01*
X180103597Y-84686505D01*
X179936503Y-84853599D01*
X179935349Y-84854975D01*
X179934688Y-84855414D01*
X179932676Y-84857427D01*
X179932271Y-84857022D01*
X179877173Y-84893671D01*
X179807312Y-84894772D01*
X179747946Y-84857928D01*
X179722663Y-84814265D01*
X179719814Y-84805666D01*
X179627712Y-84656344D01*
X179503656Y-84532288D01*
X179397902Y-84467059D01*
X179354336Y-84440187D01*
X179354331Y-84440185D01*
X179331634Y-84432664D01*
X179187797Y-84385001D01*
X179187795Y-84385000D01*
X179085010Y-84374500D01*
X177784998Y-84374500D01*
X177784981Y-84374501D01*
X177682203Y-84385000D01*
X177682200Y-84385001D01*
X177515668Y-84440185D01*
X177515663Y-84440187D01*
X177366342Y-84532289D01*
X177242289Y-84656342D01*
X177150187Y-84805663D01*
X177150185Y-84805668D01*
X177133701Y-84855414D01*
X177095001Y-84972203D01*
X177095001Y-84972204D01*
X177095000Y-84972204D01*
X177084500Y-85074983D01*
X177084500Y-86375001D01*
X177084501Y-86375018D01*
X177095000Y-86477796D01*
X177095001Y-86477799D01*
X177134303Y-86596402D01*
X177150186Y-86644334D01*
X177242288Y-86793656D01*
X177366344Y-86917712D01*
X177515666Y-87009814D01*
X177524264Y-87012663D01*
X177581707Y-87052433D01*
X177608531Y-87116948D01*
X177596217Y-87185724D01*
X177567234Y-87222483D01*
X177567427Y-87222676D01*
X177565798Y-87224304D01*
X177564975Y-87225349D01*
X177563599Y-87226503D01*
X177396506Y-87393597D01*
X177396505Y-87393599D01*
X177351674Y-87457624D01*
X177297096Y-87501249D01*
X177250099Y-87510500D01*
X174988886Y-87510500D01*
X174921847Y-87490815D01*
X174901205Y-87474181D01*
X173129819Y-85702794D01*
X173096334Y-85641471D01*
X173093500Y-85615113D01*
X173093500Y-84088451D01*
X173113185Y-84021412D01*
X173133963Y-83996813D01*
X173181740Y-83953259D01*
X173308558Y-83785325D01*
X173402359Y-83596947D01*
X173459948Y-83394542D01*
X173479365Y-83185000D01*
X173459948Y-82975458D01*
X173402359Y-82773053D01*
X173308558Y-82584675D01*
X173181740Y-82416741D01*
X173026223Y-82274969D01*
X173026221Y-82274967D01*
X172847307Y-82164188D01*
X172847301Y-82164185D01*
X172692648Y-82104273D01*
X172651076Y-82088168D01*
X172444220Y-82049500D01*
X172233780Y-82049500D01*
X172026924Y-82088168D01*
X172026921Y-82088168D01*
X172026921Y-82088169D01*
X171830698Y-82164185D01*
X171830692Y-82164188D01*
X171651778Y-82274967D01*
X171651776Y-82274969D01*
X171496261Y-82416739D01*
X171369442Y-82584674D01*
X171275642Y-82773049D01*
X171218051Y-82975462D01*
X171198635Y-83184999D01*
X171198635Y-83185000D01*
X171218051Y-83394537D01*
X171218051Y-83394539D01*
X171218052Y-83394542D01*
X171272820Y-83587031D01*
X171275642Y-83596950D01*
X171325865Y-83697811D01*
X171369442Y-83785325D01*
X171449311Y-83891089D01*
X171496261Y-83953260D01*
X171544037Y-83996813D01*
X171580319Y-84056524D01*
X171584500Y-84088451D01*
X171584500Y-85899552D01*
X171584499Y-85899578D01*
X171584499Y-86053314D01*
X171601136Y-86136950D01*
X171608684Y-86174894D01*
X171611423Y-86188663D01*
X171613495Y-86199080D01*
X171613496Y-86199084D01*
X171632540Y-86245060D01*
X171670367Y-86336385D01*
X171752942Y-86459968D01*
X171752943Y-86459969D01*
X174034600Y-88741624D01*
X174034621Y-88741647D01*
X174144028Y-88851054D01*
X174144035Y-88851060D01*
X174267608Y-88933628D01*
X174267609Y-88933628D01*
X174267610Y-88933629D01*
X174404920Y-88990505D01*
X174550683Y-89019499D01*
X174550687Y-89019500D01*
X174550688Y-89019500D01*
X174699312Y-89019500D01*
X177250099Y-89019500D01*
X177317138Y-89039185D01*
X177351674Y-89072376D01*
X177396505Y-89136401D01*
X177396506Y-89136402D01*
X177563597Y-89303493D01*
X177563603Y-89303498D01*
X177749158Y-89433425D01*
X177792783Y-89488002D01*
X177799977Y-89557500D01*
X177768454Y-89619855D01*
X177749158Y-89636575D01*
X177563597Y-89766505D01*
X177396506Y-89933597D01*
X177396505Y-89933599D01*
X177351674Y-89997624D01*
X177297096Y-90041249D01*
X177250099Y-90050500D01*
X174226886Y-90050500D01*
X174159847Y-90030815D01*
X174139205Y-90014181D01*
X170843819Y-86718794D01*
X170810334Y-86657471D01*
X170807500Y-86631113D01*
X170807500Y-79516451D01*
X170827185Y-79449412D01*
X170847963Y-79424813D01*
X170865216Y-79409085D01*
X170895740Y-79381259D01*
X171022558Y-79213325D01*
X171116359Y-79024947D01*
X171173948Y-78822542D01*
X171193365Y-78613000D01*
X171173948Y-78403458D01*
X171116359Y-78201053D01*
X171022558Y-78012675D01*
X170895740Y-77844741D01*
X170740223Y-77702969D01*
X170740221Y-77702967D01*
X170561307Y-77592188D01*
X170561301Y-77592185D01*
X170406648Y-77532273D01*
X170365076Y-77516168D01*
X170158220Y-77477500D01*
X169947780Y-77477500D01*
X169740924Y-77516168D01*
X169740921Y-77516168D01*
X169740921Y-77516169D01*
X169544698Y-77592185D01*
X169544692Y-77592188D01*
X169365778Y-77702967D01*
X169365776Y-77702969D01*
X169210261Y-77844739D01*
X169083442Y-78012674D01*
X168989642Y-78201049D01*
X168932051Y-78403462D01*
X168912635Y-78612999D01*
X160232467Y-78612999D01*
X160354558Y-78451325D01*
X160448359Y-78262947D01*
X160505948Y-78060542D01*
X160525365Y-77851000D01*
X160505948Y-77641458D01*
X160448359Y-77439053D01*
X160354558Y-77250675D01*
X160227740Y-77082741D01*
X160227737Y-77082738D01*
X160179961Y-77039183D01*
X160143680Y-76979472D01*
X160139500Y-76947547D01*
X160139500Y-75998687D01*
X160139499Y-75998683D01*
X160110506Y-75852927D01*
X160110505Y-75852920D01*
X160053629Y-75715610D01*
X159982701Y-75609458D01*
X159971060Y-75592035D01*
X159971054Y-75592028D01*
X159861647Y-75482621D01*
X159861624Y-75482600D01*
X157004306Y-72625281D01*
X156970821Y-72563958D01*
X156968516Y-72526159D01*
X156969365Y-72517000D01*
X156949948Y-72307458D01*
X156892359Y-72105053D01*
X156798558Y-71916675D01*
X156671740Y-71748741D01*
X156653924Y-71732500D01*
X156516223Y-71606969D01*
X156516221Y-71606967D01*
X156337307Y-71496188D01*
X156337301Y-71496185D01*
X156182648Y-71436273D01*
X156141076Y-71420168D01*
X155934220Y-71381500D01*
X155723780Y-71381500D01*
X155516924Y-71420168D01*
X155516921Y-71420168D01*
X155516921Y-71420169D01*
X155320698Y-71496185D01*
X155320692Y-71496188D01*
X155141778Y-71606967D01*
X155141776Y-71606969D01*
X154986261Y-71748739D01*
X154859442Y-71916674D01*
X154765642Y-72105049D01*
X154708051Y-72307462D01*
X154688635Y-72516999D01*
X117672828Y-72516999D01*
X117590777Y-72318910D01*
X117463262Y-72110826D01*
X117463261Y-72110823D01*
X117304756Y-71925238D01*
X117215832Y-71849290D01*
X117177638Y-71790784D01*
X117177139Y-71720916D01*
X117214493Y-71661869D01*
X117215832Y-71660710D01*
X117278754Y-71606969D01*
X117304759Y-71584759D01*
X117463259Y-71399179D01*
X117590777Y-71191089D01*
X117684172Y-70965612D01*
X117741146Y-70728302D01*
X117760294Y-70485000D01*
X117741146Y-70241698D01*
X117684172Y-70004388D01*
X117684169Y-70004380D01*
X117590777Y-69778910D01*
X117463262Y-69570826D01*
X117463261Y-69570823D01*
X117304756Y-69385238D01*
X117215832Y-69309290D01*
X117177638Y-69250784D01*
X117177139Y-69180916D01*
X117214493Y-69121869D01*
X117215832Y-69120710D01*
X117247276Y-69093853D01*
X117304759Y-69044759D01*
X117463259Y-68859179D01*
X117590777Y-68651089D01*
X117684172Y-68425612D01*
X117741146Y-68188302D01*
X117760294Y-67945000D01*
X117760294Y-67944999D01*
X159768635Y-67944999D01*
X159768635Y-67945000D01*
X159788051Y-68154537D01*
X159788051Y-68154539D01*
X159788052Y-68154542D01*
X159795413Y-68180413D01*
X159845642Y-68356950D01*
X159939442Y-68545325D01*
X160019311Y-68651089D01*
X160066261Y-68713260D01*
X160221776Y-68855030D01*
X160221778Y-68855032D01*
X160400692Y-68965811D01*
X160400698Y-68965814D01*
X160442268Y-68981918D01*
X160596924Y-69041832D01*
X160803780Y-69080500D01*
X160926113Y-69080500D01*
X160993152Y-69100185D01*
X161013794Y-69116819D01*
X162404181Y-70507205D01*
X162437666Y-70568528D01*
X162440500Y-70594886D01*
X162440500Y-71359547D01*
X162420815Y-71426586D01*
X162400039Y-71451183D01*
X162352262Y-71494738D01*
X162225442Y-71662674D01*
X162131642Y-71851049D01*
X162074051Y-72053462D01*
X162054635Y-72262999D01*
X162054635Y-72263000D01*
X162074051Y-72472537D01*
X162074051Y-72472539D01*
X162074052Y-72472542D01*
X162100062Y-72563958D01*
X162131642Y-72674950D01*
X162188724Y-72789586D01*
X162225442Y-72863325D01*
X162347533Y-73025000D01*
X162352261Y-73031260D01*
X162507776Y-73173030D01*
X162507778Y-73173032D01*
X162686692Y-73283811D01*
X162686698Y-73283814D01*
X162690431Y-73285260D01*
X162882924Y-73359832D01*
X163089780Y-73398500D01*
X163089782Y-73398500D01*
X163300218Y-73398500D01*
X163300220Y-73398500D01*
X163507076Y-73359832D01*
X163703304Y-73283813D01*
X163882223Y-73173031D01*
X164037740Y-73031259D01*
X164164558Y-72863325D01*
X164258359Y-72674947D01*
X164315948Y-72472542D01*
X164335365Y-72263000D01*
X164315948Y-72053458D01*
X164258359Y-71851053D01*
X164164558Y-71662675D01*
X164037740Y-71494741D01*
X164037737Y-71494738D01*
X163989961Y-71451183D01*
X163953680Y-71391472D01*
X163949500Y-71359547D01*
X163949500Y-70156687D01*
X163949499Y-70156683D01*
X163922577Y-70021337D01*
X163920505Y-70010920D01*
X163863629Y-69873610D01*
X163857509Y-69864451D01*
X163781060Y-69750035D01*
X163781054Y-69750028D01*
X163671647Y-69640621D01*
X163671624Y-69640600D01*
X162992023Y-68960999D01*
X168404635Y-68960999D01*
X168404635Y-68961000D01*
X168424051Y-69170537D01*
X168424051Y-69170539D01*
X168424052Y-69170542D01*
X168463529Y-69309290D01*
X168481642Y-69372950D01*
X168518268Y-69446505D01*
X168575442Y-69561325D01*
X168638584Y-69644939D01*
X168702261Y-69729260D01*
X168750037Y-69772813D01*
X168786319Y-69832524D01*
X168790500Y-69864451D01*
X168790500Y-72121547D01*
X168770815Y-72188586D01*
X168750039Y-72213183D01*
X168702262Y-72256738D01*
X168575442Y-72424674D01*
X168481642Y-72613049D01*
X168481641Y-72613053D01*
X168431412Y-72789592D01*
X168424051Y-72815462D01*
X168404635Y-73024999D01*
X168404635Y-73025000D01*
X168424051Y-73234537D01*
X168424051Y-73234539D01*
X168424052Y-73234542D01*
X168478820Y-73427031D01*
X168481642Y-73436950D01*
X168531865Y-73537811D01*
X168575442Y-73625325D01*
X168697533Y-73787000D01*
X168702261Y-73793260D01*
X168857776Y-73935030D01*
X168857778Y-73935032D01*
X169036692Y-74045811D01*
X169036698Y-74045814D01*
X169078268Y-74061918D01*
X169232924Y-74121832D01*
X169439780Y-74160500D01*
X169439782Y-74160500D01*
X169650218Y-74160500D01*
X169650220Y-74160500D01*
X169857076Y-74121832D01*
X170053304Y-74045813D01*
X170232223Y-73935031D01*
X170387740Y-73793259D01*
X170514558Y-73625325D01*
X170608359Y-73436947D01*
X170665948Y-73234542D01*
X170685365Y-73025000D01*
X170665948Y-72815458D01*
X170608359Y-72613053D01*
X170514558Y-72424675D01*
X170387740Y-72256741D01*
X170387737Y-72256738D01*
X170339961Y-72213183D01*
X170303680Y-72153472D01*
X170299500Y-72121547D01*
X170299500Y-69864451D01*
X170319185Y-69797412D01*
X170339963Y-69772813D01*
X170387740Y-69729259D01*
X170514558Y-69561325D01*
X170608359Y-69372947D01*
X170665948Y-69170542D01*
X170685365Y-68961000D01*
X170665948Y-68751458D01*
X170608359Y-68549053D01*
X170514558Y-68360675D01*
X170387740Y-68192741D01*
X170232223Y-68050969D01*
X170232221Y-68050967D01*
X170053307Y-67940188D01*
X170053301Y-67940185D01*
X169898648Y-67880273D01*
X169857076Y-67864168D01*
X169650220Y-67825500D01*
X169439780Y-67825500D01*
X169232924Y-67864168D01*
X169232921Y-67864168D01*
X169232921Y-67864169D01*
X169036698Y-67940185D01*
X169036692Y-67940188D01*
X168857778Y-68050967D01*
X168857776Y-68050969D01*
X168702261Y-68192739D01*
X168575442Y-68360674D01*
X168481642Y-68549049D01*
X168424051Y-68751462D01*
X168404635Y-68960999D01*
X162992023Y-68960999D01*
X162084306Y-68053281D01*
X162050821Y-67991958D01*
X162048516Y-67954159D01*
X162049365Y-67945000D01*
X162029948Y-67735458D01*
X161972359Y-67533053D01*
X161878558Y-67344675D01*
X161751740Y-67176741D01*
X161596223Y-67034969D01*
X161596221Y-67034967D01*
X161417307Y-66924188D01*
X161417301Y-66924185D01*
X161262648Y-66864273D01*
X161221076Y-66848168D01*
X161014220Y-66809500D01*
X160803780Y-66809500D01*
X160596924Y-66848168D01*
X160596921Y-66848168D01*
X160596921Y-66848169D01*
X160400698Y-66924185D01*
X160400692Y-66924188D01*
X160221778Y-67034967D01*
X160221776Y-67034969D01*
X160066261Y-67176739D01*
X159939442Y-67344674D01*
X159845642Y-67533049D01*
X159845641Y-67533053D01*
X159795412Y-67709592D01*
X159788051Y-67735462D01*
X159768635Y-67944999D01*
X117760294Y-67944999D01*
X117741146Y-67701698D01*
X117684172Y-67464388D01*
X117634586Y-67344675D01*
X117590777Y-67238910D01*
X117463262Y-67030826D01*
X117463261Y-67030823D01*
X117357083Y-66906505D01*
X117304759Y-66845241D01*
X117160460Y-66721998D01*
X117119176Y-66686738D01*
X117119173Y-66686737D01*
X116911089Y-66559222D01*
X116685618Y-66465830D01*
X116685621Y-66465830D01*
X116579992Y-66440470D01*
X116448302Y-66408854D01*
X116448300Y-66408853D01*
X116448297Y-66408853D01*
X116205000Y-66389706D01*
X115961702Y-66408853D01*
X115961698Y-66408854D01*
X115817419Y-66443493D01*
X115724380Y-66465830D01*
X115498910Y-66559222D01*
X115290826Y-66686737D01*
X115290823Y-66686738D01*
X115105241Y-66845241D01*
X114946738Y-67030823D01*
X114946737Y-67030826D01*
X114819222Y-67238910D01*
X114725830Y-67464380D01*
X114668853Y-67701702D01*
X114649706Y-67945000D01*
X112395000Y-67945000D01*
X112395000Y-65404999D01*
X170944635Y-65404999D01*
X170944635Y-65405000D01*
X170964051Y-65614537D01*
X170964051Y-65614539D01*
X170964052Y-65614542D01*
X170971413Y-65640413D01*
X171021642Y-65816950D01*
X171115442Y-66005325D01*
X171242261Y-66173260D01*
X171290037Y-66216813D01*
X171326319Y-66276524D01*
X171330500Y-66308451D01*
X171330500Y-74661547D01*
X171310815Y-74728586D01*
X171290039Y-74753183D01*
X171242262Y-74796738D01*
X171115442Y-74964674D01*
X171021642Y-75153049D01*
X171021641Y-75153053D01*
X170971412Y-75329592D01*
X170964051Y-75355462D01*
X170944635Y-75564999D01*
X170944635Y-75565000D01*
X170964051Y-75774537D01*
X170964051Y-75774539D01*
X170964052Y-75774542D01*
X171021641Y-75976947D01*
X171021642Y-75976950D01*
X171115442Y-76165325D01*
X171195311Y-76271089D01*
X171242261Y-76333260D01*
X171397776Y-76475030D01*
X171397778Y-76475032D01*
X171576692Y-76585811D01*
X171576698Y-76585814D01*
X171580431Y-76587260D01*
X171772924Y-76661832D01*
X171979780Y-76700500D01*
X171979782Y-76700500D01*
X172190218Y-76700500D01*
X172190220Y-76700500D01*
X172397076Y-76661832D01*
X172593304Y-76585813D01*
X172772223Y-76475031D01*
X172927740Y-76333259D01*
X173054558Y-76165325D01*
X173148359Y-75976947D01*
X173205948Y-75774542D01*
X173225365Y-75565000D01*
X173205948Y-75355458D01*
X173148359Y-75153053D01*
X173054558Y-74964675D01*
X172927740Y-74796741D01*
X172927737Y-74796738D01*
X172879961Y-74753183D01*
X172843680Y-74693472D01*
X172839500Y-74661547D01*
X172839500Y-66308451D01*
X172859185Y-66241412D01*
X172879963Y-66216813D01*
X172927740Y-66173259D01*
X173054558Y-66005325D01*
X173148359Y-65816947D01*
X173205948Y-65614542D01*
X173225365Y-65405000D01*
X173225365Y-65404999D01*
X174539341Y-65404999D01*
X174539341Y-65405000D01*
X174559936Y-65640403D01*
X174559938Y-65640413D01*
X174621094Y-65868655D01*
X174621096Y-65868659D01*
X174621097Y-65868663D01*
X174684824Y-66005325D01*
X174720965Y-66082830D01*
X174720967Y-66082834D01*
X174856501Y-66276395D01*
X174856506Y-66276402D01*
X175023597Y-66443493D01*
X175023603Y-66443498D01*
X175209158Y-66573425D01*
X175252783Y-66628002D01*
X175259977Y-66697500D01*
X175228454Y-66759855D01*
X175209158Y-66776575D01*
X175023597Y-66906505D01*
X174856505Y-67073597D01*
X174720965Y-67267169D01*
X174720964Y-67267171D01*
X174621098Y-67481335D01*
X174621094Y-67481344D01*
X174559938Y-67709586D01*
X174559936Y-67709596D01*
X174539341Y-67944999D01*
X174539341Y-67945000D01*
X174559936Y-68180403D01*
X174559938Y-68180413D01*
X174621094Y-68408655D01*
X174621096Y-68408659D01*
X174621097Y-68408663D01*
X174629004Y-68425619D01*
X174720965Y-68622830D01*
X174720967Y-68622834D01*
X174856501Y-68816395D01*
X174856506Y-68816402D01*
X175023597Y-68983493D01*
X175023603Y-68983498D01*
X175209158Y-69113425D01*
X175252783Y-69168002D01*
X175259977Y-69237500D01*
X175228454Y-69299855D01*
X175209158Y-69316575D01*
X175023597Y-69446505D01*
X174856505Y-69613597D01*
X174720965Y-69807169D01*
X174720964Y-69807171D01*
X174621098Y-70021335D01*
X174621094Y-70021344D01*
X174559938Y-70249586D01*
X174559936Y-70249596D01*
X174539341Y-70484999D01*
X174539341Y-70485000D01*
X174559936Y-70720403D01*
X174559938Y-70720413D01*
X174621094Y-70948655D01*
X174621096Y-70948659D01*
X174621097Y-70948663D01*
X174629004Y-70965619D01*
X174720965Y-71162830D01*
X174720967Y-71162834D01*
X174856501Y-71356395D01*
X174856506Y-71356402D01*
X175023597Y-71523493D01*
X175023603Y-71523498D01*
X175209158Y-71653425D01*
X175252783Y-71708002D01*
X175259977Y-71777500D01*
X175228454Y-71839855D01*
X175209158Y-71856575D01*
X175023597Y-71986505D01*
X174856505Y-72153597D01*
X174720965Y-72347169D01*
X174720964Y-72347171D01*
X174621098Y-72561335D01*
X174621094Y-72561344D01*
X174559938Y-72789586D01*
X174559936Y-72789596D01*
X174539341Y-73024999D01*
X174539341Y-73025000D01*
X174559936Y-73260403D01*
X174559938Y-73260413D01*
X174621094Y-73488655D01*
X174621096Y-73488659D01*
X174621097Y-73488663D01*
X174684824Y-73625325D01*
X174720965Y-73702830D01*
X174720967Y-73702834D01*
X174856501Y-73896395D01*
X174856506Y-73896402D01*
X175023597Y-74063493D01*
X175023603Y-74063498D01*
X175209158Y-74193425D01*
X175252783Y-74248002D01*
X175259977Y-74317500D01*
X175228454Y-74379855D01*
X175209158Y-74396575D01*
X175023597Y-74526505D01*
X174856505Y-74693597D01*
X174720965Y-74887169D01*
X174720964Y-74887171D01*
X174621098Y-75101335D01*
X174621094Y-75101344D01*
X174559938Y-75329586D01*
X174559936Y-75329596D01*
X174539341Y-75564999D01*
X174539341Y-75565000D01*
X174559936Y-75800403D01*
X174559938Y-75800413D01*
X174621094Y-76028655D01*
X174621096Y-76028659D01*
X174621097Y-76028663D01*
X174629004Y-76045619D01*
X174720965Y-76242830D01*
X174720967Y-76242834D01*
X174829281Y-76397521D01*
X174856505Y-76436401D01*
X175023599Y-76603495D01*
X175032631Y-76609819D01*
X175217165Y-76739032D01*
X175217167Y-76739033D01*
X175217170Y-76739035D01*
X175431337Y-76838903D01*
X175431343Y-76838904D01*
X175431344Y-76838905D01*
X175434733Y-76839813D01*
X175659592Y-76900063D01*
X175847918Y-76916539D01*
X175894999Y-76920659D01*
X175895000Y-76920659D01*
X175895001Y-76920659D01*
X175934234Y-76917226D01*
X176130408Y-76900063D01*
X176358663Y-76838903D01*
X176572830Y-76739035D01*
X176766401Y-76603495D01*
X176933495Y-76436401D01*
X177069035Y-76242830D01*
X177168903Y-76028663D01*
X177230063Y-75800408D01*
X177250659Y-75565000D01*
X177230063Y-75329592D01*
X177168903Y-75101337D01*
X177069035Y-74887171D01*
X177049248Y-74858911D01*
X176933494Y-74693597D01*
X176766402Y-74526506D01*
X176766396Y-74526501D01*
X176580842Y-74396575D01*
X176537217Y-74341998D01*
X176530023Y-74272500D01*
X176561546Y-74210145D01*
X176580842Y-74193425D01*
X176683090Y-74121830D01*
X176766401Y-74063495D01*
X176933495Y-73896401D01*
X177069035Y-73702830D01*
X177168903Y-73488663D01*
X177230063Y-73260408D01*
X177250659Y-73025000D01*
X177230063Y-72789592D01*
X177168903Y-72561337D01*
X177069035Y-72347171D01*
X177049248Y-72318911D01*
X176933494Y-72153597D01*
X176766402Y-71986506D01*
X176766396Y-71986501D01*
X176580842Y-71856575D01*
X176537217Y-71801998D01*
X176530023Y-71732500D01*
X176561546Y-71670145D01*
X176580842Y-71653425D01*
X176678908Y-71584758D01*
X176766401Y-71523495D01*
X176933495Y-71356401D01*
X177069035Y-71162830D01*
X177168903Y-70948663D01*
X177230063Y-70720408D01*
X177250659Y-70485000D01*
X177230063Y-70249592D01*
X177168903Y-70021337D01*
X177069035Y-69807171D01*
X177049248Y-69778911D01*
X176933494Y-69613597D01*
X176766402Y-69446506D01*
X176766396Y-69446501D01*
X176580842Y-69316575D01*
X176537217Y-69261998D01*
X176530023Y-69192500D01*
X176561546Y-69130145D01*
X176580842Y-69113425D01*
X176683090Y-69041830D01*
X176766401Y-68983495D01*
X176933495Y-68816401D01*
X177069035Y-68622830D01*
X177168903Y-68408663D01*
X177230063Y-68180408D01*
X177250659Y-67945000D01*
X177230063Y-67709592D01*
X177168903Y-67481337D01*
X177069035Y-67267171D01*
X177049248Y-67238911D01*
X176933494Y-67073597D01*
X176766402Y-66906506D01*
X176766396Y-66906501D01*
X176580842Y-66776575D01*
X176537217Y-66721998D01*
X176530023Y-66652500D01*
X176561546Y-66590145D01*
X176580842Y-66573425D01*
X176734506Y-66465828D01*
X176766401Y-66443495D01*
X176933495Y-66276401D01*
X177069035Y-66082830D01*
X177168903Y-65868663D01*
X177230063Y-65640408D01*
X177250659Y-65405000D01*
X177230063Y-65169592D01*
X177168903Y-64941337D01*
X177069035Y-64727171D01*
X177031769Y-64673950D01*
X176933496Y-64533600D01*
X176881221Y-64481325D01*
X176811567Y-64411671D01*
X176778084Y-64350351D01*
X176783068Y-64280659D01*
X176824939Y-64224725D01*
X176855915Y-64207810D01*
X176987331Y-64158796D01*
X177102546Y-64072546D01*
X177188796Y-63957331D01*
X177239091Y-63822483D01*
X177245500Y-63762873D01*
X177245499Y-61967128D01*
X177239091Y-61907517D01*
X177208123Y-61824488D01*
X177188797Y-61772671D01*
X177188793Y-61772664D01*
X177102547Y-61657455D01*
X177102544Y-61657452D01*
X176987335Y-61571206D01*
X176987328Y-61571202D01*
X176852482Y-61520908D01*
X176852483Y-61520908D01*
X176792883Y-61514501D01*
X176792881Y-61514500D01*
X176792873Y-61514500D01*
X176792864Y-61514500D01*
X174997129Y-61514500D01*
X174997123Y-61514501D01*
X174937516Y-61520908D01*
X174802671Y-61571202D01*
X174802664Y-61571206D01*
X174687455Y-61657452D01*
X174687452Y-61657455D01*
X174601206Y-61772664D01*
X174601202Y-61772671D01*
X174550908Y-61907517D01*
X174546873Y-61945053D01*
X174544501Y-61967123D01*
X174544500Y-61967135D01*
X174544500Y-63762870D01*
X174544501Y-63762876D01*
X174550908Y-63822483D01*
X174601202Y-63957328D01*
X174601206Y-63957335D01*
X174687452Y-64072544D01*
X174687455Y-64072547D01*
X174802664Y-64158793D01*
X174802671Y-64158797D01*
X174934081Y-64207810D01*
X174990015Y-64249681D01*
X175014432Y-64315145D01*
X174999580Y-64383418D01*
X174978430Y-64411673D01*
X174856503Y-64533600D01*
X174720965Y-64727169D01*
X174720964Y-64727171D01*
X174621098Y-64941335D01*
X174621094Y-64941344D01*
X174559938Y-65169586D01*
X174559936Y-65169596D01*
X174539341Y-65404999D01*
X173225365Y-65404999D01*
X173205948Y-65195458D01*
X173148359Y-64993053D01*
X173054558Y-64804675D01*
X172927740Y-64636741D01*
X172772223Y-64494969D01*
X172772221Y-64494967D01*
X172593307Y-64384188D01*
X172593301Y-64384185D01*
X172438648Y-64324273D01*
X172397076Y-64308168D01*
X172190220Y-64269500D01*
X171979780Y-64269500D01*
X171772924Y-64308168D01*
X171772921Y-64308168D01*
X171772921Y-64308169D01*
X171576698Y-64384185D01*
X171576692Y-64384188D01*
X171397778Y-64494967D01*
X171397776Y-64494969D01*
X171242261Y-64636739D01*
X171115442Y-64804674D01*
X171021642Y-64993049D01*
X171021641Y-64993053D01*
X170971412Y-65169592D01*
X170964051Y-65195462D01*
X170944635Y-65404999D01*
X112395000Y-65404999D01*
X112395000Y-59054994D01*
X113540738Y-59054994D01*
X113540738Y-59055005D01*
X113559753Y-59284484D01*
X113616282Y-59507714D01*
X113708783Y-59718596D01*
X113779308Y-59826541D01*
X113799496Y-59893430D01*
X113799500Y-59894363D01*
X113799500Y-60755635D01*
X113779815Y-60822674D01*
X113779309Y-60823456D01*
X113708782Y-60931405D01*
X113616282Y-61142285D01*
X113559753Y-61365515D01*
X113540738Y-61594994D01*
X113540738Y-61595005D01*
X113559753Y-61824484D01*
X113616282Y-62047714D01*
X113708782Y-62258594D01*
X113834728Y-62451370D01*
X113834731Y-62451373D01*
X113990692Y-62620792D01*
X114073588Y-62685312D01*
X114152776Y-62746947D01*
X114172411Y-62762229D01*
X114374931Y-62871828D01*
X114488025Y-62910653D01*
X114592725Y-62946597D01*
X114592727Y-62946597D01*
X114592729Y-62946598D01*
X114819863Y-62984500D01*
X114819864Y-62984500D01*
X115050136Y-62984500D01*
X115050137Y-62984500D01*
X115277271Y-62946598D01*
X115495069Y-62871828D01*
X115697589Y-62762229D01*
X115879308Y-62620792D01*
X116035269Y-62451373D01*
X116101191Y-62350472D01*
X116154337Y-62305115D01*
X116223569Y-62295691D01*
X116286905Y-62325193D01*
X116308809Y-62350472D01*
X116374728Y-62451370D01*
X116374731Y-62451373D01*
X116530692Y-62620792D01*
X116613588Y-62685312D01*
X116692776Y-62746947D01*
X116712411Y-62762229D01*
X116914931Y-62871828D01*
X117028025Y-62910653D01*
X117132725Y-62946597D01*
X117132727Y-62946597D01*
X117132729Y-62946598D01*
X117359863Y-62984500D01*
X117359864Y-62984500D01*
X117590136Y-62984500D01*
X117590137Y-62984500D01*
X117817271Y-62946598D01*
X118035069Y-62871828D01*
X118237589Y-62762229D01*
X118419308Y-62620792D01*
X118575269Y-62451373D01*
X118641191Y-62350472D01*
X118694337Y-62305115D01*
X118763569Y-62295691D01*
X118826905Y-62325193D01*
X118848809Y-62350472D01*
X118914728Y-62451370D01*
X118914731Y-62451373D01*
X119070692Y-62620792D01*
X119153588Y-62685312D01*
X119232776Y-62746947D01*
X119252411Y-62762229D01*
X119454931Y-62871828D01*
X119568025Y-62910653D01*
X119672725Y-62946597D01*
X119672727Y-62946597D01*
X119672729Y-62946598D01*
X119899863Y-62984500D01*
X119899864Y-62984500D01*
X120130136Y-62984500D01*
X120130137Y-62984500D01*
X120357271Y-62946598D01*
X120575069Y-62871828D01*
X120777589Y-62762229D01*
X120959308Y-62620792D01*
X121115269Y-62451373D01*
X121241217Y-62258595D01*
X121333717Y-62047716D01*
X121390246Y-61824488D01*
X121404537Y-61652020D01*
X121409262Y-61595005D01*
X121409262Y-61594994D01*
X121394373Y-61415317D01*
X121390246Y-61365512D01*
X121333717Y-61142284D01*
X121241217Y-60931405D01*
X121170691Y-60823456D01*
X121150504Y-60756567D01*
X121150500Y-60755635D01*
X121150500Y-60314500D01*
X121170185Y-60247461D01*
X121222989Y-60201706D01*
X121274500Y-60190500D01*
X123914370Y-60190500D01*
X123992824Y-60178073D01*
X124090897Y-60162541D01*
X124219193Y-60120853D01*
X124260881Y-60107309D01*
X124420132Y-60026167D01*
X124564728Y-59921111D01*
X124691111Y-59794728D01*
X126328704Y-58157135D01*
X132634500Y-58157135D01*
X132634500Y-59952870D01*
X132634501Y-59952876D01*
X132640908Y-60012483D01*
X132691202Y-60147328D01*
X132691206Y-60147335D01*
X132777452Y-60262544D01*
X132777455Y-60262547D01*
X132892664Y-60348793D01*
X132892671Y-60348797D01*
X132937618Y-60365561D01*
X133027517Y-60399091D01*
X133087127Y-60405500D01*
X133106497Y-60405499D01*
X133173535Y-60425181D01*
X133219292Y-60477983D01*
X133230500Y-60529499D01*
X133230500Y-62977547D01*
X133210815Y-63044586D01*
X133190039Y-63069183D01*
X133142262Y-63112738D01*
X133015442Y-63280674D01*
X132921642Y-63469049D01*
X132921641Y-63469053D01*
X132866836Y-63661675D01*
X132864051Y-63671462D01*
X132844635Y-63880999D01*
X132844635Y-63881000D01*
X132864051Y-64090537D01*
X132864051Y-64090539D01*
X132864052Y-64090542D01*
X132897418Y-64207810D01*
X132921642Y-64292950D01*
X132980759Y-64411673D01*
X133015442Y-64481325D01*
X133132805Y-64636739D01*
X133142261Y-64649260D01*
X133297776Y-64791030D01*
X133297778Y-64791032D01*
X133476692Y-64901811D01*
X133476698Y-64901814D01*
X133518268Y-64917918D01*
X133672924Y-64977832D01*
X133879780Y-65016500D01*
X133879782Y-65016500D01*
X134090218Y-65016500D01*
X134090220Y-65016500D01*
X134297076Y-64977832D01*
X134493304Y-64901813D01*
X134672223Y-64791031D01*
X134827740Y-64649259D01*
X134954558Y-64481325D01*
X135048359Y-64292947D01*
X135105948Y-64090542D01*
X135125365Y-63881000D01*
X135105948Y-63671458D01*
X135048359Y-63469053D01*
X134954558Y-63280675D01*
X134827740Y-63112741D01*
X134817339Y-63103259D01*
X134779961Y-63069183D01*
X134743680Y-63009472D01*
X134739500Y-62977547D01*
X134739500Y-60529499D01*
X134759185Y-60462460D01*
X134811989Y-60416705D01*
X134863500Y-60405499D01*
X134882871Y-60405499D01*
X134882872Y-60405499D01*
X134942483Y-60399091D01*
X135077331Y-60348796D01*
X135192546Y-60262546D01*
X135278796Y-60147331D01*
X135327810Y-60015916D01*
X135369681Y-59959984D01*
X135435145Y-59935566D01*
X135503418Y-59950417D01*
X135531673Y-59971569D01*
X135653599Y-60093495D01*
X135750384Y-60161265D01*
X135847165Y-60229032D01*
X135847167Y-60229033D01*
X135847170Y-60229035D01*
X136061337Y-60328903D01*
X136289592Y-60390063D01*
X136466034Y-60405500D01*
X136524999Y-60410659D01*
X136525000Y-60410659D01*
X136525001Y-60410659D01*
X136583966Y-60405500D01*
X136760408Y-60390063D01*
X136988663Y-60328903D01*
X137202830Y-60229035D01*
X137396401Y-60093495D01*
X137563495Y-59926401D01*
X137693730Y-59740405D01*
X137748307Y-59696781D01*
X137817805Y-59689587D01*
X137880160Y-59721110D01*
X137896879Y-59740405D01*
X138026890Y-59926078D01*
X138193917Y-60093105D01*
X138387421Y-60228600D01*
X138601507Y-60328429D01*
X138601516Y-60328433D01*
X138815000Y-60385634D01*
X138815000Y-59488012D01*
X138872007Y-59520925D01*
X138999174Y-59555000D01*
X139130826Y-59555000D01*
X139257993Y-59520925D01*
X139315000Y-59488012D01*
X139315000Y-60385633D01*
X139528483Y-60328433D01*
X139528492Y-60328429D01*
X139742578Y-60228600D01*
X139936082Y-60093105D01*
X140103105Y-59926082D01*
X140238600Y-59732578D01*
X140338429Y-59518492D01*
X140338432Y-59518486D01*
X140395636Y-59305000D01*
X139498012Y-59305000D01*
X139530925Y-59247993D01*
X139565000Y-59120826D01*
X139565000Y-58989174D01*
X139530925Y-58862007D01*
X139498012Y-58805000D01*
X140395636Y-58805000D01*
X140395635Y-58804999D01*
X140338432Y-58591513D01*
X140338429Y-58591507D01*
X140238600Y-58377422D01*
X140238599Y-58377420D01*
X140103113Y-58183926D01*
X140103108Y-58183920D01*
X140076323Y-58157135D01*
X144064500Y-58157135D01*
X144064500Y-59952870D01*
X144064501Y-59952876D01*
X144070908Y-60012483D01*
X144121202Y-60147328D01*
X144121206Y-60147335D01*
X144207452Y-60262544D01*
X144207455Y-60262547D01*
X144322664Y-60348793D01*
X144322671Y-60348797D01*
X144367618Y-60365561D01*
X144457517Y-60399091D01*
X144517127Y-60405500D01*
X144536497Y-60405499D01*
X144603535Y-60425181D01*
X144649292Y-60477983D01*
X144660500Y-60529499D01*
X144660500Y-62531552D01*
X144660499Y-62531578D01*
X144660499Y-62685314D01*
X144677136Y-62768950D01*
X144684684Y-62806894D01*
X144689495Y-62831080D01*
X144713053Y-62887955D01*
X144746370Y-62968389D01*
X144773821Y-63009472D01*
X144828942Y-63091968D01*
X144828943Y-63091969D01*
X145890693Y-64153718D01*
X145924178Y-64215041D01*
X145926484Y-64252834D01*
X145925635Y-64262001D01*
X145945051Y-64471537D01*
X145945051Y-64471539D01*
X145945052Y-64471542D01*
X146002641Y-64673947D01*
X146096442Y-64862325D01*
X146183667Y-64977830D01*
X146223261Y-65030260D01*
X146378776Y-65172030D01*
X146378778Y-65172032D01*
X146557692Y-65282811D01*
X146557698Y-65282814D01*
X146599268Y-65298918D01*
X146753924Y-65358832D01*
X146960780Y-65397500D01*
X146960782Y-65397500D01*
X147171218Y-65397500D01*
X147171220Y-65397500D01*
X147378076Y-65358832D01*
X147574304Y-65282813D01*
X147753223Y-65172031D01*
X147908740Y-65030259D01*
X148035558Y-64862325D01*
X148129359Y-64673947D01*
X148186948Y-64471542D01*
X148206365Y-64262000D01*
X148205223Y-64249681D01*
X148190477Y-64090542D01*
X148186948Y-64052458D01*
X148129359Y-63850053D01*
X148035558Y-63661675D01*
X147908740Y-63493741D01*
X147881658Y-63469053D01*
X147753223Y-63351969D01*
X147753221Y-63351967D01*
X147574307Y-63241188D01*
X147574301Y-63241185D01*
X147419648Y-63181273D01*
X147378076Y-63165168D01*
X147171220Y-63126500D01*
X147171218Y-63126500D01*
X147048886Y-63126500D01*
X146981847Y-63106815D01*
X146961205Y-63090181D01*
X146228024Y-62356999D01*
X150624635Y-62356999D01*
X150624635Y-62357000D01*
X150644051Y-62566537D01*
X150644051Y-62566539D01*
X150644052Y-62566542D01*
X150699729Y-62762227D01*
X150701642Y-62768950D01*
X150760900Y-62887955D01*
X150795442Y-62957325D01*
X150922260Y-63125259D01*
X151049428Y-63241188D01*
X151077776Y-63267030D01*
X151077778Y-63267032D01*
X151256692Y-63377811D01*
X151256698Y-63377814D01*
X151298268Y-63393918D01*
X151452924Y-63453832D01*
X151659780Y-63492500D01*
X151659782Y-63492500D01*
X151870218Y-63492500D01*
X151870220Y-63492500D01*
X152077076Y-63453832D01*
X152273304Y-63377813D01*
X152452223Y-63267031D01*
X152607740Y-63125259D01*
X152734558Y-62957325D01*
X152828359Y-62768947D01*
X152885948Y-62566542D01*
X152905365Y-62357000D01*
X152904516Y-62347840D01*
X152917930Y-62279271D01*
X152940303Y-62248720D01*
X154073206Y-61115819D01*
X154134529Y-61082334D01*
X154160887Y-61079500D01*
X157497113Y-61079500D01*
X157564152Y-61099185D01*
X157584794Y-61115819D01*
X157958587Y-61489612D01*
X157992072Y-61550935D01*
X157987088Y-61620627D01*
X157969860Y-61652020D01*
X157907442Y-61734674D01*
X157813642Y-61923049D01*
X157756051Y-62125462D01*
X157736635Y-62334999D01*
X157736635Y-62335000D01*
X157756051Y-62544537D01*
X157756051Y-62544539D01*
X157756052Y-62544542D01*
X157796105Y-62685314D01*
X157813642Y-62746950D01*
X157907442Y-62935325D01*
X158034260Y-63103259D01*
X158185561Y-63241188D01*
X158189776Y-63245030D01*
X158189778Y-63245032D01*
X158368692Y-63355811D01*
X158368698Y-63355814D01*
X158410268Y-63371918D01*
X158564924Y-63431832D01*
X158771780Y-63470500D01*
X158771782Y-63470500D01*
X158982218Y-63470500D01*
X158982220Y-63470500D01*
X159189076Y-63431832D01*
X159385304Y-63355813D01*
X159564223Y-63245031D01*
X159719740Y-63103259D01*
X159846558Y-62935325D01*
X159940359Y-62746947D01*
X159997948Y-62544542D01*
X160017365Y-62335000D01*
X159997948Y-62125458D01*
X159940359Y-61923053D01*
X159846558Y-61734675D01*
X159719740Y-61566741D01*
X159718978Y-61566046D01*
X159671961Y-61523183D01*
X159635680Y-61463472D01*
X159631500Y-61431547D01*
X159631500Y-61421446D01*
X159631501Y-61421425D01*
X159631501Y-61266685D01*
X159602506Y-61120926D01*
X159602505Y-61120925D01*
X159602505Y-61120921D01*
X159545630Y-60983611D01*
X159463059Y-60860034D01*
X159463057Y-60860031D01*
X158341968Y-59738942D01*
X158283183Y-59699664D01*
X158218389Y-59656370D01*
X158218386Y-59656368D01*
X158218385Y-59656368D01*
X158137955Y-59623053D01*
X158081080Y-59599495D01*
X158056894Y-59594684D01*
X157935314Y-59570499D01*
X157935312Y-59570499D01*
X157786688Y-59570499D01*
X157780574Y-59570499D01*
X157780554Y-59570500D01*
X153877446Y-59570500D01*
X153877426Y-59570499D01*
X153871312Y-59570499D01*
X153722688Y-59570499D01*
X153722686Y-59570499D01*
X153601105Y-59594684D01*
X153586540Y-59597581D01*
X153576918Y-59599495D01*
X153576917Y-59599495D01*
X153520045Y-59623053D01*
X153439614Y-59656368D01*
X153316031Y-59738942D01*
X153316030Y-59738943D01*
X151869794Y-61185181D01*
X151808471Y-61218666D01*
X151782113Y-61221500D01*
X151659780Y-61221500D01*
X151452924Y-61260168D01*
X151452921Y-61260168D01*
X151452921Y-61260169D01*
X151256698Y-61336185D01*
X151256692Y-61336188D01*
X151077778Y-61446967D01*
X151077776Y-61446969D01*
X150922261Y-61588739D01*
X150795442Y-61756674D01*
X150701642Y-61945049D01*
X150644051Y-62147462D01*
X150624635Y-62356999D01*
X146228024Y-62356999D01*
X146205819Y-62334794D01*
X146172334Y-62273471D01*
X146169500Y-62247113D01*
X146169500Y-60529499D01*
X146189185Y-60462460D01*
X146241989Y-60416705D01*
X146293500Y-60405499D01*
X146312871Y-60405499D01*
X146312872Y-60405499D01*
X146372483Y-60399091D01*
X146507331Y-60348796D01*
X146622546Y-60262546D01*
X146708796Y-60147331D01*
X146757810Y-60015916D01*
X146799681Y-59959984D01*
X146865145Y-59935566D01*
X146933418Y-59950417D01*
X146961673Y-59971569D01*
X147083599Y-60093495D01*
X147180384Y-60161265D01*
X147277165Y-60229032D01*
X147277167Y-60229033D01*
X147277170Y-60229035D01*
X147491337Y-60328903D01*
X147719592Y-60390063D01*
X147896034Y-60405500D01*
X147954999Y-60410659D01*
X147955000Y-60410659D01*
X147955001Y-60410659D01*
X148013966Y-60405500D01*
X148190408Y-60390063D01*
X148418663Y-60328903D01*
X148632830Y-60229035D01*
X148826401Y-60093495D01*
X148993495Y-59926401D01*
X149123730Y-59740405D01*
X149178307Y-59696781D01*
X149247805Y-59689587D01*
X149310160Y-59721110D01*
X149326879Y-59740405D01*
X149456890Y-59926078D01*
X149623917Y-60093105D01*
X149817421Y-60228600D01*
X150031507Y-60328429D01*
X150031516Y-60328433D01*
X150245000Y-60385634D01*
X150245000Y-59488012D01*
X150302007Y-59520925D01*
X150429174Y-59555000D01*
X150560826Y-59555000D01*
X150687993Y-59520925D01*
X150745000Y-59488012D01*
X150745000Y-60385634D01*
X150958483Y-60328433D01*
X150958492Y-60328429D01*
X151172578Y-60228600D01*
X151366082Y-60093105D01*
X151533105Y-59926082D01*
X151668600Y-59732578D01*
X151768429Y-59518492D01*
X151768432Y-59518486D01*
X151825636Y-59305000D01*
X150928012Y-59305000D01*
X150960925Y-59247993D01*
X150995000Y-59120826D01*
X150995000Y-58989174D01*
X150960925Y-58862007D01*
X150928012Y-58805000D01*
X151825636Y-58805000D01*
X151825635Y-58804999D01*
X151768432Y-58591513D01*
X151768429Y-58591507D01*
X151668600Y-58377422D01*
X151668599Y-58377420D01*
X151533113Y-58183926D01*
X151533108Y-58183920D01*
X151366082Y-58016894D01*
X151172578Y-57881399D01*
X150958492Y-57781570D01*
X150958486Y-57781567D01*
X150745000Y-57724364D01*
X150745000Y-58621988D01*
X150687993Y-58589075D01*
X150560826Y-58555000D01*
X150429174Y-58555000D01*
X150302007Y-58589075D01*
X150245000Y-58621988D01*
X150245000Y-57724364D01*
X150244999Y-57724364D01*
X150031513Y-57781567D01*
X150031507Y-57781570D01*
X149817422Y-57881399D01*
X149817420Y-57881400D01*
X149623926Y-58016886D01*
X149623920Y-58016891D01*
X149456891Y-58183920D01*
X149456890Y-58183922D01*
X149326880Y-58369595D01*
X149272303Y-58413219D01*
X149202804Y-58420412D01*
X149140450Y-58388890D01*
X149123730Y-58369594D01*
X148993494Y-58183597D01*
X148826402Y-58016506D01*
X148826395Y-58016501D01*
X148632834Y-57880967D01*
X148632830Y-57880965D01*
X148632828Y-57880964D01*
X148418663Y-57781097D01*
X148418659Y-57781096D01*
X148418655Y-57781094D01*
X148190413Y-57719938D01*
X148190403Y-57719936D01*
X147955001Y-57699341D01*
X147954999Y-57699341D01*
X147719596Y-57719936D01*
X147719586Y-57719938D01*
X147491344Y-57781094D01*
X147491335Y-57781098D01*
X147277171Y-57880964D01*
X147277169Y-57880965D01*
X147083600Y-58016503D01*
X146961673Y-58138430D01*
X146900350Y-58171914D01*
X146830658Y-58166930D01*
X146774725Y-58125058D01*
X146757810Y-58094081D01*
X146708797Y-57962671D01*
X146708793Y-57962664D01*
X146622547Y-57847455D01*
X146622544Y-57847452D01*
X146507335Y-57761206D01*
X146507328Y-57761202D01*
X146372482Y-57710908D01*
X146372483Y-57710908D01*
X146312883Y-57704501D01*
X146312881Y-57704500D01*
X146312873Y-57704500D01*
X146312864Y-57704500D01*
X144517129Y-57704500D01*
X144517123Y-57704501D01*
X144457516Y-57710908D01*
X144322671Y-57761202D01*
X144322664Y-57761206D01*
X144207455Y-57847452D01*
X144207452Y-57847455D01*
X144121206Y-57962664D01*
X144121202Y-57962671D01*
X144070908Y-58097517D01*
X144064501Y-58157116D01*
X144064500Y-58157135D01*
X140076323Y-58157135D01*
X139936082Y-58016894D01*
X139742578Y-57881399D01*
X139528492Y-57781570D01*
X139528486Y-57781567D01*
X139315000Y-57724364D01*
X139315000Y-58621988D01*
X139257993Y-58589075D01*
X139130826Y-58555000D01*
X138999174Y-58555000D01*
X138872007Y-58589075D01*
X138815000Y-58621988D01*
X138815000Y-57724364D01*
X138814999Y-57724364D01*
X138601513Y-57781567D01*
X138601507Y-57781570D01*
X138387422Y-57881399D01*
X138387420Y-57881400D01*
X138193926Y-58016886D01*
X138193920Y-58016891D01*
X138026891Y-58183920D01*
X138026890Y-58183922D01*
X137896880Y-58369595D01*
X137842303Y-58413219D01*
X137772804Y-58420412D01*
X137710450Y-58388890D01*
X137693730Y-58369594D01*
X137563494Y-58183597D01*
X137396402Y-58016506D01*
X137396395Y-58016501D01*
X137202834Y-57880967D01*
X137202830Y-57880965D01*
X137202828Y-57880964D01*
X136988663Y-57781097D01*
X136988659Y-57781096D01*
X136988655Y-57781094D01*
X136760413Y-57719938D01*
X136760403Y-57719936D01*
X136525001Y-57699341D01*
X136524999Y-57699341D01*
X136289596Y-57719936D01*
X136289586Y-57719938D01*
X136061344Y-57781094D01*
X136061335Y-57781098D01*
X135847171Y-57880964D01*
X135847169Y-57880965D01*
X135653600Y-58016503D01*
X135531673Y-58138430D01*
X135470350Y-58171914D01*
X135400658Y-58166930D01*
X135344725Y-58125058D01*
X135327810Y-58094081D01*
X135278797Y-57962671D01*
X135278793Y-57962664D01*
X135192547Y-57847455D01*
X135192544Y-57847452D01*
X135077335Y-57761206D01*
X135077328Y-57761202D01*
X134942482Y-57710908D01*
X134942483Y-57710908D01*
X134882883Y-57704501D01*
X134882881Y-57704500D01*
X134882873Y-57704500D01*
X134882864Y-57704500D01*
X133087129Y-57704500D01*
X133087123Y-57704501D01*
X133027516Y-57710908D01*
X132892671Y-57761202D01*
X132892664Y-57761206D01*
X132777455Y-57847452D01*
X132777452Y-57847455D01*
X132691206Y-57962664D01*
X132691202Y-57962671D01*
X132640908Y-58097517D01*
X132634501Y-58157116D01*
X132634500Y-58157135D01*
X126328704Y-58157135D01*
X128501111Y-55984728D01*
X128532685Y-55941270D01*
X128606167Y-55840132D01*
X128687309Y-55680881D01*
X128700853Y-55639193D01*
X128742541Y-55510897D01*
X128762926Y-55382187D01*
X128770500Y-55334370D01*
X128770500Y-53808657D01*
X128790185Y-53741618D01*
X128800210Y-53728125D01*
X128856911Y-53661737D01*
X128893259Y-53619179D01*
X129020777Y-53411089D01*
X129114172Y-53185612D01*
X129171146Y-52948302D01*
X129190294Y-52705000D01*
X129171146Y-52461698D01*
X129114172Y-52224388D01*
X129114169Y-52224380D01*
X129020777Y-51998910D01*
X128893262Y-51790826D01*
X128893261Y-51790823D01*
X128856909Y-51748261D01*
X128736394Y-51607155D01*
X155295000Y-51607155D01*
X155295000Y-52455000D01*
X156354252Y-52455000D01*
X156332482Y-52492708D01*
X156295000Y-52632591D01*
X156295000Y-52777409D01*
X156332482Y-52917292D01*
X156354252Y-52955000D01*
X155295000Y-52955000D01*
X155295000Y-53802844D01*
X155301401Y-53862372D01*
X155301403Y-53862379D01*
X155351645Y-53997086D01*
X155351649Y-53997093D01*
X155437809Y-54112187D01*
X155437812Y-54112190D01*
X155552906Y-54198350D01*
X155552913Y-54198354D01*
X155687620Y-54248596D01*
X155687627Y-54248598D01*
X155747155Y-54254999D01*
X155747172Y-54255000D01*
X156595000Y-54255000D01*
X156595000Y-53195747D01*
X156632708Y-53217518D01*
X156772591Y-53255000D01*
X156917409Y-53255000D01*
X157057292Y-53217518D01*
X157095000Y-53195747D01*
X157095000Y-54255000D01*
X157942828Y-54255000D01*
X157942844Y-54254999D01*
X158002372Y-54248598D01*
X158002379Y-54248596D01*
X158137086Y-54198354D01*
X158137093Y-54198350D01*
X158252186Y-54112190D01*
X158329657Y-54008704D01*
X158385591Y-53966833D01*
X158455283Y-53961849D01*
X158493714Y-53977288D01*
X158678910Y-54090777D01*
X158904381Y-54184169D01*
X158904378Y-54184169D01*
X158904384Y-54184170D01*
X158904388Y-54184172D01*
X159141698Y-54241146D01*
X159385000Y-54260294D01*
X159628302Y-54241146D01*
X159865612Y-54184172D01*
X160091089Y-54090777D01*
X160299179Y-53963259D01*
X160484759Y-53804759D01*
X160643259Y-53619179D01*
X160770777Y-53411089D01*
X160864172Y-53185612D01*
X160921146Y-52948302D01*
X160940294Y-52705000D01*
X160921146Y-52461698D01*
X160864172Y-52224388D01*
X160864169Y-52224380D01*
X160770777Y-51998910D01*
X160643262Y-51790826D01*
X160643261Y-51790823D01*
X160606909Y-51748261D01*
X160486394Y-51607155D01*
X164185000Y-51607155D01*
X164185000Y-52455000D01*
X165244252Y-52455000D01*
X165222482Y-52492708D01*
X165185000Y-52632591D01*
X165185000Y-52777409D01*
X165222482Y-52917292D01*
X165244252Y-52955000D01*
X164185000Y-52955000D01*
X164185000Y-53802844D01*
X164191401Y-53862372D01*
X164191403Y-53862379D01*
X164241645Y-53997086D01*
X164241649Y-53997093D01*
X164327809Y-54112187D01*
X164327812Y-54112190D01*
X164442906Y-54198350D01*
X164442913Y-54198354D01*
X164577620Y-54248596D01*
X164577627Y-54248598D01*
X164637155Y-54254999D01*
X164637172Y-54255000D01*
X165485000Y-54255000D01*
X165485000Y-53195747D01*
X165522708Y-53217518D01*
X165662591Y-53255000D01*
X165807409Y-53255000D01*
X165947292Y-53217518D01*
X165985000Y-53195747D01*
X165985000Y-54255000D01*
X166832828Y-54255000D01*
X166832844Y-54254999D01*
X166892372Y-54248598D01*
X166892379Y-54248596D01*
X167027086Y-54198354D01*
X167027093Y-54198350D01*
X167142186Y-54112190D01*
X167219657Y-54008704D01*
X167275591Y-53966833D01*
X167345283Y-53961849D01*
X167383714Y-53977288D01*
X167568910Y-54090777D01*
X167794381Y-54184169D01*
X167794378Y-54184169D01*
X167794384Y-54184170D01*
X167794388Y-54184172D01*
X168031698Y-54241146D01*
X168275000Y-54260294D01*
X168518302Y-54241146D01*
X168755612Y-54184172D01*
X168981089Y-54090777D01*
X169189179Y-53963259D01*
X169374759Y-53804759D01*
X169496911Y-53661736D01*
X169519375Y-53647071D01*
X170291212Y-52875234D01*
X170302482Y-52917292D01*
X170374890Y-53042708D01*
X170477292Y-53145110D01*
X170602708Y-53217518D01*
X170644765Y-53228787D01*
X169907056Y-53966494D01*
X170109138Y-54090331D01*
X170334542Y-54183696D01*
X170571780Y-54240651D01*
X170571779Y-54240651D01*
X170815000Y-54259792D01*
X171058219Y-54240651D01*
X171295457Y-54183696D01*
X171520861Y-54090331D01*
X171722942Y-53966494D01*
X170985234Y-53228787D01*
X171027292Y-53217518D01*
X171152708Y-53145110D01*
X171255110Y-53042708D01*
X171327518Y-52917292D01*
X171338787Y-52875234D01*
X172098593Y-53635041D01*
X172133088Y-53661737D01*
X172195711Y-53735059D01*
X172255241Y-53804759D01*
X172369788Y-53902591D01*
X172440823Y-53963261D01*
X172440826Y-53963262D01*
X172648910Y-54090777D01*
X172874381Y-54184169D01*
X172874378Y-54184169D01*
X172874384Y-54184170D01*
X172874388Y-54184172D01*
X173111698Y-54241146D01*
X173355000Y-54260294D01*
X173598302Y-54241146D01*
X173835612Y-54184172D01*
X174061089Y-54090777D01*
X174269179Y-53963259D01*
X174454759Y-53804759D01*
X174613259Y-53619179D01*
X174740777Y-53411089D01*
X174834172Y-53185612D01*
X174891146Y-52948302D01*
X174910294Y-52705000D01*
X174891146Y-52461698D01*
X174834172Y-52224388D01*
X174834169Y-52224380D01*
X174740777Y-51998910D01*
X174613262Y-51790826D01*
X174613261Y-51790823D01*
X174576909Y-51748261D01*
X174454759Y-51605241D01*
X174332063Y-51500449D01*
X174269176Y-51446738D01*
X174269173Y-51446737D01*
X174061089Y-51319222D01*
X173835618Y-51225830D01*
X173835621Y-51225830D01*
X173693469Y-51191702D01*
X173598302Y-51168854D01*
X173598300Y-51168853D01*
X173598297Y-51168853D01*
X173355000Y-51149706D01*
X173111702Y-51168853D01*
X173111698Y-51168854D01*
X172935301Y-51211204D01*
X172874380Y-51225830D01*
X172648910Y-51319222D01*
X172440826Y-51446737D01*
X172440823Y-51446738D01*
X172255241Y-51605241D01*
X172133090Y-51748261D01*
X172110625Y-51762925D01*
X171338787Y-52534764D01*
X171327518Y-52492708D01*
X171255110Y-52367292D01*
X171152708Y-52264890D01*
X171027292Y-52192482D01*
X170985233Y-52181212D01*
X171722942Y-51443504D01*
X171520861Y-51319668D01*
X171295457Y-51226303D01*
X171058219Y-51169348D01*
X171058220Y-51169348D01*
X170815000Y-51150207D01*
X170571780Y-51169348D01*
X170334542Y-51226303D01*
X170109146Y-51319665D01*
X170109141Y-51319668D01*
X169907056Y-51443504D01*
X170644765Y-52181212D01*
X170602708Y-52192482D01*
X170477292Y-52264890D01*
X170374890Y-52367292D01*
X170302482Y-52492708D01*
X170291212Y-52534765D01*
X169531427Y-51774979D01*
X169496909Y-51748261D01*
X169374759Y-51605241D01*
X169252063Y-51500449D01*
X169189176Y-51446738D01*
X169189173Y-51446737D01*
X168981089Y-51319222D01*
X168755618Y-51225830D01*
X168755621Y-51225830D01*
X168613469Y-51191702D01*
X168518302Y-51168854D01*
X168518300Y-51168853D01*
X168518297Y-51168853D01*
X168275000Y-51149706D01*
X168031702Y-51168853D01*
X168031698Y-51168854D01*
X167855301Y-51211204D01*
X167794380Y-51225830D01*
X167568910Y-51319222D01*
X167383714Y-51432711D01*
X167316268Y-51450956D01*
X167249665Y-51429840D01*
X167219658Y-51401295D01*
X167142190Y-51297812D01*
X167142187Y-51297809D01*
X167027093Y-51211649D01*
X167027086Y-51211645D01*
X166892379Y-51161403D01*
X166892372Y-51161401D01*
X166832844Y-51155000D01*
X165985000Y-51155000D01*
X165985000Y-52214252D01*
X165947292Y-52192482D01*
X165807409Y-52155000D01*
X165662591Y-52155000D01*
X165522708Y-52192482D01*
X165485000Y-52214252D01*
X165485000Y-51155000D01*
X164637155Y-51155000D01*
X164577627Y-51161401D01*
X164577620Y-51161403D01*
X164442913Y-51211645D01*
X164442906Y-51211649D01*
X164327812Y-51297809D01*
X164327809Y-51297812D01*
X164241649Y-51412906D01*
X164241645Y-51412913D01*
X164191403Y-51547620D01*
X164191401Y-51547627D01*
X164185000Y-51607155D01*
X160486394Y-51607155D01*
X160484759Y-51605241D01*
X160362063Y-51500449D01*
X160299176Y-51446738D01*
X160299173Y-51446737D01*
X160091089Y-51319222D01*
X159865618Y-51225830D01*
X159865621Y-51225830D01*
X159723469Y-51191702D01*
X159628302Y-51168854D01*
X159628300Y-51168853D01*
X159628297Y-51168853D01*
X159385000Y-51149706D01*
X159141702Y-51168853D01*
X159141698Y-51168854D01*
X158965301Y-51211204D01*
X158904380Y-51225830D01*
X158678910Y-51319222D01*
X158493714Y-51432711D01*
X158426268Y-51450956D01*
X158359665Y-51429840D01*
X158329658Y-51401295D01*
X158252190Y-51297812D01*
X158252187Y-51297809D01*
X158137093Y-51211649D01*
X158137086Y-51211645D01*
X158002379Y-51161403D01*
X158002372Y-51161401D01*
X157942844Y-51155000D01*
X157095000Y-51155000D01*
X157095000Y-52214252D01*
X157057292Y-52192482D01*
X156917409Y-52155000D01*
X156772591Y-52155000D01*
X156632708Y-52192482D01*
X156595000Y-52214252D01*
X156595000Y-51155000D01*
X155747155Y-51155000D01*
X155687627Y-51161401D01*
X155687620Y-51161403D01*
X155552913Y-51211645D01*
X155552906Y-51211649D01*
X155437812Y-51297809D01*
X155437809Y-51297812D01*
X155351649Y-51412906D01*
X155351645Y-51412913D01*
X155301403Y-51547620D01*
X155301401Y-51547627D01*
X155295000Y-51607155D01*
X128736394Y-51607155D01*
X128734759Y-51605241D01*
X128612063Y-51500449D01*
X128549176Y-51446738D01*
X128549173Y-51446737D01*
X128341089Y-51319222D01*
X128115618Y-51225830D01*
X128115621Y-51225830D01*
X127973469Y-51191702D01*
X127878302Y-51168854D01*
X127878300Y-51168853D01*
X127878297Y-51168853D01*
X127635000Y-51149706D01*
X127391702Y-51168853D01*
X127391698Y-51168854D01*
X127215301Y-51211204D01*
X127154380Y-51225830D01*
X126928910Y-51319222D01*
X126744142Y-51432449D01*
X126676696Y-51450694D01*
X126610094Y-51429578D01*
X126580086Y-51401033D01*
X126502547Y-51297455D01*
X126502544Y-51297452D01*
X126387335Y-51211206D01*
X126387328Y-51211202D01*
X126252482Y-51160908D01*
X126252483Y-51160908D01*
X126192883Y-51154501D01*
X126192881Y-51154500D01*
X126192873Y-51154500D01*
X126192864Y-51154500D01*
X123997129Y-51154500D01*
X123997123Y-51154501D01*
X123937516Y-51160908D01*
X123802671Y-51211202D01*
X123802664Y-51211206D01*
X123687455Y-51297452D01*
X123687452Y-51297455D01*
X123601206Y-51412664D01*
X123601202Y-51412671D01*
X123550908Y-51547517D01*
X123544501Y-51607116D01*
X123544500Y-51607135D01*
X123544500Y-53802870D01*
X123544501Y-53802876D01*
X123550908Y-53862483D01*
X123601202Y-53997328D01*
X123601206Y-53997335D01*
X123687452Y-54112544D01*
X123687455Y-54112547D01*
X123802664Y-54198793D01*
X123802671Y-54198797D01*
X123937517Y-54249091D01*
X123937516Y-54249091D01*
X123944444Y-54249835D01*
X123997127Y-54255500D01*
X126192872Y-54255499D01*
X126252483Y-54249091D01*
X126275112Y-54240651D01*
X126332167Y-54219371D01*
X126401859Y-54214387D01*
X126463182Y-54247872D01*
X126496666Y-54309195D01*
X126499500Y-54335553D01*
X126499500Y-54723299D01*
X126479815Y-54790338D01*
X126463181Y-54810980D01*
X123390980Y-57883181D01*
X123329657Y-57916666D01*
X123303299Y-57919500D01*
X120860924Y-57919500D01*
X120793885Y-57899815D01*
X120784761Y-57893353D01*
X120777591Y-57887772D01*
X120575069Y-57778172D01*
X120575061Y-57778169D01*
X120357274Y-57703402D01*
X120186920Y-57674975D01*
X120130137Y-57665500D01*
X119899863Y-57665500D01*
X119854436Y-57673080D01*
X119672725Y-57703402D01*
X119454938Y-57778169D01*
X119454930Y-57778172D01*
X119252408Y-57887772D01*
X119070694Y-58029206D01*
X119070689Y-58029211D01*
X118914728Y-58198629D01*
X118788782Y-58391405D01*
X118696282Y-58602285D01*
X118639753Y-58825515D01*
X118620738Y-59054994D01*
X118620738Y-59055005D01*
X118639753Y-59284484D01*
X118696282Y-59507714D01*
X118788783Y-59718596D01*
X118859308Y-59826541D01*
X118879496Y-59893430D01*
X118879500Y-59894363D01*
X118879500Y-60755635D01*
X118859815Y-60822674D01*
X118859308Y-60823458D01*
X118848808Y-60839529D01*
X118795661Y-60884885D01*
X118726429Y-60894308D01*
X118663094Y-60864805D01*
X118641192Y-60839528D01*
X118575272Y-60738630D01*
X118538104Y-60698256D01*
X118419308Y-60569208D01*
X118282158Y-60462460D01*
X118237591Y-60427772D01*
X118035069Y-60318172D01*
X118035061Y-60318169D01*
X117817274Y-60243402D01*
X117646920Y-60214975D01*
X117590137Y-60205500D01*
X117359863Y-60205500D01*
X117314436Y-60213080D01*
X117132725Y-60243402D01*
X116914938Y-60318169D01*
X116914930Y-60318172D01*
X116712408Y-60427772D01*
X116530694Y-60569206D01*
X116530689Y-60569211D01*
X116374727Y-60738631D01*
X116308807Y-60839528D01*
X116255660Y-60884885D01*
X116186429Y-60894308D01*
X116123093Y-60864805D01*
X116101188Y-60839524D01*
X116090689Y-60823453D01*
X116070503Y-60756563D01*
X116070500Y-60755635D01*
X116070500Y-59894363D01*
X116090185Y-59827324D01*
X116090692Y-59826541D01*
X116161217Y-59718595D01*
X116253717Y-59507716D01*
X116310246Y-59284488D01*
X116318697Y-59182493D01*
X116329262Y-59055005D01*
X116329262Y-59054994D01*
X116310246Y-58825515D01*
X116310246Y-58825512D01*
X116253717Y-58602284D01*
X116161217Y-58391405D01*
X116159574Y-58388890D01*
X116035271Y-58198629D01*
X115997073Y-58157135D01*
X115879308Y-58029208D01*
X115738355Y-57919500D01*
X115697591Y-57887772D01*
X115495069Y-57778172D01*
X115495061Y-57778169D01*
X115277274Y-57703402D01*
X115106920Y-57674975D01*
X115050137Y-57665500D01*
X114819863Y-57665500D01*
X114774436Y-57673080D01*
X114592725Y-57703402D01*
X114374938Y-57778169D01*
X114374930Y-57778172D01*
X114172408Y-57887772D01*
X113990694Y-58029206D01*
X113990689Y-58029211D01*
X113834728Y-58198629D01*
X113708782Y-58391405D01*
X113616282Y-58602285D01*
X113559753Y-58825515D01*
X113540738Y-59054994D01*
X112395000Y-59054994D01*
X112395000Y-51435000D01*
X114649706Y-51435000D01*
X114668853Y-51678297D01*
X114668853Y-51678300D01*
X114668854Y-51678302D01*
X114695868Y-51790823D01*
X114725830Y-51915619D01*
X114819222Y-52141089D01*
X114932711Y-52326285D01*
X114950956Y-52393731D01*
X114929840Y-52460333D01*
X114901296Y-52490341D01*
X114797809Y-52567812D01*
X114711649Y-52682906D01*
X114711645Y-52682913D01*
X114661403Y-52817620D01*
X114661401Y-52817627D01*
X114655000Y-52877155D01*
X114655000Y-53725000D01*
X115714252Y-53725000D01*
X115692482Y-53762708D01*
X115655000Y-53902591D01*
X115655000Y-54047409D01*
X115692482Y-54187292D01*
X115714252Y-54225000D01*
X114655000Y-54225000D01*
X114655000Y-55072844D01*
X114661401Y-55132372D01*
X114661403Y-55132379D01*
X114711645Y-55267086D01*
X114711649Y-55267093D01*
X114797809Y-55382187D01*
X114797812Y-55382190D01*
X114912906Y-55468350D01*
X114912913Y-55468354D01*
X115047620Y-55518596D01*
X115047627Y-55518598D01*
X115107155Y-55524999D01*
X115107172Y-55525000D01*
X115955000Y-55525000D01*
X115955000Y-54465747D01*
X115992708Y-54487518D01*
X116132591Y-54525000D01*
X116277409Y-54525000D01*
X116417292Y-54487518D01*
X116455000Y-54465747D01*
X116455000Y-55525000D01*
X117302828Y-55525000D01*
X117302844Y-55524999D01*
X117362372Y-55518598D01*
X117362379Y-55518596D01*
X117497086Y-55468354D01*
X117497093Y-55468350D01*
X117612187Y-55382190D01*
X117612190Y-55382187D01*
X117698350Y-55267093D01*
X117698354Y-55267086D01*
X117748596Y-55132379D01*
X117748598Y-55132372D01*
X117754999Y-55072844D01*
X117755000Y-55072827D01*
X117755000Y-54225000D01*
X116695748Y-54225000D01*
X116717518Y-54187292D01*
X116755000Y-54047409D01*
X116755000Y-53902591D01*
X116717518Y-53762708D01*
X116695748Y-53725000D01*
X117755000Y-53725000D01*
X117755000Y-52877172D01*
X117754999Y-52877155D01*
X117748598Y-52817627D01*
X117748596Y-52817620D01*
X117698354Y-52682913D01*
X117698350Y-52682906D01*
X117612190Y-52567812D01*
X117612187Y-52567809D01*
X117508704Y-52490341D01*
X117466833Y-52434407D01*
X117461849Y-52364716D01*
X117477288Y-52326285D01*
X117590777Y-52141089D01*
X117617488Y-52076602D01*
X117684172Y-51915612D01*
X117741146Y-51678302D01*
X117760294Y-51435000D01*
X117741146Y-51191698D01*
X117684172Y-50954388D01*
X117590777Y-50728911D01*
X117590777Y-50728910D01*
X117463262Y-50520826D01*
X117463261Y-50520823D01*
X117427453Y-50478897D01*
X117304759Y-50335241D01*
X117134708Y-50190004D01*
X117119176Y-50176738D01*
X117119173Y-50176737D01*
X116911089Y-50049222D01*
X116685618Y-49955830D01*
X116685621Y-49955830D01*
X116579992Y-49930470D01*
X116448302Y-49898854D01*
X116448300Y-49898853D01*
X116448297Y-49898853D01*
X116205000Y-49879706D01*
X115961702Y-49898853D01*
X115724380Y-49955830D01*
X115498910Y-50049222D01*
X115290826Y-50176737D01*
X115290823Y-50176738D01*
X115105241Y-50335241D01*
X114946738Y-50520823D01*
X114946737Y-50520826D01*
X114819222Y-50728910D01*
X114725830Y-50954380D01*
X114668853Y-51191702D01*
X114649706Y-51435000D01*
X112395000Y-51435000D01*
X112395000Y-50216362D01*
X112414685Y-50149323D01*
X112431319Y-50128681D01*
X113628681Y-48931319D01*
X113690004Y-48897834D01*
X113716362Y-48895000D01*
X175843638Y-48895000D01*
X175910677Y-48914685D01*
G37*
G04 #@! TD.AperFunction*
M02*
