G04 #@! TF.GenerationSoftware,KiCad,Pcbnew,8.0.9-8.0.9-0~ubuntu22.04.1*
G04 #@! TF.CreationDate,2025-03-10T17:04:53-04:00*
G04 #@! TF.ProjectId,sfx-202502,7366782d-3230-4323-9530-322e6b696361,rev?*
G04 #@! TF.SameCoordinates,Original*
G04 #@! TF.FileFunction,Soldermask,Bot*
G04 #@! TF.FilePolarity,Negative*
%FSLAX46Y46*%
G04 Gerber Fmt 4.6, Leading zero omitted, Abs format (unit mm)*
G04 Created by KiCad (PCBNEW 8.0.9-8.0.9-0~ubuntu22.04.1) date 2025-03-10 17:04:53*
%MOMM*%
%LPD*%
G01*
G04 APERTURE LIST*
%ADD10R,1.700000X1.700000*%
%ADD11O,1.700000X1.700000*%
%ADD12R,2.100000X2.100000*%
%ADD13C,2.100000*%
%ADD14C,3.500000*%
%ADD15C,1.778000*%
%ADD16C,1.700000*%
G04 APERTURE END LIST*
D10*
X175895000Y-62865000D03*
D11*
X175895000Y-65405000D03*
X175895000Y-67945000D03*
X175895000Y-70485000D03*
X175895000Y-73025000D03*
X175895000Y-75565000D03*
D10*
X133985000Y-59055000D03*
D11*
X136525000Y-59055000D03*
X139065000Y-59055000D03*
D10*
X145415000Y-59055000D03*
D11*
X147955000Y-59055000D03*
X150495000Y-59055000D03*
D12*
X116205000Y-85725000D03*
D13*
X116205000Y-83185000D03*
X116205000Y-80645000D03*
X116205000Y-78105000D03*
X116205000Y-75565000D03*
X116205000Y-73025000D03*
X116205000Y-70485000D03*
X116205000Y-67945000D03*
D12*
X156845000Y-52705000D03*
D13*
X159385000Y-52705000D03*
D14*
X117475000Y-92075000D03*
D15*
X114935000Y-61595000D03*
X117475000Y-61595000D03*
X120015000Y-61595000D03*
X114935000Y-59055000D03*
X120015000Y-59055000D03*
D14*
X180975000Y-53975000D03*
G36*
G01*
X177585000Y-86325000D02*
X177585000Y-85125000D01*
G75*
G02*
X177835000Y-84875000I250000J0D01*
G01*
X179035000Y-84875000D01*
G75*
G02*
X179285000Y-85125000I0J-250000D01*
G01*
X179285000Y-86325000D01*
G75*
G02*
X179035000Y-86575000I-250000J0D01*
G01*
X177835000Y-86575000D01*
G75*
G02*
X177585000Y-86325000I0J250000D01*
G01*
G37*
D16*
X180975000Y-85725000D03*
X178435000Y-88265000D03*
X180975000Y-88265000D03*
X178435000Y-90805000D03*
X180975000Y-90805000D03*
D12*
X125095000Y-52705000D03*
D13*
X127635000Y-52705000D03*
D12*
X116205000Y-53975000D03*
D13*
X116205000Y-51435000D03*
D12*
X165735000Y-52705000D03*
D13*
X168275000Y-52705000D03*
X170815000Y-52705000D03*
X173355000Y-52705000D03*
M02*
