M48
METRIC,TZ
T1C0.508
T2C1.000
T3C1.090
T4C1.100
T5C3.500
%
G90
G05
T1
X125349Y-95631
X126365Y-85725
X130429Y-59563
X133985Y-63881
X145669Y-66675
X145669Y-72263
X145669Y-78105
X145669Y-83693
X146431Y-85659
X147066Y-64262
X147701Y-73787
X147955Y-90805
X149479Y-88265
X150749Y-73787
X151765Y-62357
X152273Y-79121
X152273Y-82677
X152273Y-89789
X153543Y-75819
X154305Y-78359
X154305Y-82677
X155829Y-72517
X157607Y-69723
X158877Y-62335
X159385Y-77851
X160147Y-88773
X160909Y-67945
X161925Y-85725
X163195Y-72263
X167767Y-77597
X168021Y-63881
X169545Y-68961
X169545Y-73025
X170053Y-78613
X172085Y-65405
X172085Y-75565
X172339Y-83185
T2
X133985Y-59055
X136525Y-59055
X139065Y-59055
X145415Y-59055
X147955Y-59055
X150495Y-59055
X175895Y-62865
X175895Y-65405
X175895Y-67945
X175895Y-70485
X175895Y-73025
X175895Y-75565
X178435Y-85725
X178435Y-88265
X178435Y-90805
X180975Y-85725
X180975Y-88265
X180975Y-90805
T3
X114935Y-59055
X114935Y-61595
X117475Y-61595
X120015Y-59055
X120015Y-61595
T4
X116205Y-51435
X116205Y-53975
X116205Y-67945
X116205Y-70485
X116205Y-73025
X116205Y-75565
X116205Y-78105
X116205Y-80645
X116205Y-83185
X116205Y-85725
X125095Y-52705
X127635Y-52705
X156845Y-52705
X159385Y-52705
X165735Y-52705
X168275Y-52705
X170815Y-52705
X173355Y-52705
T5
X117475Y-92075
X180975Y-53975
M30
