G04 #@! TF.GenerationSoftware,KiCad,Pcbnew,8.0.9-8.0.9-0~ubuntu22.04.1*
G04 #@! TF.CreationDate,2025-03-10T17:04:53-04:00*
G04 #@! TF.ProjectId,sfx-202502,7366782d-3230-4323-9530-322e6b696361,rev?*
G04 #@! TF.SameCoordinates,Original*
G04 #@! TF.FileFunction,Legend,Top*
G04 #@! TF.FilePolarity,Positive*
%FSLAX46Y46*%
G04 Gerber Fmt 4.6, Leading zero omitted, Abs format (unit mm)*
G04 Created by KiCad (PCBNEW 8.0.9-8.0.9-0~ubuntu22.04.1) date 2025-03-10 17:04:53*
%MOMM*%
%LPD*%
G01*
G04 APERTURE LIST*
%ADD10C,0.152400*%
%ADD11C,0.150000*%
%ADD12C,0.100000*%
%ADD13C,0.120000*%
%ADD14C,0.127000*%
%ADD15R,1.700000X1.700000*%
%ADD16O,1.700000X1.700000*%
%ADD17R,1.600000X0.550000*%
%ADD18R,0.550000X1.600000*%
%ADD19R,2.100000X2.100000*%
%ADD20C,2.100000*%
%ADD21C,3.500000*%
%ADD22R,7.875000X2.000000*%
%ADD23C,1.778000*%
%ADD24C,1.700000*%
G04 APERTURE END LIST*
D10*
X124660355Y-81113213D02*
X124708735Y-81016451D01*
X124708735Y-81016451D02*
X124708735Y-80822927D01*
X124708735Y-80822927D02*
X124660355Y-80726165D01*
X124660355Y-80726165D02*
X124563593Y-80677784D01*
X124563593Y-80677784D02*
X124515212Y-80677784D01*
X124515212Y-80677784D02*
X124418450Y-80726165D01*
X124418450Y-80726165D02*
X124370069Y-80822927D01*
X124370069Y-80822927D02*
X124370069Y-80968070D01*
X124370069Y-80968070D02*
X124321688Y-81064832D01*
X124321688Y-81064832D02*
X124224926Y-81113213D01*
X124224926Y-81113213D02*
X124176545Y-81113213D01*
X124176545Y-81113213D02*
X124079783Y-81064832D01*
X124079783Y-81064832D02*
X124031402Y-80968070D01*
X124031402Y-80968070D02*
X124031402Y-80822927D01*
X124031402Y-80822927D02*
X124079783Y-80726165D01*
X124031402Y-80387499D02*
X124031402Y-80000451D01*
X124708735Y-80242356D02*
X123837878Y-80242356D01*
X123837878Y-80242356D02*
X123741116Y-80193975D01*
X123741116Y-80193975D02*
X123692735Y-80097213D01*
X123692735Y-80097213D02*
X123692735Y-80000451D01*
X124708735Y-79758547D02*
X124031402Y-79226356D01*
X124031402Y-79758547D02*
X124708735Y-79226356D01*
X124031402Y-78161976D02*
X124708735Y-77920071D01*
X124708735Y-77920071D02*
X124031402Y-77678166D01*
X123789497Y-77339500D02*
X123741116Y-77291119D01*
X123741116Y-77291119D02*
X123692735Y-77194357D01*
X123692735Y-77194357D02*
X123692735Y-76952452D01*
X123692735Y-76952452D02*
X123741116Y-76855690D01*
X123741116Y-76855690D02*
X123789497Y-76807309D01*
X123789497Y-76807309D02*
X123886259Y-76758928D01*
X123886259Y-76758928D02*
X123983021Y-76758928D01*
X123983021Y-76758928D02*
X124128164Y-76807309D01*
X124128164Y-76807309D02*
X124708735Y-77387881D01*
X124708735Y-77387881D02*
X124708735Y-76758928D01*
X123692735Y-76129976D02*
X123692735Y-76033214D01*
X123692735Y-76033214D02*
X123741116Y-75936452D01*
X123741116Y-75936452D02*
X123789497Y-75888071D01*
X123789497Y-75888071D02*
X123886259Y-75839690D01*
X123886259Y-75839690D02*
X124079783Y-75791309D01*
X124079783Y-75791309D02*
X124321688Y-75791309D01*
X124321688Y-75791309D02*
X124515212Y-75839690D01*
X124515212Y-75839690D02*
X124611974Y-75888071D01*
X124611974Y-75888071D02*
X124660355Y-75936452D01*
X124660355Y-75936452D02*
X124708735Y-76033214D01*
X124708735Y-76033214D02*
X124708735Y-76129976D01*
X124708735Y-76129976D02*
X124660355Y-76226738D01*
X124660355Y-76226738D02*
X124611974Y-76275119D01*
X124611974Y-76275119D02*
X124515212Y-76323500D01*
X124515212Y-76323500D02*
X124321688Y-76371881D01*
X124321688Y-76371881D02*
X124079783Y-76371881D01*
X124079783Y-76371881D02*
X123886259Y-76323500D01*
X123886259Y-76323500D02*
X123789497Y-76275119D01*
X123789497Y-76275119D02*
X123741116Y-76226738D01*
X123741116Y-76226738D02*
X123692735Y-76129976D01*
X123789497Y-75404262D02*
X123741116Y-75355881D01*
X123741116Y-75355881D02*
X123692735Y-75259119D01*
X123692735Y-75259119D02*
X123692735Y-75017214D01*
X123692735Y-75017214D02*
X123741116Y-74920452D01*
X123741116Y-74920452D02*
X123789497Y-74872071D01*
X123789497Y-74872071D02*
X123886259Y-74823690D01*
X123886259Y-74823690D02*
X123983021Y-74823690D01*
X123983021Y-74823690D02*
X124128164Y-74872071D01*
X124128164Y-74872071D02*
X124708735Y-75452643D01*
X124708735Y-75452643D02*
X124708735Y-74823690D01*
X123692735Y-73904452D02*
X123692735Y-74388262D01*
X123692735Y-74388262D02*
X124176545Y-74436643D01*
X124176545Y-74436643D02*
X124128164Y-74388262D01*
X124128164Y-74388262D02*
X124079783Y-74291500D01*
X124079783Y-74291500D02*
X124079783Y-74049595D01*
X124079783Y-74049595D02*
X124128164Y-73952833D01*
X124128164Y-73952833D02*
X124176545Y-73904452D01*
X124176545Y-73904452D02*
X124273307Y-73856071D01*
X124273307Y-73856071D02*
X124515212Y-73856071D01*
X124515212Y-73856071D02*
X124611974Y-73904452D01*
X124611974Y-73904452D02*
X124660355Y-73952833D01*
X124660355Y-73952833D02*
X124708735Y-74049595D01*
X124708735Y-74049595D02*
X124708735Y-74291500D01*
X124708735Y-74291500D02*
X124660355Y-74388262D01*
X124660355Y-74388262D02*
X124611974Y-74436643D01*
X123692735Y-73227119D02*
X123692735Y-73130357D01*
X123692735Y-73130357D02*
X123741116Y-73033595D01*
X123741116Y-73033595D02*
X123789497Y-72985214D01*
X123789497Y-72985214D02*
X123886259Y-72936833D01*
X123886259Y-72936833D02*
X124079783Y-72888452D01*
X124079783Y-72888452D02*
X124321688Y-72888452D01*
X124321688Y-72888452D02*
X124515212Y-72936833D01*
X124515212Y-72936833D02*
X124611974Y-72985214D01*
X124611974Y-72985214D02*
X124660355Y-73033595D01*
X124660355Y-73033595D02*
X124708735Y-73130357D01*
X124708735Y-73130357D02*
X124708735Y-73227119D01*
X124708735Y-73227119D02*
X124660355Y-73323881D01*
X124660355Y-73323881D02*
X124611974Y-73372262D01*
X124611974Y-73372262D02*
X124515212Y-73420643D01*
X124515212Y-73420643D02*
X124321688Y-73469024D01*
X124321688Y-73469024D02*
X124079783Y-73469024D01*
X124079783Y-73469024D02*
X123886259Y-73420643D01*
X123886259Y-73420643D02*
X123789497Y-73372262D01*
X123789497Y-73372262D02*
X123741116Y-73323881D01*
X123741116Y-73323881D02*
X123692735Y-73227119D01*
X123789497Y-72501405D02*
X123741116Y-72453024D01*
X123741116Y-72453024D02*
X123692735Y-72356262D01*
X123692735Y-72356262D02*
X123692735Y-72114357D01*
X123692735Y-72114357D02*
X123741116Y-72017595D01*
X123741116Y-72017595D02*
X123789497Y-71969214D01*
X123789497Y-71969214D02*
X123886259Y-71920833D01*
X123886259Y-71920833D02*
X123983021Y-71920833D01*
X123983021Y-71920833D02*
X124128164Y-71969214D01*
X124128164Y-71969214D02*
X124708735Y-72549786D01*
X124708735Y-72549786D02*
X124708735Y-71920833D01*
X124708735Y-71049976D02*
X124176545Y-71049976D01*
X124176545Y-71049976D02*
X124079783Y-71098357D01*
X124079783Y-71098357D02*
X124031402Y-71195119D01*
X124031402Y-71195119D02*
X124031402Y-71388643D01*
X124031402Y-71388643D02*
X124079783Y-71485405D01*
X124660355Y-71049976D02*
X124708735Y-71146738D01*
X124708735Y-71146738D02*
X124708735Y-71388643D01*
X124708735Y-71388643D02*
X124660355Y-71485405D01*
X124660355Y-71485405D02*
X124563593Y-71533786D01*
X124563593Y-71533786D02*
X124466831Y-71533786D01*
X124466831Y-71533786D02*
X124370069Y-71485405D01*
X124370069Y-71485405D02*
X124321688Y-71388643D01*
X124321688Y-71388643D02*
X124321688Y-71146738D01*
X124321688Y-71146738D02*
X124273307Y-71049976D01*
X172714735Y-87414832D02*
X171698735Y-87414832D01*
X172666355Y-86979403D02*
X172714735Y-86834260D01*
X172714735Y-86834260D02*
X172714735Y-86592355D01*
X172714735Y-86592355D02*
X172666355Y-86495593D01*
X172666355Y-86495593D02*
X172617974Y-86447212D01*
X172617974Y-86447212D02*
X172521212Y-86398831D01*
X172521212Y-86398831D02*
X172424450Y-86398831D01*
X172424450Y-86398831D02*
X172327688Y-86447212D01*
X172327688Y-86447212D02*
X172279307Y-86495593D01*
X172279307Y-86495593D02*
X172230926Y-86592355D01*
X172230926Y-86592355D02*
X172182545Y-86785879D01*
X172182545Y-86785879D02*
X172134164Y-86882641D01*
X172134164Y-86882641D02*
X172085783Y-86931022D01*
X172085783Y-86931022D02*
X171989021Y-86979403D01*
X171989021Y-86979403D02*
X171892259Y-86979403D01*
X171892259Y-86979403D02*
X171795497Y-86931022D01*
X171795497Y-86931022D02*
X171747116Y-86882641D01*
X171747116Y-86882641D02*
X171698735Y-86785879D01*
X171698735Y-86785879D02*
X171698735Y-86543974D01*
X171698735Y-86543974D02*
X171747116Y-86398831D01*
X172714735Y-85963403D02*
X171698735Y-85963403D01*
X171698735Y-85963403D02*
X171698735Y-85576355D01*
X171698735Y-85576355D02*
X171747116Y-85479593D01*
X171747116Y-85479593D02*
X171795497Y-85431212D01*
X171795497Y-85431212D02*
X171892259Y-85382831D01*
X171892259Y-85382831D02*
X172037402Y-85382831D01*
X172037402Y-85382831D02*
X172134164Y-85431212D01*
X172134164Y-85431212D02*
X172182545Y-85479593D01*
X172182545Y-85479593D02*
X172230926Y-85576355D01*
X172230926Y-85576355D02*
X172230926Y-85963403D01*
D11*
X127453819Y-93225857D02*
X126977628Y-93559190D01*
X127453819Y-93797285D02*
X126453819Y-93797285D01*
X126453819Y-93797285D02*
X126453819Y-93416333D01*
X126453819Y-93416333D02*
X126501438Y-93321095D01*
X126501438Y-93321095D02*
X126549057Y-93273476D01*
X126549057Y-93273476D02*
X126644295Y-93225857D01*
X126644295Y-93225857D02*
X126787152Y-93225857D01*
X126787152Y-93225857D02*
X126882390Y-93273476D01*
X126882390Y-93273476D02*
X126930009Y-93321095D01*
X126930009Y-93321095D02*
X126977628Y-93416333D01*
X126977628Y-93416333D02*
X126977628Y-93797285D01*
X127453819Y-92273476D02*
X127453819Y-92844904D01*
X127453819Y-92559190D02*
X126453819Y-92559190D01*
X126453819Y-92559190D02*
X126596676Y-92654428D01*
X126596676Y-92654428D02*
X126691914Y-92749666D01*
X126691914Y-92749666D02*
X126739533Y-92844904D01*
X126549057Y-91892523D02*
X126501438Y-91844904D01*
X126501438Y-91844904D02*
X126453819Y-91749666D01*
X126453819Y-91749666D02*
X126453819Y-91511571D01*
X126453819Y-91511571D02*
X126501438Y-91416333D01*
X126501438Y-91416333D02*
X126549057Y-91368714D01*
X126549057Y-91368714D02*
X126644295Y-91321095D01*
X126644295Y-91321095D02*
X126739533Y-91321095D01*
X126739533Y-91321095D02*
X126882390Y-91368714D01*
X126882390Y-91368714D02*
X127453819Y-91940142D01*
X127453819Y-91940142D02*
X127453819Y-91321095D01*
X164552333Y-87354580D02*
X164504714Y-87402200D01*
X164504714Y-87402200D02*
X164361857Y-87449819D01*
X164361857Y-87449819D02*
X164266619Y-87449819D01*
X164266619Y-87449819D02*
X164123762Y-87402200D01*
X164123762Y-87402200D02*
X164028524Y-87306961D01*
X164028524Y-87306961D02*
X163980905Y-87211723D01*
X163980905Y-87211723D02*
X163933286Y-87021247D01*
X163933286Y-87021247D02*
X163933286Y-86878390D01*
X163933286Y-86878390D02*
X163980905Y-86687914D01*
X163980905Y-86687914D02*
X164028524Y-86592676D01*
X164028524Y-86592676D02*
X164123762Y-86497438D01*
X164123762Y-86497438D02*
X164266619Y-86449819D01*
X164266619Y-86449819D02*
X164361857Y-86449819D01*
X164361857Y-86449819D02*
X164504714Y-86497438D01*
X164504714Y-86497438D02*
X164552333Y-86545057D01*
X165504714Y-87449819D02*
X164933286Y-87449819D01*
X165219000Y-87449819D02*
X165219000Y-86449819D01*
X165219000Y-86449819D02*
X165123762Y-86592676D01*
X165123762Y-86592676D02*
X165028524Y-86687914D01*
X165028524Y-86687914D02*
X164933286Y-86735533D01*
X128852819Y-79818094D02*
X127852819Y-79818094D01*
X127852819Y-79818094D02*
X127852819Y-79579999D01*
X127852819Y-79579999D02*
X127900438Y-79437142D01*
X127900438Y-79437142D02*
X127995676Y-79341904D01*
X127995676Y-79341904D02*
X128090914Y-79294285D01*
X128090914Y-79294285D02*
X128281390Y-79246666D01*
X128281390Y-79246666D02*
X128424247Y-79246666D01*
X128424247Y-79246666D02*
X128614723Y-79294285D01*
X128614723Y-79294285D02*
X128709961Y-79341904D01*
X128709961Y-79341904D02*
X128805200Y-79437142D01*
X128805200Y-79437142D02*
X128852819Y-79579999D01*
X128852819Y-79579999D02*
X128852819Y-79818094D01*
X127948057Y-78865713D02*
X127900438Y-78818094D01*
X127900438Y-78818094D02*
X127852819Y-78722856D01*
X127852819Y-78722856D02*
X127852819Y-78484761D01*
X127852819Y-78484761D02*
X127900438Y-78389523D01*
X127900438Y-78389523D02*
X127948057Y-78341904D01*
X127948057Y-78341904D02*
X128043295Y-78294285D01*
X128043295Y-78294285D02*
X128138533Y-78294285D01*
X128138533Y-78294285D02*
X128281390Y-78341904D01*
X128281390Y-78341904D02*
X128852819Y-78913332D01*
X128852819Y-78913332D02*
X128852819Y-78294285D01*
X179946666Y-60049819D02*
X179946666Y-60764104D01*
X179946666Y-60764104D02*
X179899047Y-60906961D01*
X179899047Y-60906961D02*
X179803809Y-61002200D01*
X179803809Y-61002200D02*
X179660952Y-61049819D01*
X179660952Y-61049819D02*
X179565714Y-61049819D01*
X180375238Y-60145057D02*
X180422857Y-60097438D01*
X180422857Y-60097438D02*
X180518095Y-60049819D01*
X180518095Y-60049819D02*
X180756190Y-60049819D01*
X180756190Y-60049819D02*
X180851428Y-60097438D01*
X180851428Y-60097438D02*
X180899047Y-60145057D01*
X180899047Y-60145057D02*
X180946666Y-60240295D01*
X180946666Y-60240295D02*
X180946666Y-60335533D01*
X180946666Y-60335533D02*
X180899047Y-60478390D01*
X180899047Y-60478390D02*
X180327619Y-61049819D01*
X180327619Y-61049819D02*
X180946666Y-61049819D01*
X141787761Y-88009057D02*
X141692523Y-87961438D01*
X141692523Y-87961438D02*
X141597285Y-87866200D01*
X141597285Y-87866200D02*
X141454428Y-87723342D01*
X141454428Y-87723342D02*
X141359190Y-87675723D01*
X141359190Y-87675723D02*
X141263952Y-87675723D01*
X141311571Y-87913819D02*
X141216333Y-87866200D01*
X141216333Y-87866200D02*
X141121095Y-87770961D01*
X141121095Y-87770961D02*
X141073476Y-87580485D01*
X141073476Y-87580485D02*
X141073476Y-87247152D01*
X141073476Y-87247152D02*
X141121095Y-87056676D01*
X141121095Y-87056676D02*
X141216333Y-86961438D01*
X141216333Y-86961438D02*
X141311571Y-86913819D01*
X141311571Y-86913819D02*
X141502047Y-86913819D01*
X141502047Y-86913819D02*
X141597285Y-86961438D01*
X141597285Y-86961438D02*
X141692523Y-87056676D01*
X141692523Y-87056676D02*
X141740142Y-87247152D01*
X141740142Y-87247152D02*
X141740142Y-87580485D01*
X141740142Y-87580485D02*
X141692523Y-87770961D01*
X141692523Y-87770961D02*
X141597285Y-87866200D01*
X141597285Y-87866200D02*
X141502047Y-87913819D01*
X141502047Y-87913819D02*
X141311571Y-87913819D01*
X142692523Y-87913819D02*
X142121095Y-87913819D01*
X142406809Y-87913819D02*
X142406809Y-86913819D01*
X142406809Y-86913819D02*
X142311571Y-87056676D01*
X142311571Y-87056676D02*
X142216333Y-87151914D01*
X142216333Y-87151914D02*
X142121095Y-87199533D01*
X155863333Y-87452580D02*
X155815714Y-87500200D01*
X155815714Y-87500200D02*
X155672857Y-87547819D01*
X155672857Y-87547819D02*
X155577619Y-87547819D01*
X155577619Y-87547819D02*
X155434762Y-87500200D01*
X155434762Y-87500200D02*
X155339524Y-87404961D01*
X155339524Y-87404961D02*
X155291905Y-87309723D01*
X155291905Y-87309723D02*
X155244286Y-87119247D01*
X155244286Y-87119247D02*
X155244286Y-86976390D01*
X155244286Y-86976390D02*
X155291905Y-86785914D01*
X155291905Y-86785914D02*
X155339524Y-86690676D01*
X155339524Y-86690676D02*
X155434762Y-86595438D01*
X155434762Y-86595438D02*
X155577619Y-86547819D01*
X155577619Y-86547819D02*
X155672857Y-86547819D01*
X155672857Y-86547819D02*
X155815714Y-86595438D01*
X155815714Y-86595438D02*
X155863333Y-86643057D01*
X156244286Y-86643057D02*
X156291905Y-86595438D01*
X156291905Y-86595438D02*
X156387143Y-86547819D01*
X156387143Y-86547819D02*
X156625238Y-86547819D01*
X156625238Y-86547819D02*
X156720476Y-86595438D01*
X156720476Y-86595438D02*
X156768095Y-86643057D01*
X156768095Y-86643057D02*
X156815714Y-86738295D01*
X156815714Y-86738295D02*
X156815714Y-86833533D01*
X156815714Y-86833533D02*
X156768095Y-86976390D01*
X156768095Y-86976390D02*
X156196667Y-87547819D01*
X156196667Y-87547819D02*
X156815714Y-87547819D01*
X131169819Y-55003333D02*
X131884104Y-55003333D01*
X131884104Y-55003333D02*
X132026961Y-55050952D01*
X132026961Y-55050952D02*
X132122200Y-55146190D01*
X132122200Y-55146190D02*
X132169819Y-55289047D01*
X132169819Y-55289047D02*
X132169819Y-55384285D01*
X131503152Y-54098571D02*
X132169819Y-54098571D01*
X131122200Y-54336666D02*
X131836485Y-54574761D01*
X131836485Y-54574761D02*
X131836485Y-53955714D01*
X161758333Y-61139819D02*
X161425000Y-60663628D01*
X161186905Y-61139819D02*
X161186905Y-60139819D01*
X161186905Y-60139819D02*
X161567857Y-60139819D01*
X161567857Y-60139819D02*
X161663095Y-60187438D01*
X161663095Y-60187438D02*
X161710714Y-60235057D01*
X161710714Y-60235057D02*
X161758333Y-60330295D01*
X161758333Y-60330295D02*
X161758333Y-60473152D01*
X161758333Y-60473152D02*
X161710714Y-60568390D01*
X161710714Y-60568390D02*
X161663095Y-60616009D01*
X161663095Y-60616009D02*
X161567857Y-60663628D01*
X161567857Y-60663628D02*
X161186905Y-60663628D01*
X162139286Y-60235057D02*
X162186905Y-60187438D01*
X162186905Y-60187438D02*
X162282143Y-60139819D01*
X162282143Y-60139819D02*
X162520238Y-60139819D01*
X162520238Y-60139819D02*
X162615476Y-60187438D01*
X162615476Y-60187438D02*
X162663095Y-60235057D01*
X162663095Y-60235057D02*
X162710714Y-60330295D01*
X162710714Y-60330295D02*
X162710714Y-60425533D01*
X162710714Y-60425533D02*
X162663095Y-60568390D01*
X162663095Y-60568390D02*
X162091667Y-61139819D01*
X162091667Y-61139819D02*
X162710714Y-61139819D01*
X132662819Y-67841666D02*
X132186628Y-68174999D01*
X132662819Y-68413094D02*
X131662819Y-68413094D01*
X131662819Y-68413094D02*
X131662819Y-68032142D01*
X131662819Y-68032142D02*
X131710438Y-67936904D01*
X131710438Y-67936904D02*
X131758057Y-67889285D01*
X131758057Y-67889285D02*
X131853295Y-67841666D01*
X131853295Y-67841666D02*
X131996152Y-67841666D01*
X131996152Y-67841666D02*
X132091390Y-67889285D01*
X132091390Y-67889285D02*
X132139009Y-67936904D01*
X132139009Y-67936904D02*
X132186628Y-68032142D01*
X132186628Y-68032142D02*
X132186628Y-68413094D01*
X132662819Y-67365475D02*
X132662819Y-67174999D01*
X132662819Y-67174999D02*
X132615200Y-67079761D01*
X132615200Y-67079761D02*
X132567580Y-67032142D01*
X132567580Y-67032142D02*
X132424723Y-66936904D01*
X132424723Y-66936904D02*
X132234247Y-66889285D01*
X132234247Y-66889285D02*
X131853295Y-66889285D01*
X131853295Y-66889285D02*
X131758057Y-66936904D01*
X131758057Y-66936904D02*
X131710438Y-66984523D01*
X131710438Y-66984523D02*
X131662819Y-67079761D01*
X131662819Y-67079761D02*
X131662819Y-67270237D01*
X131662819Y-67270237D02*
X131710438Y-67365475D01*
X131710438Y-67365475D02*
X131758057Y-67413094D01*
X131758057Y-67413094D02*
X131853295Y-67460713D01*
X131853295Y-67460713D02*
X132091390Y-67460713D01*
X132091390Y-67460713D02*
X132186628Y-67413094D01*
X132186628Y-67413094D02*
X132234247Y-67365475D01*
X132234247Y-67365475D02*
X132281866Y-67270237D01*
X132281866Y-67270237D02*
X132281866Y-67079761D01*
X132281866Y-67079761D02*
X132234247Y-66984523D01*
X132234247Y-66984523D02*
X132186628Y-66936904D01*
X132186628Y-66936904D02*
X132091390Y-66889285D01*
X136472819Y-79271666D02*
X135996628Y-79604999D01*
X136472819Y-79843094D02*
X135472819Y-79843094D01*
X135472819Y-79843094D02*
X135472819Y-79462142D01*
X135472819Y-79462142D02*
X135520438Y-79366904D01*
X135520438Y-79366904D02*
X135568057Y-79319285D01*
X135568057Y-79319285D02*
X135663295Y-79271666D01*
X135663295Y-79271666D02*
X135806152Y-79271666D01*
X135806152Y-79271666D02*
X135901390Y-79319285D01*
X135901390Y-79319285D02*
X135949009Y-79366904D01*
X135949009Y-79366904D02*
X135996628Y-79462142D01*
X135996628Y-79462142D02*
X135996628Y-79843094D01*
X135472819Y-78414523D02*
X135472819Y-78604999D01*
X135472819Y-78604999D02*
X135520438Y-78700237D01*
X135520438Y-78700237D02*
X135568057Y-78747856D01*
X135568057Y-78747856D02*
X135710914Y-78843094D01*
X135710914Y-78843094D02*
X135901390Y-78890713D01*
X135901390Y-78890713D02*
X136282342Y-78890713D01*
X136282342Y-78890713D02*
X136377580Y-78843094D01*
X136377580Y-78843094D02*
X136425200Y-78795475D01*
X136425200Y-78795475D02*
X136472819Y-78700237D01*
X136472819Y-78700237D02*
X136472819Y-78509761D01*
X136472819Y-78509761D02*
X136425200Y-78414523D01*
X136425200Y-78414523D02*
X136377580Y-78366904D01*
X136377580Y-78366904D02*
X136282342Y-78319285D01*
X136282342Y-78319285D02*
X136044247Y-78319285D01*
X136044247Y-78319285D02*
X135949009Y-78366904D01*
X135949009Y-78366904D02*
X135901390Y-78414523D01*
X135901390Y-78414523D02*
X135853771Y-78509761D01*
X135853771Y-78509761D02*
X135853771Y-78700237D01*
X135853771Y-78700237D02*
X135901390Y-78795475D01*
X135901390Y-78795475D02*
X135949009Y-78843094D01*
X135949009Y-78843094D02*
X136044247Y-78890713D01*
X141787761Y-82455057D02*
X141692523Y-82407438D01*
X141692523Y-82407438D02*
X141597285Y-82312200D01*
X141597285Y-82312200D02*
X141454428Y-82169342D01*
X141454428Y-82169342D02*
X141359190Y-82121723D01*
X141359190Y-82121723D02*
X141263952Y-82121723D01*
X141311571Y-82359819D02*
X141216333Y-82312200D01*
X141216333Y-82312200D02*
X141121095Y-82216961D01*
X141121095Y-82216961D02*
X141073476Y-82026485D01*
X141073476Y-82026485D02*
X141073476Y-81693152D01*
X141073476Y-81693152D02*
X141121095Y-81502676D01*
X141121095Y-81502676D02*
X141216333Y-81407438D01*
X141216333Y-81407438D02*
X141311571Y-81359819D01*
X141311571Y-81359819D02*
X141502047Y-81359819D01*
X141502047Y-81359819D02*
X141597285Y-81407438D01*
X141597285Y-81407438D02*
X141692523Y-81502676D01*
X141692523Y-81502676D02*
X141740142Y-81693152D01*
X141740142Y-81693152D02*
X141740142Y-82026485D01*
X141740142Y-82026485D02*
X141692523Y-82216961D01*
X141692523Y-82216961D02*
X141597285Y-82312200D01*
X141597285Y-82312200D02*
X141502047Y-82359819D01*
X141502047Y-82359819D02*
X141311571Y-82359819D01*
X142121095Y-81455057D02*
X142168714Y-81407438D01*
X142168714Y-81407438D02*
X142263952Y-81359819D01*
X142263952Y-81359819D02*
X142502047Y-81359819D01*
X142502047Y-81359819D02*
X142597285Y-81407438D01*
X142597285Y-81407438D02*
X142644904Y-81455057D01*
X142644904Y-81455057D02*
X142692523Y-81550295D01*
X142692523Y-81550295D02*
X142692523Y-81645533D01*
X142692523Y-81645533D02*
X142644904Y-81788390D01*
X142644904Y-81788390D02*
X142073476Y-82359819D01*
X142073476Y-82359819D02*
X142692523Y-82359819D01*
X128773819Y-85438094D02*
X127773819Y-85438094D01*
X127773819Y-85438094D02*
X127773819Y-85199999D01*
X127773819Y-85199999D02*
X127821438Y-85057142D01*
X127821438Y-85057142D02*
X127916676Y-84961904D01*
X127916676Y-84961904D02*
X128011914Y-84914285D01*
X128011914Y-84914285D02*
X128202390Y-84866666D01*
X128202390Y-84866666D02*
X128345247Y-84866666D01*
X128345247Y-84866666D02*
X128535723Y-84914285D01*
X128535723Y-84914285D02*
X128630961Y-84961904D01*
X128630961Y-84961904D02*
X128726200Y-85057142D01*
X128726200Y-85057142D02*
X128773819Y-85199999D01*
X128773819Y-85199999D02*
X128773819Y-85438094D01*
X128773819Y-83914285D02*
X128773819Y-84485713D01*
X128773819Y-84199999D02*
X127773819Y-84199999D01*
X127773819Y-84199999D02*
X127916676Y-84295237D01*
X127916676Y-84295237D02*
X128011914Y-84390475D01*
X128011914Y-84390475D02*
X128059533Y-84485713D01*
X141787761Y-76740057D02*
X141692523Y-76692438D01*
X141692523Y-76692438D02*
X141597285Y-76597200D01*
X141597285Y-76597200D02*
X141454428Y-76454342D01*
X141454428Y-76454342D02*
X141359190Y-76406723D01*
X141359190Y-76406723D02*
X141263952Y-76406723D01*
X141311571Y-76644819D02*
X141216333Y-76597200D01*
X141216333Y-76597200D02*
X141121095Y-76501961D01*
X141121095Y-76501961D02*
X141073476Y-76311485D01*
X141073476Y-76311485D02*
X141073476Y-75978152D01*
X141073476Y-75978152D02*
X141121095Y-75787676D01*
X141121095Y-75787676D02*
X141216333Y-75692438D01*
X141216333Y-75692438D02*
X141311571Y-75644819D01*
X141311571Y-75644819D02*
X141502047Y-75644819D01*
X141502047Y-75644819D02*
X141597285Y-75692438D01*
X141597285Y-75692438D02*
X141692523Y-75787676D01*
X141692523Y-75787676D02*
X141740142Y-75978152D01*
X141740142Y-75978152D02*
X141740142Y-76311485D01*
X141740142Y-76311485D02*
X141692523Y-76501961D01*
X141692523Y-76501961D02*
X141597285Y-76597200D01*
X141597285Y-76597200D02*
X141502047Y-76644819D01*
X141502047Y-76644819D02*
X141311571Y-76644819D01*
X142073476Y-75644819D02*
X142692523Y-75644819D01*
X142692523Y-75644819D02*
X142359190Y-76025771D01*
X142359190Y-76025771D02*
X142502047Y-76025771D01*
X142502047Y-76025771D02*
X142597285Y-76073390D01*
X142597285Y-76073390D02*
X142644904Y-76121009D01*
X142644904Y-76121009D02*
X142692523Y-76216247D01*
X142692523Y-76216247D02*
X142692523Y-76454342D01*
X142692523Y-76454342D02*
X142644904Y-76549580D01*
X142644904Y-76549580D02*
X142597285Y-76597200D01*
X142597285Y-76597200D02*
X142502047Y-76644819D01*
X142502047Y-76644819D02*
X142216333Y-76644819D01*
X142216333Y-76644819D02*
X142121095Y-76597200D01*
X142121095Y-76597200D02*
X142073476Y-76549580D01*
X132583819Y-84891666D02*
X132107628Y-85224999D01*
X132583819Y-85463094D02*
X131583819Y-85463094D01*
X131583819Y-85463094D02*
X131583819Y-85082142D01*
X131583819Y-85082142D02*
X131631438Y-84986904D01*
X131631438Y-84986904D02*
X131679057Y-84939285D01*
X131679057Y-84939285D02*
X131774295Y-84891666D01*
X131774295Y-84891666D02*
X131917152Y-84891666D01*
X131917152Y-84891666D02*
X132012390Y-84939285D01*
X132012390Y-84939285D02*
X132060009Y-84986904D01*
X132060009Y-84986904D02*
X132107628Y-85082142D01*
X132107628Y-85082142D02*
X132107628Y-85463094D01*
X131583819Y-84558332D02*
X131583819Y-83939285D01*
X131583819Y-83939285D02*
X131964771Y-84272618D01*
X131964771Y-84272618D02*
X131964771Y-84129761D01*
X131964771Y-84129761D02*
X132012390Y-84034523D01*
X132012390Y-84034523D02*
X132060009Y-83986904D01*
X132060009Y-83986904D02*
X132155247Y-83939285D01*
X132155247Y-83939285D02*
X132393342Y-83939285D01*
X132393342Y-83939285D02*
X132488580Y-83986904D01*
X132488580Y-83986904D02*
X132536200Y-84034523D01*
X132536200Y-84034523D02*
X132583819Y-84129761D01*
X132583819Y-84129761D02*
X132583819Y-84415475D01*
X132583819Y-84415475D02*
X132536200Y-84510713D01*
X132536200Y-84510713D02*
X132488580Y-84558332D01*
X128992333Y-89894580D02*
X128944714Y-89942200D01*
X128944714Y-89942200D02*
X128801857Y-89989819D01*
X128801857Y-89989819D02*
X128706619Y-89989819D01*
X128706619Y-89989819D02*
X128563762Y-89942200D01*
X128563762Y-89942200D02*
X128468524Y-89846961D01*
X128468524Y-89846961D02*
X128420905Y-89751723D01*
X128420905Y-89751723D02*
X128373286Y-89561247D01*
X128373286Y-89561247D02*
X128373286Y-89418390D01*
X128373286Y-89418390D02*
X128420905Y-89227914D01*
X128420905Y-89227914D02*
X128468524Y-89132676D01*
X128468524Y-89132676D02*
X128563762Y-89037438D01*
X128563762Y-89037438D02*
X128706619Y-88989819D01*
X128706619Y-88989819D02*
X128801857Y-88989819D01*
X128801857Y-88989819D02*
X128944714Y-89037438D01*
X128944714Y-89037438D02*
X128992333Y-89085057D01*
X129897095Y-88989819D02*
X129420905Y-88989819D01*
X129420905Y-88989819D02*
X129373286Y-89466009D01*
X129373286Y-89466009D02*
X129420905Y-89418390D01*
X129420905Y-89418390D02*
X129516143Y-89370771D01*
X129516143Y-89370771D02*
X129754238Y-89370771D01*
X129754238Y-89370771D02*
X129849476Y-89418390D01*
X129849476Y-89418390D02*
X129897095Y-89466009D01*
X129897095Y-89466009D02*
X129944714Y-89561247D01*
X129944714Y-89561247D02*
X129944714Y-89799342D01*
X129944714Y-89799342D02*
X129897095Y-89894580D01*
X129897095Y-89894580D02*
X129849476Y-89942200D01*
X129849476Y-89942200D02*
X129754238Y-89989819D01*
X129754238Y-89989819D02*
X129516143Y-89989819D01*
X129516143Y-89989819D02*
X129420905Y-89942200D01*
X129420905Y-89942200D02*
X129373286Y-89894580D01*
X141787761Y-71025057D02*
X141692523Y-70977438D01*
X141692523Y-70977438D02*
X141597285Y-70882200D01*
X141597285Y-70882200D02*
X141454428Y-70739342D01*
X141454428Y-70739342D02*
X141359190Y-70691723D01*
X141359190Y-70691723D02*
X141263952Y-70691723D01*
X141311571Y-70929819D02*
X141216333Y-70882200D01*
X141216333Y-70882200D02*
X141121095Y-70786961D01*
X141121095Y-70786961D02*
X141073476Y-70596485D01*
X141073476Y-70596485D02*
X141073476Y-70263152D01*
X141073476Y-70263152D02*
X141121095Y-70072676D01*
X141121095Y-70072676D02*
X141216333Y-69977438D01*
X141216333Y-69977438D02*
X141311571Y-69929819D01*
X141311571Y-69929819D02*
X141502047Y-69929819D01*
X141502047Y-69929819D02*
X141597285Y-69977438D01*
X141597285Y-69977438D02*
X141692523Y-70072676D01*
X141692523Y-70072676D02*
X141740142Y-70263152D01*
X141740142Y-70263152D02*
X141740142Y-70596485D01*
X141740142Y-70596485D02*
X141692523Y-70786961D01*
X141692523Y-70786961D02*
X141597285Y-70882200D01*
X141597285Y-70882200D02*
X141502047Y-70929819D01*
X141502047Y-70929819D02*
X141311571Y-70929819D01*
X142597285Y-70263152D02*
X142597285Y-70929819D01*
X142359190Y-69882200D02*
X142121095Y-70596485D01*
X142121095Y-70596485D02*
X142740142Y-70596485D01*
X155829095Y-73749819D02*
X155829095Y-74559342D01*
X155829095Y-74559342D02*
X155876714Y-74654580D01*
X155876714Y-74654580D02*
X155924333Y-74702200D01*
X155924333Y-74702200D02*
X156019571Y-74749819D01*
X156019571Y-74749819D02*
X156210047Y-74749819D01*
X156210047Y-74749819D02*
X156305285Y-74702200D01*
X156305285Y-74702200D02*
X156352904Y-74654580D01*
X156352904Y-74654580D02*
X156400523Y-74559342D01*
X156400523Y-74559342D02*
X156400523Y-73749819D01*
X157400523Y-74749819D02*
X156829095Y-74749819D01*
X157114809Y-74749819D02*
X157114809Y-73749819D01*
X157114809Y-73749819D02*
X157019571Y-73892676D01*
X157019571Y-73892676D02*
X156924333Y-73987914D01*
X156924333Y-73987914D02*
X156829095Y-74035533D01*
X134499819Y-93876904D02*
X135309342Y-93876904D01*
X135309342Y-93876904D02*
X135404580Y-93829285D01*
X135404580Y-93829285D02*
X135452200Y-93781666D01*
X135452200Y-93781666D02*
X135499819Y-93686428D01*
X135499819Y-93686428D02*
X135499819Y-93495952D01*
X135499819Y-93495952D02*
X135452200Y-93400714D01*
X135452200Y-93400714D02*
X135404580Y-93353095D01*
X135404580Y-93353095D02*
X135309342Y-93305476D01*
X135309342Y-93305476D02*
X134499819Y-93305476D01*
X134595057Y-92876904D02*
X134547438Y-92829285D01*
X134547438Y-92829285D02*
X134499819Y-92734047D01*
X134499819Y-92734047D02*
X134499819Y-92495952D01*
X134499819Y-92495952D02*
X134547438Y-92400714D01*
X134547438Y-92400714D02*
X134595057Y-92353095D01*
X134595057Y-92353095D02*
X134690295Y-92305476D01*
X134690295Y-92305476D02*
X134785533Y-92305476D01*
X134785533Y-92305476D02*
X134928390Y-92353095D01*
X134928390Y-92353095D02*
X135499819Y-92924523D01*
X135499819Y-92924523D02*
X135499819Y-92305476D01*
X136472819Y-73556666D02*
X135996628Y-73889999D01*
X136472819Y-74128094D02*
X135472819Y-74128094D01*
X135472819Y-74128094D02*
X135472819Y-73747142D01*
X135472819Y-73747142D02*
X135520438Y-73651904D01*
X135520438Y-73651904D02*
X135568057Y-73604285D01*
X135568057Y-73604285D02*
X135663295Y-73556666D01*
X135663295Y-73556666D02*
X135806152Y-73556666D01*
X135806152Y-73556666D02*
X135901390Y-73604285D01*
X135901390Y-73604285D02*
X135949009Y-73651904D01*
X135949009Y-73651904D02*
X135996628Y-73747142D01*
X135996628Y-73747142D02*
X135996628Y-74128094D01*
X135901390Y-72985237D02*
X135853771Y-73080475D01*
X135853771Y-73080475D02*
X135806152Y-73128094D01*
X135806152Y-73128094D02*
X135710914Y-73175713D01*
X135710914Y-73175713D02*
X135663295Y-73175713D01*
X135663295Y-73175713D02*
X135568057Y-73128094D01*
X135568057Y-73128094D02*
X135520438Y-73080475D01*
X135520438Y-73080475D02*
X135472819Y-72985237D01*
X135472819Y-72985237D02*
X135472819Y-72794761D01*
X135472819Y-72794761D02*
X135520438Y-72699523D01*
X135520438Y-72699523D02*
X135568057Y-72651904D01*
X135568057Y-72651904D02*
X135663295Y-72604285D01*
X135663295Y-72604285D02*
X135710914Y-72604285D01*
X135710914Y-72604285D02*
X135806152Y-72651904D01*
X135806152Y-72651904D02*
X135853771Y-72699523D01*
X135853771Y-72699523D02*
X135901390Y-72794761D01*
X135901390Y-72794761D02*
X135901390Y-72985237D01*
X135901390Y-72985237D02*
X135949009Y-73080475D01*
X135949009Y-73080475D02*
X135996628Y-73128094D01*
X135996628Y-73128094D02*
X136091866Y-73175713D01*
X136091866Y-73175713D02*
X136282342Y-73175713D01*
X136282342Y-73175713D02*
X136377580Y-73128094D01*
X136377580Y-73128094D02*
X136425200Y-73080475D01*
X136425200Y-73080475D02*
X136472819Y-72985237D01*
X136472819Y-72985237D02*
X136472819Y-72794761D01*
X136472819Y-72794761D02*
X136425200Y-72699523D01*
X136425200Y-72699523D02*
X136377580Y-72651904D01*
X136377580Y-72651904D02*
X136282342Y-72604285D01*
X136282342Y-72604285D02*
X136091866Y-72604285D01*
X136091866Y-72604285D02*
X135996628Y-72651904D01*
X135996628Y-72651904D02*
X135949009Y-72699523D01*
X135949009Y-72699523D02*
X135901390Y-72794761D01*
X153308554Y-69219251D02*
X153400138Y-69249778D01*
X153400138Y-69249778D02*
X153552777Y-69249778D01*
X153552777Y-69249778D02*
X153613833Y-69219251D01*
X153613833Y-69219251D02*
X153644360Y-69188723D01*
X153644360Y-69188723D02*
X153674888Y-69127667D01*
X153674888Y-69127667D02*
X153674888Y-69066611D01*
X153674888Y-69066611D02*
X153644360Y-69005556D01*
X153644360Y-69005556D02*
X153613833Y-68975028D01*
X153613833Y-68975028D02*
X153552777Y-68944500D01*
X153552777Y-68944500D02*
X153430665Y-68913972D01*
X153430665Y-68913972D02*
X153369610Y-68883444D01*
X153369610Y-68883444D02*
X153339082Y-68852916D01*
X153339082Y-68852916D02*
X153308554Y-68791861D01*
X153308554Y-68791861D02*
X153308554Y-68730805D01*
X153308554Y-68730805D02*
X153339082Y-68669749D01*
X153339082Y-68669749D02*
X153369610Y-68639221D01*
X153369610Y-68639221D02*
X153430665Y-68608693D01*
X153430665Y-68608693D02*
X153583305Y-68608693D01*
X153583305Y-68608693D02*
X153674888Y-68639221D01*
X153919111Y-68669749D02*
X153949639Y-68639221D01*
X153949639Y-68639221D02*
X154010695Y-68608693D01*
X154010695Y-68608693D02*
X154163334Y-68608693D01*
X154163334Y-68608693D02*
X154224390Y-68639221D01*
X154224390Y-68639221D02*
X154254917Y-68669749D01*
X154254917Y-68669749D02*
X154285445Y-68730805D01*
X154285445Y-68730805D02*
X154285445Y-68791861D01*
X154285445Y-68791861D02*
X154254917Y-68883444D01*
X154254917Y-68883444D02*
X153888583Y-69249778D01*
X153888583Y-69249778D02*
X154285445Y-69249778D01*
X136472819Y-68317857D02*
X135996628Y-68651190D01*
X136472819Y-68889285D02*
X135472819Y-68889285D01*
X135472819Y-68889285D02*
X135472819Y-68508333D01*
X135472819Y-68508333D02*
X135520438Y-68413095D01*
X135520438Y-68413095D02*
X135568057Y-68365476D01*
X135568057Y-68365476D02*
X135663295Y-68317857D01*
X135663295Y-68317857D02*
X135806152Y-68317857D01*
X135806152Y-68317857D02*
X135901390Y-68365476D01*
X135901390Y-68365476D02*
X135949009Y-68413095D01*
X135949009Y-68413095D02*
X135996628Y-68508333D01*
X135996628Y-68508333D02*
X135996628Y-68889285D01*
X136472819Y-67365476D02*
X136472819Y-67936904D01*
X136472819Y-67651190D02*
X135472819Y-67651190D01*
X135472819Y-67651190D02*
X135615676Y-67746428D01*
X135615676Y-67746428D02*
X135710914Y-67841666D01*
X135710914Y-67841666D02*
X135758533Y-67936904D01*
X135472819Y-66746428D02*
X135472819Y-66651190D01*
X135472819Y-66651190D02*
X135520438Y-66555952D01*
X135520438Y-66555952D02*
X135568057Y-66508333D01*
X135568057Y-66508333D02*
X135663295Y-66460714D01*
X135663295Y-66460714D02*
X135853771Y-66413095D01*
X135853771Y-66413095D02*
X136091866Y-66413095D01*
X136091866Y-66413095D02*
X136282342Y-66460714D01*
X136282342Y-66460714D02*
X136377580Y-66508333D01*
X136377580Y-66508333D02*
X136425200Y-66555952D01*
X136425200Y-66555952D02*
X136472819Y-66651190D01*
X136472819Y-66651190D02*
X136472819Y-66746428D01*
X136472819Y-66746428D02*
X136425200Y-66841666D01*
X136425200Y-66841666D02*
X136377580Y-66889285D01*
X136377580Y-66889285D02*
X136282342Y-66936904D01*
X136282342Y-66936904D02*
X136091866Y-66984523D01*
X136091866Y-66984523D02*
X135853771Y-66984523D01*
X135853771Y-66984523D02*
X135663295Y-66936904D01*
X135663295Y-66936904D02*
X135568057Y-66889285D01*
X135568057Y-66889285D02*
X135520438Y-66841666D01*
X135520438Y-66841666D02*
X135472819Y-66746428D01*
X142599819Y-55003333D02*
X143314104Y-55003333D01*
X143314104Y-55003333D02*
X143456961Y-55050952D01*
X143456961Y-55050952D02*
X143552200Y-55146190D01*
X143552200Y-55146190D02*
X143599819Y-55289047D01*
X143599819Y-55289047D02*
X143599819Y-55384285D01*
X142599819Y-54050952D02*
X142599819Y-54527142D01*
X142599819Y-54527142D02*
X143076009Y-54574761D01*
X143076009Y-54574761D02*
X143028390Y-54527142D01*
X143028390Y-54527142D02*
X142980771Y-54431904D01*
X142980771Y-54431904D02*
X142980771Y-54193809D01*
X142980771Y-54193809D02*
X143028390Y-54098571D01*
X143028390Y-54098571D02*
X143076009Y-54050952D01*
X143076009Y-54050952D02*
X143171247Y-54003333D01*
X143171247Y-54003333D02*
X143409342Y-54003333D01*
X143409342Y-54003333D02*
X143504580Y-54050952D01*
X143504580Y-54050952D02*
X143552200Y-54098571D01*
X143552200Y-54098571D02*
X143599819Y-54193809D01*
X143599819Y-54193809D02*
X143599819Y-54431904D01*
X143599819Y-54431904D02*
X143552200Y-54527142D01*
X143552200Y-54527142D02*
X143504580Y-54574761D01*
X132802333Y-89894580D02*
X132754714Y-89942200D01*
X132754714Y-89942200D02*
X132611857Y-89989819D01*
X132611857Y-89989819D02*
X132516619Y-89989819D01*
X132516619Y-89989819D02*
X132373762Y-89942200D01*
X132373762Y-89942200D02*
X132278524Y-89846961D01*
X132278524Y-89846961D02*
X132230905Y-89751723D01*
X132230905Y-89751723D02*
X132183286Y-89561247D01*
X132183286Y-89561247D02*
X132183286Y-89418390D01*
X132183286Y-89418390D02*
X132230905Y-89227914D01*
X132230905Y-89227914D02*
X132278524Y-89132676D01*
X132278524Y-89132676D02*
X132373762Y-89037438D01*
X132373762Y-89037438D02*
X132516619Y-88989819D01*
X132516619Y-88989819D02*
X132611857Y-88989819D01*
X132611857Y-88989819D02*
X132754714Y-89037438D01*
X132754714Y-89037438D02*
X132802333Y-89085057D01*
X133659476Y-89323152D02*
X133659476Y-89989819D01*
X133421381Y-88942200D02*
X133183286Y-89656485D01*
X133183286Y-89656485D02*
X133802333Y-89656485D01*
X140749580Y-93051666D02*
X140797200Y-93099285D01*
X140797200Y-93099285D02*
X140844819Y-93242142D01*
X140844819Y-93242142D02*
X140844819Y-93337380D01*
X140844819Y-93337380D02*
X140797200Y-93480237D01*
X140797200Y-93480237D02*
X140701961Y-93575475D01*
X140701961Y-93575475D02*
X140606723Y-93623094D01*
X140606723Y-93623094D02*
X140416247Y-93670713D01*
X140416247Y-93670713D02*
X140273390Y-93670713D01*
X140273390Y-93670713D02*
X140082914Y-93623094D01*
X140082914Y-93623094D02*
X139987676Y-93575475D01*
X139987676Y-93575475D02*
X139892438Y-93480237D01*
X139892438Y-93480237D02*
X139844819Y-93337380D01*
X139844819Y-93337380D02*
X139844819Y-93242142D01*
X139844819Y-93242142D02*
X139892438Y-93099285D01*
X139892438Y-93099285D02*
X139940057Y-93051666D01*
X139844819Y-92718332D02*
X139844819Y-92099285D01*
X139844819Y-92099285D02*
X140225771Y-92432618D01*
X140225771Y-92432618D02*
X140225771Y-92289761D01*
X140225771Y-92289761D02*
X140273390Y-92194523D01*
X140273390Y-92194523D02*
X140321009Y-92146904D01*
X140321009Y-92146904D02*
X140416247Y-92099285D01*
X140416247Y-92099285D02*
X140654342Y-92099285D01*
X140654342Y-92099285D02*
X140749580Y-92146904D01*
X140749580Y-92146904D02*
X140797200Y-92194523D01*
X140797200Y-92194523D02*
X140844819Y-92289761D01*
X140844819Y-92289761D02*
X140844819Y-92575475D01*
X140844819Y-92575475D02*
X140797200Y-92670713D01*
X140797200Y-92670713D02*
X140749580Y-92718332D01*
X120739819Y-77168333D02*
X121454104Y-77168333D01*
X121454104Y-77168333D02*
X121596961Y-77215952D01*
X121596961Y-77215952D02*
X121692200Y-77311190D01*
X121692200Y-77311190D02*
X121739819Y-77454047D01*
X121739819Y-77454047D02*
X121739819Y-77549285D01*
X120739819Y-76787380D02*
X120739819Y-76168333D01*
X120739819Y-76168333D02*
X121120771Y-76501666D01*
X121120771Y-76501666D02*
X121120771Y-76358809D01*
X121120771Y-76358809D02*
X121168390Y-76263571D01*
X121168390Y-76263571D02*
X121216009Y-76215952D01*
X121216009Y-76215952D02*
X121311247Y-76168333D01*
X121311247Y-76168333D02*
X121549342Y-76168333D01*
X121549342Y-76168333D02*
X121644580Y-76215952D01*
X121644580Y-76215952D02*
X121692200Y-76263571D01*
X121692200Y-76263571D02*
X121739819Y-76358809D01*
X121739819Y-76358809D02*
X121739819Y-76644523D01*
X121739819Y-76644523D02*
X121692200Y-76739761D01*
X121692200Y-76739761D02*
X121644580Y-76787380D01*
X128852819Y-74103094D02*
X127852819Y-74103094D01*
X127852819Y-74103094D02*
X127852819Y-73864999D01*
X127852819Y-73864999D02*
X127900438Y-73722142D01*
X127900438Y-73722142D02*
X127995676Y-73626904D01*
X127995676Y-73626904D02*
X128090914Y-73579285D01*
X128090914Y-73579285D02*
X128281390Y-73531666D01*
X128281390Y-73531666D02*
X128424247Y-73531666D01*
X128424247Y-73531666D02*
X128614723Y-73579285D01*
X128614723Y-73579285D02*
X128709961Y-73626904D01*
X128709961Y-73626904D02*
X128805200Y-73722142D01*
X128805200Y-73722142D02*
X128852819Y-73864999D01*
X128852819Y-73864999D02*
X128852819Y-74103094D01*
X127852819Y-73198332D02*
X127852819Y-72579285D01*
X127852819Y-72579285D02*
X128233771Y-72912618D01*
X128233771Y-72912618D02*
X128233771Y-72769761D01*
X128233771Y-72769761D02*
X128281390Y-72674523D01*
X128281390Y-72674523D02*
X128329009Y-72626904D01*
X128329009Y-72626904D02*
X128424247Y-72579285D01*
X128424247Y-72579285D02*
X128662342Y-72579285D01*
X128662342Y-72579285D02*
X128757580Y-72626904D01*
X128757580Y-72626904D02*
X128805200Y-72674523D01*
X128805200Y-72674523D02*
X128852819Y-72769761D01*
X128852819Y-72769761D02*
X128852819Y-73055475D01*
X128852819Y-73055475D02*
X128805200Y-73150713D01*
X128805200Y-73150713D02*
X128757580Y-73198332D01*
X123340905Y-90369819D02*
X123340905Y-89369819D01*
X123340905Y-89369819D02*
X123579000Y-89369819D01*
X123579000Y-89369819D02*
X123721857Y-89417438D01*
X123721857Y-89417438D02*
X123817095Y-89512676D01*
X123817095Y-89512676D02*
X123864714Y-89607914D01*
X123864714Y-89607914D02*
X123912333Y-89798390D01*
X123912333Y-89798390D02*
X123912333Y-89941247D01*
X123912333Y-89941247D02*
X123864714Y-90131723D01*
X123864714Y-90131723D02*
X123817095Y-90226961D01*
X123817095Y-90226961D02*
X123721857Y-90322200D01*
X123721857Y-90322200D02*
X123579000Y-90369819D01*
X123579000Y-90369819D02*
X123340905Y-90369819D01*
X124769476Y-89369819D02*
X124579000Y-89369819D01*
X124579000Y-89369819D02*
X124483762Y-89417438D01*
X124483762Y-89417438D02*
X124436143Y-89465057D01*
X124436143Y-89465057D02*
X124340905Y-89607914D01*
X124340905Y-89607914D02*
X124293286Y-89798390D01*
X124293286Y-89798390D02*
X124293286Y-90179342D01*
X124293286Y-90179342D02*
X124340905Y-90274580D01*
X124340905Y-90274580D02*
X124388524Y-90322200D01*
X124388524Y-90322200D02*
X124483762Y-90369819D01*
X124483762Y-90369819D02*
X124674238Y-90369819D01*
X124674238Y-90369819D02*
X124769476Y-90322200D01*
X124769476Y-90322200D02*
X124817095Y-90274580D01*
X124817095Y-90274580D02*
X124864714Y-90179342D01*
X124864714Y-90179342D02*
X124864714Y-89941247D01*
X124864714Y-89941247D02*
X124817095Y-89846009D01*
X124817095Y-89846009D02*
X124769476Y-89798390D01*
X124769476Y-89798390D02*
X124674238Y-89750771D01*
X124674238Y-89750771D02*
X124483762Y-89750771D01*
X124483762Y-89750771D02*
X124388524Y-89798390D01*
X124388524Y-89798390D02*
X124340905Y-89846009D01*
X124340905Y-89846009D02*
X124293286Y-89941247D01*
X157781666Y-57493819D02*
X157781666Y-58208104D01*
X157781666Y-58208104D02*
X157734047Y-58350961D01*
X157734047Y-58350961D02*
X157638809Y-58446200D01*
X157638809Y-58446200D02*
X157495952Y-58493819D01*
X157495952Y-58493819D02*
X157400714Y-58493819D01*
X158686428Y-57493819D02*
X158495952Y-57493819D01*
X158495952Y-57493819D02*
X158400714Y-57541438D01*
X158400714Y-57541438D02*
X158353095Y-57589057D01*
X158353095Y-57589057D02*
X158257857Y-57731914D01*
X158257857Y-57731914D02*
X158210238Y-57922390D01*
X158210238Y-57922390D02*
X158210238Y-58303342D01*
X158210238Y-58303342D02*
X158257857Y-58398580D01*
X158257857Y-58398580D02*
X158305476Y-58446200D01*
X158305476Y-58446200D02*
X158400714Y-58493819D01*
X158400714Y-58493819D02*
X158591190Y-58493819D01*
X158591190Y-58493819D02*
X158686428Y-58446200D01*
X158686428Y-58446200D02*
X158734047Y-58398580D01*
X158734047Y-58398580D02*
X158781666Y-58303342D01*
X158781666Y-58303342D02*
X158781666Y-58065247D01*
X158781666Y-58065247D02*
X158734047Y-57970009D01*
X158734047Y-57970009D02*
X158686428Y-57922390D01*
X158686428Y-57922390D02*
X158591190Y-57874771D01*
X158591190Y-57874771D02*
X158400714Y-57874771D01*
X158400714Y-57874771D02*
X158305476Y-57922390D01*
X158305476Y-57922390D02*
X158257857Y-57970009D01*
X158257857Y-57970009D02*
X158210238Y-58065247D01*
X155673333Y-64439819D02*
X155340000Y-63963628D01*
X155101905Y-64439819D02*
X155101905Y-63439819D01*
X155101905Y-63439819D02*
X155482857Y-63439819D01*
X155482857Y-63439819D02*
X155578095Y-63487438D01*
X155578095Y-63487438D02*
X155625714Y-63535057D01*
X155625714Y-63535057D02*
X155673333Y-63630295D01*
X155673333Y-63630295D02*
X155673333Y-63773152D01*
X155673333Y-63773152D02*
X155625714Y-63868390D01*
X155625714Y-63868390D02*
X155578095Y-63916009D01*
X155578095Y-63916009D02*
X155482857Y-63963628D01*
X155482857Y-63963628D02*
X155101905Y-63963628D01*
X156625714Y-64439819D02*
X156054286Y-64439819D01*
X156340000Y-64439819D02*
X156340000Y-63439819D01*
X156340000Y-63439819D02*
X156244762Y-63582676D01*
X156244762Y-63582676D02*
X156149524Y-63677914D01*
X156149524Y-63677914D02*
X156054286Y-63725533D01*
X132662819Y-79271666D02*
X132186628Y-79604999D01*
X132662819Y-79843094D02*
X131662819Y-79843094D01*
X131662819Y-79843094D02*
X131662819Y-79462142D01*
X131662819Y-79462142D02*
X131710438Y-79366904D01*
X131710438Y-79366904D02*
X131758057Y-79319285D01*
X131758057Y-79319285D02*
X131853295Y-79271666D01*
X131853295Y-79271666D02*
X131996152Y-79271666D01*
X131996152Y-79271666D02*
X132091390Y-79319285D01*
X132091390Y-79319285D02*
X132139009Y-79366904D01*
X132139009Y-79366904D02*
X132186628Y-79462142D01*
X132186628Y-79462142D02*
X132186628Y-79843094D01*
X131662819Y-78366904D02*
X131662819Y-78843094D01*
X131662819Y-78843094D02*
X132139009Y-78890713D01*
X132139009Y-78890713D02*
X132091390Y-78843094D01*
X132091390Y-78843094D02*
X132043771Y-78747856D01*
X132043771Y-78747856D02*
X132043771Y-78509761D01*
X132043771Y-78509761D02*
X132091390Y-78414523D01*
X132091390Y-78414523D02*
X132139009Y-78366904D01*
X132139009Y-78366904D02*
X132234247Y-78319285D01*
X132234247Y-78319285D02*
X132472342Y-78319285D01*
X132472342Y-78319285D02*
X132567580Y-78366904D01*
X132567580Y-78366904D02*
X132615200Y-78414523D01*
X132615200Y-78414523D02*
X132662819Y-78509761D01*
X132662819Y-78509761D02*
X132662819Y-78747856D01*
X132662819Y-78747856D02*
X132615200Y-78843094D01*
X132615200Y-78843094D02*
X132567580Y-78890713D01*
X167771251Y-68941445D02*
X167801778Y-68849862D01*
X167801778Y-68849862D02*
X167801778Y-68697222D01*
X167801778Y-68697222D02*
X167771251Y-68636167D01*
X167771251Y-68636167D02*
X167740723Y-68605639D01*
X167740723Y-68605639D02*
X167679667Y-68575111D01*
X167679667Y-68575111D02*
X167618611Y-68575111D01*
X167618611Y-68575111D02*
X167557556Y-68605639D01*
X167557556Y-68605639D02*
X167527028Y-68636167D01*
X167527028Y-68636167D02*
X167496500Y-68697222D01*
X167496500Y-68697222D02*
X167465972Y-68819334D01*
X167465972Y-68819334D02*
X167435444Y-68880389D01*
X167435444Y-68880389D02*
X167404916Y-68910917D01*
X167404916Y-68910917D02*
X167343861Y-68941445D01*
X167343861Y-68941445D02*
X167282805Y-68941445D01*
X167282805Y-68941445D02*
X167221749Y-68910917D01*
X167221749Y-68910917D02*
X167191221Y-68880389D01*
X167191221Y-68880389D02*
X167160693Y-68819334D01*
X167160693Y-68819334D02*
X167160693Y-68666694D01*
X167160693Y-68666694D02*
X167191221Y-68575111D01*
X167801778Y-67964554D02*
X167801778Y-68330888D01*
X167801778Y-68147721D02*
X167160693Y-68147721D01*
X167160693Y-68147721D02*
X167252277Y-68208777D01*
X167252277Y-68208777D02*
X167313333Y-68269832D01*
X167313333Y-68269832D02*
X167343861Y-68330888D01*
X128852819Y-68388094D02*
X127852819Y-68388094D01*
X127852819Y-68388094D02*
X127852819Y-68149999D01*
X127852819Y-68149999D02*
X127900438Y-68007142D01*
X127900438Y-68007142D02*
X127995676Y-67911904D01*
X127995676Y-67911904D02*
X128090914Y-67864285D01*
X128090914Y-67864285D02*
X128281390Y-67816666D01*
X128281390Y-67816666D02*
X128424247Y-67816666D01*
X128424247Y-67816666D02*
X128614723Y-67864285D01*
X128614723Y-67864285D02*
X128709961Y-67911904D01*
X128709961Y-67911904D02*
X128805200Y-68007142D01*
X128805200Y-68007142D02*
X128852819Y-68149999D01*
X128852819Y-68149999D02*
X128852819Y-68388094D01*
X128186152Y-66959523D02*
X128852819Y-66959523D01*
X127805200Y-67197618D02*
X128519485Y-67435713D01*
X128519485Y-67435713D02*
X128519485Y-66816666D01*
X171809628Y-93821190D02*
X172285819Y-93821190D01*
X171285819Y-94154523D02*
X171809628Y-93821190D01*
X171809628Y-93821190D02*
X171285819Y-93487857D01*
X172285819Y-92630714D02*
X172285819Y-93202142D01*
X172285819Y-92916428D02*
X171285819Y-92916428D01*
X171285819Y-92916428D02*
X171428676Y-93011666D01*
X171428676Y-93011666D02*
X171523914Y-93106904D01*
X171523914Y-93106904D02*
X171571533Y-93202142D01*
D12*
X119951667Y-65052800D02*
X120094524Y-65100419D01*
X120094524Y-65100419D02*
X120332619Y-65100419D01*
X120332619Y-65100419D02*
X120427857Y-65052800D01*
X120427857Y-65052800D02*
X120475476Y-65005180D01*
X120475476Y-65005180D02*
X120523095Y-64909942D01*
X120523095Y-64909942D02*
X120523095Y-64814704D01*
X120523095Y-64814704D02*
X120475476Y-64719466D01*
X120475476Y-64719466D02*
X120427857Y-64671847D01*
X120427857Y-64671847D02*
X120332619Y-64624228D01*
X120332619Y-64624228D02*
X120142143Y-64576609D01*
X120142143Y-64576609D02*
X120046905Y-64528990D01*
X120046905Y-64528990D02*
X119999286Y-64481371D01*
X119999286Y-64481371D02*
X119951667Y-64386133D01*
X119951667Y-64386133D02*
X119951667Y-64290895D01*
X119951667Y-64290895D02*
X119999286Y-64195657D01*
X119999286Y-64195657D02*
X120046905Y-64148038D01*
X120046905Y-64148038D02*
X120142143Y-64100419D01*
X120142143Y-64100419D02*
X120380238Y-64100419D01*
X120380238Y-64100419D02*
X120523095Y-64148038D01*
X120856429Y-64100419D02*
X121094524Y-65100419D01*
X121094524Y-65100419D02*
X121285000Y-64386133D01*
X121285000Y-64386133D02*
X121475476Y-65100419D01*
X121475476Y-65100419D02*
X121713572Y-64100419D01*
X122618333Y-65100419D02*
X122046905Y-65100419D01*
X122332619Y-65100419D02*
X122332619Y-64100419D01*
X122332619Y-64100419D02*
X122237381Y-64243276D01*
X122237381Y-64243276D02*
X122142143Y-64338514D01*
X122142143Y-64338514D02*
X122046905Y-64386133D01*
D11*
X127149761Y-66165057D02*
X127054523Y-66117438D01*
X127054523Y-66117438D02*
X126959285Y-66022200D01*
X126959285Y-66022200D02*
X126816428Y-65879342D01*
X126816428Y-65879342D02*
X126721190Y-65831723D01*
X126721190Y-65831723D02*
X126625952Y-65831723D01*
X126673571Y-66069819D02*
X126578333Y-66022200D01*
X126578333Y-66022200D02*
X126483095Y-65926961D01*
X126483095Y-65926961D02*
X126435476Y-65736485D01*
X126435476Y-65736485D02*
X126435476Y-65403152D01*
X126435476Y-65403152D02*
X126483095Y-65212676D01*
X126483095Y-65212676D02*
X126578333Y-65117438D01*
X126578333Y-65117438D02*
X126673571Y-65069819D01*
X126673571Y-65069819D02*
X126864047Y-65069819D01*
X126864047Y-65069819D02*
X126959285Y-65117438D01*
X126959285Y-65117438D02*
X127054523Y-65212676D01*
X127054523Y-65212676D02*
X127102142Y-65403152D01*
X127102142Y-65403152D02*
X127102142Y-65736485D01*
X127102142Y-65736485D02*
X127054523Y-65926961D01*
X127054523Y-65926961D02*
X126959285Y-66022200D01*
X126959285Y-66022200D02*
X126864047Y-66069819D01*
X126864047Y-66069819D02*
X126673571Y-66069819D01*
X128006904Y-65069819D02*
X127530714Y-65069819D01*
X127530714Y-65069819D02*
X127483095Y-65546009D01*
X127483095Y-65546009D02*
X127530714Y-65498390D01*
X127530714Y-65498390D02*
X127625952Y-65450771D01*
X127625952Y-65450771D02*
X127864047Y-65450771D01*
X127864047Y-65450771D02*
X127959285Y-65498390D01*
X127959285Y-65498390D02*
X128006904Y-65546009D01*
X128006904Y-65546009D02*
X128054523Y-65641247D01*
X128054523Y-65641247D02*
X128054523Y-65879342D01*
X128054523Y-65879342D02*
X128006904Y-65974580D01*
X128006904Y-65974580D02*
X127959285Y-66022200D01*
X127959285Y-66022200D02*
X127864047Y-66069819D01*
X127864047Y-66069819D02*
X127625952Y-66069819D01*
X127625952Y-66069819D02*
X127530714Y-66022200D01*
X127530714Y-66022200D02*
X127483095Y-65974580D01*
X175815666Y-78829819D02*
X175815666Y-79544104D01*
X175815666Y-79544104D02*
X175768047Y-79686961D01*
X175768047Y-79686961D02*
X175672809Y-79782200D01*
X175672809Y-79782200D02*
X175529952Y-79829819D01*
X175529952Y-79829819D02*
X175434714Y-79829819D01*
X176815666Y-79829819D02*
X176244238Y-79829819D01*
X176529952Y-79829819D02*
X176529952Y-78829819D01*
X176529952Y-78829819D02*
X176434714Y-78972676D01*
X176434714Y-78972676D02*
X176339476Y-79067914D01*
X176339476Y-79067914D02*
X176244238Y-79115533D01*
X132662819Y-73556666D02*
X132186628Y-73889999D01*
X132662819Y-74128094D02*
X131662819Y-74128094D01*
X131662819Y-74128094D02*
X131662819Y-73747142D01*
X131662819Y-73747142D02*
X131710438Y-73651904D01*
X131710438Y-73651904D02*
X131758057Y-73604285D01*
X131758057Y-73604285D02*
X131853295Y-73556666D01*
X131853295Y-73556666D02*
X131996152Y-73556666D01*
X131996152Y-73556666D02*
X132091390Y-73604285D01*
X132091390Y-73604285D02*
X132139009Y-73651904D01*
X132139009Y-73651904D02*
X132186628Y-73747142D01*
X132186628Y-73747142D02*
X132186628Y-74128094D01*
X131662819Y-73223332D02*
X131662819Y-72556666D01*
X131662819Y-72556666D02*
X132662819Y-72985237D01*
X136393819Y-84891666D02*
X135917628Y-85224999D01*
X136393819Y-85463094D02*
X135393819Y-85463094D01*
X135393819Y-85463094D02*
X135393819Y-85082142D01*
X135393819Y-85082142D02*
X135441438Y-84986904D01*
X135441438Y-84986904D02*
X135489057Y-84939285D01*
X135489057Y-84939285D02*
X135584295Y-84891666D01*
X135584295Y-84891666D02*
X135727152Y-84891666D01*
X135727152Y-84891666D02*
X135822390Y-84939285D01*
X135822390Y-84939285D02*
X135870009Y-84986904D01*
X135870009Y-84986904D02*
X135917628Y-85082142D01*
X135917628Y-85082142D02*
X135917628Y-85463094D01*
X135727152Y-84034523D02*
X136393819Y-84034523D01*
X135346200Y-84272618D02*
X136060485Y-84510713D01*
X136060485Y-84510713D02*
X136060485Y-83891666D01*
X144854819Y-94162857D02*
X144378628Y-94496190D01*
X144854819Y-94734285D02*
X143854819Y-94734285D01*
X143854819Y-94734285D02*
X143854819Y-94353333D01*
X143854819Y-94353333D02*
X143902438Y-94258095D01*
X143902438Y-94258095D02*
X143950057Y-94210476D01*
X143950057Y-94210476D02*
X144045295Y-94162857D01*
X144045295Y-94162857D02*
X144188152Y-94162857D01*
X144188152Y-94162857D02*
X144283390Y-94210476D01*
X144283390Y-94210476D02*
X144331009Y-94258095D01*
X144331009Y-94258095D02*
X144378628Y-94353333D01*
X144378628Y-94353333D02*
X144378628Y-94734285D01*
X144854819Y-93210476D02*
X144854819Y-93781904D01*
X144854819Y-93496190D02*
X143854819Y-93496190D01*
X143854819Y-93496190D02*
X143997676Y-93591428D01*
X143997676Y-93591428D02*
X144092914Y-93686666D01*
X144092914Y-93686666D02*
X144140533Y-93781904D01*
X144854819Y-92258095D02*
X144854819Y-92829523D01*
X144854819Y-92543809D02*
X143854819Y-92543809D01*
X143854819Y-92543809D02*
X143997676Y-92639047D01*
X143997676Y-92639047D02*
X144092914Y-92734285D01*
X144092914Y-92734285D02*
X144140533Y-92829523D01*
X121755819Y-51514333D02*
X122470104Y-51514333D01*
X122470104Y-51514333D02*
X122612961Y-51561952D01*
X122612961Y-51561952D02*
X122708200Y-51657190D01*
X122708200Y-51657190D02*
X122755819Y-51800047D01*
X122755819Y-51800047D02*
X122755819Y-51895285D01*
X121755819Y-51133380D02*
X121755819Y-50466714D01*
X121755819Y-50466714D02*
X122755819Y-50895285D01*
X120231819Y-55070333D02*
X120946104Y-55070333D01*
X120946104Y-55070333D02*
X121088961Y-55117952D01*
X121088961Y-55117952D02*
X121184200Y-55213190D01*
X121184200Y-55213190D02*
X121231819Y-55356047D01*
X121231819Y-55356047D02*
X121231819Y-55451285D01*
X120660390Y-54451285D02*
X120612771Y-54546523D01*
X120612771Y-54546523D02*
X120565152Y-54594142D01*
X120565152Y-54594142D02*
X120469914Y-54641761D01*
X120469914Y-54641761D02*
X120422295Y-54641761D01*
X120422295Y-54641761D02*
X120327057Y-54594142D01*
X120327057Y-54594142D02*
X120279438Y-54546523D01*
X120279438Y-54546523D02*
X120231819Y-54451285D01*
X120231819Y-54451285D02*
X120231819Y-54260809D01*
X120231819Y-54260809D02*
X120279438Y-54165571D01*
X120279438Y-54165571D02*
X120327057Y-54117952D01*
X120327057Y-54117952D02*
X120422295Y-54070333D01*
X120422295Y-54070333D02*
X120469914Y-54070333D01*
X120469914Y-54070333D02*
X120565152Y-54117952D01*
X120565152Y-54117952D02*
X120612771Y-54165571D01*
X120612771Y-54165571D02*
X120660390Y-54260809D01*
X120660390Y-54260809D02*
X120660390Y-54451285D01*
X120660390Y-54451285D02*
X120708009Y-54546523D01*
X120708009Y-54546523D02*
X120755628Y-54594142D01*
X120755628Y-54594142D02*
X120850866Y-54641761D01*
X120850866Y-54641761D02*
X121041342Y-54641761D01*
X121041342Y-54641761D02*
X121136580Y-54594142D01*
X121136580Y-54594142D02*
X121184200Y-54546523D01*
X121184200Y-54546523D02*
X121231819Y-54451285D01*
X121231819Y-54451285D02*
X121231819Y-54260809D01*
X121231819Y-54260809D02*
X121184200Y-54165571D01*
X121184200Y-54165571D02*
X121136580Y-54117952D01*
X121136580Y-54117952D02*
X121041342Y-54070333D01*
X121041342Y-54070333D02*
X120850866Y-54070333D01*
X120850866Y-54070333D02*
X120755628Y-54117952D01*
X120755628Y-54117952D02*
X120708009Y-54165571D01*
X120708009Y-54165571D02*
X120660390Y-54260809D01*
X125871905Y-60524819D02*
X125871905Y-59524819D01*
X125871905Y-59524819D02*
X126110000Y-59524819D01*
X126110000Y-59524819D02*
X126252857Y-59572438D01*
X126252857Y-59572438D02*
X126348095Y-59667676D01*
X126348095Y-59667676D02*
X126395714Y-59762914D01*
X126395714Y-59762914D02*
X126443333Y-59953390D01*
X126443333Y-59953390D02*
X126443333Y-60096247D01*
X126443333Y-60096247D02*
X126395714Y-60286723D01*
X126395714Y-60286723D02*
X126348095Y-60381961D01*
X126348095Y-60381961D02*
X126252857Y-60477200D01*
X126252857Y-60477200D02*
X126110000Y-60524819D01*
X126110000Y-60524819D02*
X125871905Y-60524819D01*
X127348095Y-59524819D02*
X126871905Y-59524819D01*
X126871905Y-59524819D02*
X126824286Y-60001009D01*
X126824286Y-60001009D02*
X126871905Y-59953390D01*
X126871905Y-59953390D02*
X126967143Y-59905771D01*
X126967143Y-59905771D02*
X127205238Y-59905771D01*
X127205238Y-59905771D02*
X127300476Y-59953390D01*
X127300476Y-59953390D02*
X127348095Y-60001009D01*
X127348095Y-60001009D02*
X127395714Y-60096247D01*
X127395714Y-60096247D02*
X127395714Y-60334342D01*
X127395714Y-60334342D02*
X127348095Y-60429580D01*
X127348095Y-60429580D02*
X127300476Y-60477200D01*
X127300476Y-60477200D02*
X127205238Y-60524819D01*
X127205238Y-60524819D02*
X126967143Y-60524819D01*
X126967143Y-60524819D02*
X126871905Y-60477200D01*
X126871905Y-60477200D02*
X126824286Y-60429580D01*
X168957666Y-57493819D02*
X168957666Y-58208104D01*
X168957666Y-58208104D02*
X168910047Y-58350961D01*
X168910047Y-58350961D02*
X168814809Y-58446200D01*
X168814809Y-58446200D02*
X168671952Y-58493819D01*
X168671952Y-58493819D02*
X168576714Y-58493819D01*
X169481476Y-58493819D02*
X169671952Y-58493819D01*
X169671952Y-58493819D02*
X169767190Y-58446200D01*
X169767190Y-58446200D02*
X169814809Y-58398580D01*
X169814809Y-58398580D02*
X169910047Y-58255723D01*
X169910047Y-58255723D02*
X169957666Y-58065247D01*
X169957666Y-58065247D02*
X169957666Y-57684295D01*
X169957666Y-57684295D02*
X169910047Y-57589057D01*
X169910047Y-57589057D02*
X169862428Y-57541438D01*
X169862428Y-57541438D02*
X169767190Y-57493819D01*
X169767190Y-57493819D02*
X169576714Y-57493819D01*
X169576714Y-57493819D02*
X169481476Y-57541438D01*
X169481476Y-57541438D02*
X169433857Y-57589057D01*
X169433857Y-57589057D02*
X169386238Y-57684295D01*
X169386238Y-57684295D02*
X169386238Y-57922390D01*
X169386238Y-57922390D02*
X169433857Y-58017628D01*
X169433857Y-58017628D02*
X169481476Y-58065247D01*
X169481476Y-58065247D02*
X169576714Y-58112866D01*
X169576714Y-58112866D02*
X169767190Y-58112866D01*
X169767190Y-58112866D02*
X169862428Y-58065247D01*
X169862428Y-58065247D02*
X169910047Y-58017628D01*
X169910047Y-58017628D02*
X169957666Y-57922390D01*
D13*
X124614000Y-92355936D02*
X124614000Y-92810064D01*
X126084000Y-92355936D02*
X126084000Y-92810064D01*
X164726252Y-88038000D02*
X164203748Y-88038000D01*
X164726252Y-89508000D02*
X164203748Y-89508000D01*
X129088000Y-78080000D02*
X129088000Y-80940000D01*
X129088000Y-80940000D02*
X131008000Y-80940000D01*
X131008000Y-80940000D02*
X131008000Y-78080000D01*
X174625000Y-61595000D02*
X175895000Y-61595000D01*
X174625000Y-62865000D02*
X174625000Y-61595000D01*
X176937929Y-65025000D02*
X177335000Y-65025000D01*
X176937929Y-65785000D02*
X177335000Y-65785000D01*
X176937929Y-67565000D02*
X177335000Y-67565000D01*
X176937929Y-68325000D02*
X177335000Y-68325000D01*
X176937929Y-70105000D02*
X177335000Y-70105000D01*
X176937929Y-70865000D02*
X177335000Y-70865000D01*
X176937929Y-72645000D02*
X177335000Y-72645000D01*
X176937929Y-73405000D02*
X177335000Y-73405000D01*
X176937929Y-75185000D02*
X177335000Y-75185000D01*
X176937929Y-75945000D02*
X177335000Y-75945000D01*
X177005000Y-62485000D02*
X177335000Y-62485000D01*
X177005000Y-63245000D02*
X177335000Y-63245000D01*
X177335000Y-61535000D02*
X177335000Y-76895000D01*
X177335000Y-64135000D02*
X179995000Y-64135000D01*
X177335000Y-66675000D02*
X179995000Y-66675000D01*
X177335000Y-69215000D02*
X179995000Y-69215000D01*
X177335000Y-71755000D02*
X179995000Y-71755000D01*
X177335000Y-74295000D02*
X179995000Y-74295000D01*
X177335000Y-76895000D02*
X179995000Y-76895000D01*
X179995000Y-61535000D02*
X177335000Y-61535000D01*
X179995000Y-62485000D02*
X185995000Y-62485000D01*
X179995000Y-62545000D02*
X185995000Y-62545000D01*
X179995000Y-62665000D02*
X185995000Y-62665000D01*
X179995000Y-62785000D02*
X185995000Y-62785000D01*
X179995000Y-62905000D02*
X185995000Y-62905000D01*
X179995000Y-63025000D02*
X185995000Y-63025000D01*
X179995000Y-63145000D02*
X185995000Y-63145000D01*
X179995000Y-65025000D02*
X185995000Y-65025000D01*
X179995000Y-67565000D02*
X185995000Y-67565000D01*
X179995000Y-70105000D02*
X185995000Y-70105000D01*
X179995000Y-72645000D02*
X185995000Y-72645000D01*
X179995000Y-75185000D02*
X185995000Y-75185000D01*
X179995000Y-76895000D02*
X179995000Y-61535000D01*
X185995000Y-62485000D02*
X185995000Y-63245000D01*
X185995000Y-63245000D02*
X179995000Y-63245000D01*
X185995000Y-65025000D02*
X185995000Y-65785000D01*
X185995000Y-65785000D02*
X179995000Y-65785000D01*
X185995000Y-67565000D02*
X185995000Y-68325000D01*
X185995000Y-68325000D02*
X179995000Y-68325000D01*
X185995000Y-70105000D02*
X185995000Y-70865000D01*
X185995000Y-70865000D02*
X179995000Y-70865000D01*
X185995000Y-72645000D02*
X185995000Y-73405000D01*
X185995000Y-73405000D02*
X179995000Y-73405000D01*
X185995000Y-75185000D02*
X185995000Y-75945000D01*
X185995000Y-75945000D02*
X179995000Y-75945000D01*
X141123000Y-83129000D02*
X141123000Y-84059000D01*
X141123000Y-83129000D02*
X142583000Y-83129000D01*
X141123000Y-86289000D02*
X141123000Y-85359000D01*
X141923000Y-86289000D02*
X141123000Y-86289000D01*
X141923000Y-86289000D02*
X142723000Y-86289000D01*
X143463000Y-86649000D02*
X142983000Y-86649000D01*
X143223000Y-86319000D01*
X143463000Y-86649000D01*
G36*
X143463000Y-86649000D02*
G01*
X142983000Y-86649000D01*
X143223000Y-86319000D01*
X143463000Y-86649000D01*
G37*
X155768748Y-88038000D02*
X156291252Y-88038000D01*
X155768748Y-89508000D02*
X156291252Y-89508000D01*
X132655000Y-54955000D02*
X132655000Y-57615000D01*
X132655000Y-57615000D02*
X140395000Y-57615000D01*
X132715000Y-60325000D02*
X132715000Y-59055000D01*
X133605000Y-48955000D02*
X134365000Y-48955000D01*
X133605000Y-54955000D02*
X133605000Y-48955000D01*
X133605000Y-57945000D02*
X133605000Y-57615000D01*
X133665000Y-54955000D02*
X133665000Y-48955000D01*
X133785000Y-54955000D02*
X133785000Y-48955000D01*
X133905000Y-54955000D02*
X133905000Y-48955000D01*
X133985000Y-60325000D02*
X132715000Y-60325000D01*
X134025000Y-54955000D02*
X134025000Y-48955000D01*
X134145000Y-54955000D02*
X134145000Y-48955000D01*
X134265000Y-54955000D02*
X134265000Y-48955000D01*
X134365000Y-48955000D02*
X134365000Y-54955000D01*
X134365000Y-57945000D02*
X134365000Y-57615000D01*
X135255000Y-57615000D02*
X135255000Y-54955000D01*
X136145000Y-48955000D02*
X136905000Y-48955000D01*
X136145000Y-54955000D02*
X136145000Y-48955000D01*
X136145000Y-58012071D02*
X136145000Y-57615000D01*
X136905000Y-48955000D02*
X136905000Y-54955000D01*
X136905000Y-58012071D02*
X136905000Y-57615000D01*
X137795000Y-57615000D02*
X137795000Y-54955000D01*
X138685000Y-48955000D02*
X139445000Y-48955000D01*
X138685000Y-54955000D02*
X138685000Y-48955000D01*
X138685000Y-58012071D02*
X138685000Y-57615000D01*
X139445000Y-48955000D02*
X139445000Y-54955000D01*
X139445000Y-58012071D02*
X139445000Y-57615000D01*
X140395000Y-54955000D02*
X132655000Y-54955000D01*
X140395000Y-57615000D02*
X140395000Y-54955000D01*
X161697936Y-61600000D02*
X162152064Y-61600000D01*
X161697936Y-63070000D02*
X162152064Y-63070000D01*
X133123000Y-67902064D02*
X133123000Y-67447936D01*
X134593000Y-67902064D02*
X134593000Y-67447936D01*
X136933000Y-79332064D02*
X136933000Y-78877936D01*
X138403000Y-79332064D02*
X138403000Y-78877936D01*
X141123000Y-77575000D02*
X141123000Y-78505000D01*
X141123000Y-77575000D02*
X142583000Y-77575000D01*
X141123000Y-80735000D02*
X141123000Y-79805000D01*
X141923000Y-80735000D02*
X141123000Y-80735000D01*
X141923000Y-80735000D02*
X142723000Y-80735000D01*
X143463000Y-81095000D02*
X142983000Y-81095000D01*
X143223000Y-80765000D01*
X143463000Y-81095000D01*
G36*
X143463000Y-81095000D02*
G01*
X142983000Y-81095000D01*
X143223000Y-80765000D01*
X143463000Y-81095000D01*
G37*
X129009000Y-83700000D02*
X129009000Y-86560000D01*
X129009000Y-86560000D02*
X130929000Y-86560000D01*
X130929000Y-86560000D02*
X130929000Y-83700000D01*
X141123000Y-71860000D02*
X141123000Y-72790000D01*
X141123000Y-71860000D02*
X142583000Y-71860000D01*
X141123000Y-75020000D02*
X141123000Y-74090000D01*
X141923000Y-75020000D02*
X141123000Y-75020000D01*
X141923000Y-75020000D02*
X142723000Y-75020000D01*
X143463000Y-75380000D02*
X142983000Y-75380000D01*
X143223000Y-75050000D01*
X143463000Y-75380000D01*
G36*
X143463000Y-75380000D02*
G01*
X142983000Y-75380000D01*
X143223000Y-75050000D01*
X143463000Y-75380000D01*
G37*
X133044000Y-84952064D02*
X133044000Y-84497936D01*
X134514000Y-84952064D02*
X134514000Y-84497936D01*
X128249000Y-92173748D02*
X128249000Y-93596252D01*
X130069000Y-92173748D02*
X130069000Y-93596252D01*
X141123000Y-66145000D02*
X141123000Y-67075000D01*
X141123000Y-66145000D02*
X142583000Y-66145000D01*
X141123000Y-69305000D02*
X141123000Y-68375000D01*
X141923000Y-69305000D02*
X141123000Y-69305000D01*
X141923000Y-69305000D02*
X142723000Y-69305000D01*
X143463000Y-69665000D02*
X142983000Y-69665000D01*
X143223000Y-69335000D01*
X143463000Y-69665000D01*
G36*
X143463000Y-69665000D02*
G01*
X142983000Y-69665000D01*
X143223000Y-69335000D01*
X143463000Y-69665000D01*
G37*
D11*
X157405000Y-75310000D02*
X157405000Y-75535000D01*
X157405000Y-75310000D02*
X157730000Y-75310000D01*
X157405000Y-82560000D02*
X157405000Y-82235000D01*
X157405000Y-82560000D02*
X157730000Y-82560000D01*
X164655000Y-75310000D02*
X164330000Y-75310000D01*
X164655000Y-75310000D02*
X164655000Y-75635000D01*
X164655000Y-82560000D02*
X164330000Y-82560000D01*
X164655000Y-82560000D02*
X164655000Y-82235000D01*
D13*
X156640000Y-75595000D02*
X156300000Y-75125000D01*
X156980000Y-75125000D01*
X156640000Y-75595000D01*
G36*
X156640000Y-75595000D02*
G01*
X156300000Y-75125000D01*
X156980000Y-75125000D01*
X156640000Y-75595000D01*
G37*
X136215000Y-92355000D02*
X137145000Y-92355000D01*
X136215000Y-93155000D02*
X136215000Y-92355000D01*
X136215000Y-93155000D02*
X136215000Y-93955000D01*
X139375000Y-92355000D02*
X138445000Y-92355000D01*
X139375000Y-92355000D02*
X139375000Y-93815000D01*
X136185000Y-94455000D02*
X135855000Y-94695000D01*
X135855000Y-94215000D01*
X136185000Y-94455000D01*
G36*
X136185000Y-94455000D02*
G01*
X135855000Y-94695000D01*
X135855000Y-94215000D01*
X136185000Y-94455000D01*
G37*
X136933000Y-73617064D02*
X136933000Y-73162936D01*
X138403000Y-73617064D02*
X138403000Y-73162936D01*
D14*
X154075000Y-65425000D02*
X157075000Y-65425000D01*
X154075000Y-65525000D02*
X154075000Y-65425000D01*
X154075000Y-67825000D02*
X154075000Y-67925000D01*
X154075000Y-67925000D02*
X154875000Y-67925000D01*
X157075000Y-65425000D02*
X157075000Y-65525000D01*
X157075000Y-67825000D02*
X157075000Y-67925000D01*
X157075000Y-67925000D02*
X156275000Y-67925000D01*
X156325000Y-66675000D02*
G75*
G02*
X154825000Y-66675000I-750000J0D01*
G01*
X154825000Y-66675000D02*
G75*
G02*
X156325000Y-66675000I750000J0D01*
G01*
D12*
X157775000Y-65425000D02*
G75*
G02*
X157675000Y-65425000I-50000J0D01*
G01*
X157675000Y-65425000D02*
G75*
G02*
X157775000Y-65425000I50000J0D01*
G01*
D13*
X136933000Y-67902064D02*
X136933000Y-67447936D01*
X138403000Y-67902064D02*
X138403000Y-67447936D01*
X144085000Y-54955000D02*
X144085000Y-57615000D01*
X144085000Y-57615000D02*
X151825000Y-57615000D01*
X144145000Y-60325000D02*
X144145000Y-59055000D01*
X145035000Y-48955000D02*
X145795000Y-48955000D01*
X145035000Y-54955000D02*
X145035000Y-48955000D01*
X145035000Y-57945000D02*
X145035000Y-57615000D01*
X145095000Y-54955000D02*
X145095000Y-48955000D01*
X145215000Y-54955000D02*
X145215000Y-48955000D01*
X145335000Y-54955000D02*
X145335000Y-48955000D01*
X145415000Y-60325000D02*
X144145000Y-60325000D01*
X145455000Y-54955000D02*
X145455000Y-48955000D01*
X145575000Y-54955000D02*
X145575000Y-48955000D01*
X145695000Y-54955000D02*
X145695000Y-48955000D01*
X145795000Y-48955000D02*
X145795000Y-54955000D01*
X145795000Y-57945000D02*
X145795000Y-57615000D01*
X146685000Y-57615000D02*
X146685000Y-54955000D01*
X147575000Y-48955000D02*
X148335000Y-48955000D01*
X147575000Y-54955000D02*
X147575000Y-48955000D01*
X147575000Y-58012071D02*
X147575000Y-57615000D01*
X148335000Y-48955000D02*
X148335000Y-54955000D01*
X148335000Y-58012071D02*
X148335000Y-57615000D01*
X149225000Y-57615000D02*
X149225000Y-54955000D01*
X150115000Y-48955000D02*
X150875000Y-48955000D01*
X150115000Y-54955000D02*
X150115000Y-48955000D01*
X150115000Y-58012071D02*
X150115000Y-57615000D01*
X150875000Y-48955000D02*
X150875000Y-54955000D01*
X150875000Y-58012071D02*
X150875000Y-57615000D01*
X151825000Y-54955000D02*
X144085000Y-54955000D01*
X151825000Y-57615000D02*
X151825000Y-54955000D01*
X132059000Y-92173748D02*
X132059000Y-93596252D01*
X133879000Y-92173748D02*
X133879000Y-93596252D01*
X141330000Y-93596252D02*
X141330000Y-92173748D01*
X143150000Y-93596252D02*
X143150000Y-92173748D01*
X112835000Y-66325000D02*
X119575000Y-66325000D01*
X112835000Y-87345000D02*
X112835000Y-66325000D01*
X112835000Y-87345000D02*
X119575000Y-87345000D01*
X113955000Y-87345000D02*
X113955000Y-66325000D01*
X119055000Y-87345000D02*
X119055000Y-66325000D01*
X119175000Y-87585000D02*
X119815000Y-87585000D01*
X119575000Y-87345000D02*
X119575000Y-66325000D01*
X119815000Y-87585000D02*
X119815000Y-87185000D01*
X129088000Y-72365000D02*
X129088000Y-75225000D01*
X129088000Y-75225000D02*
X131008000Y-75225000D01*
X131008000Y-75225000D02*
X131008000Y-72365000D01*
X123079000Y-89225000D02*
X125939000Y-89225000D01*
X125939000Y-87305000D02*
X123079000Y-87305000D01*
X125939000Y-89225000D02*
X125939000Y-87305000D01*
X154985000Y-55675000D02*
X154985000Y-56315000D01*
X154985000Y-56315000D02*
X155385000Y-56315000D01*
X155225000Y-49335000D02*
X155225000Y-56075000D01*
X155225000Y-49335000D02*
X161005000Y-49335000D01*
X155225000Y-50455000D02*
X161005000Y-50455000D01*
X155225000Y-55555000D02*
X161005000Y-55555000D01*
X155225000Y-56075000D02*
X161005000Y-56075000D01*
X161005000Y-49335000D02*
X161005000Y-56075000D01*
X156067064Y-61600000D02*
X155612936Y-61600000D01*
X156067064Y-63070000D02*
X155612936Y-63070000D01*
X133123000Y-79332064D02*
X133123000Y-78877936D01*
X134593000Y-79332064D02*
X134593000Y-78877936D01*
D14*
X163850000Y-65175000D02*
X163950000Y-65175000D01*
X163850000Y-68175000D02*
X163850000Y-65175000D01*
X163950000Y-68175000D02*
X163850000Y-68175000D01*
X166250000Y-65175000D02*
X166350000Y-65175000D01*
X166250000Y-68175000D02*
X166350000Y-68175000D01*
X166350000Y-65175000D02*
X166350000Y-65975000D01*
X166350000Y-68175000D02*
X166350000Y-67375000D01*
D12*
X163900000Y-64525000D02*
G75*
G02*
X163800000Y-64525000I-50000J0D01*
G01*
X163800000Y-64525000D02*
G75*
G02*
X163900000Y-64525000I50000J0D01*
G01*
D14*
X165850000Y-66675000D02*
G75*
G02*
X164350000Y-66675000I-750000J0D01*
G01*
X164350000Y-66675000D02*
G75*
G02*
X165850000Y-66675000I750000J0D01*
G01*
D13*
X129088000Y-66650000D02*
X129088000Y-69510000D01*
X129088000Y-69510000D02*
X131008000Y-69510000D01*
X131008000Y-69510000D02*
X131008000Y-66650000D01*
X150580000Y-90795000D02*
X150580000Y-95895000D01*
X150580000Y-95895000D02*
X166555000Y-95895000D01*
X166555000Y-90795000D02*
X150580000Y-90795000D01*
D12*
X112268000Y-63500000D02*
X122682000Y-63500000D01*
X122682000Y-57150000D01*
X112268000Y-57150000D01*
X112268000Y-63500000D01*
D13*
X126485000Y-61285000D02*
X126485000Y-62215000D01*
X126485000Y-61285000D02*
X127945000Y-61285000D01*
X126485000Y-64445000D02*
X126485000Y-63515000D01*
X127285000Y-64445000D02*
X126485000Y-64445000D01*
X127285000Y-64445000D02*
X128085000Y-64445000D01*
X128825000Y-64805000D02*
X128345000Y-64805000D01*
X128585000Y-64475000D01*
X128825000Y-64805000D01*
G36*
X128825000Y-64805000D02*
G01*
X128345000Y-64805000D01*
X128585000Y-64475000D01*
X128825000Y-64805000D01*
G37*
X173755000Y-85225000D02*
X173755000Y-86225000D01*
X173755000Y-86225000D02*
X174755000Y-85725000D01*
X174755000Y-85725000D02*
X173755000Y-85225000D01*
X175145000Y-80515000D02*
X184265000Y-80515000D01*
X175145000Y-86215000D02*
X176455000Y-86215000D01*
X175145000Y-96015000D02*
X175145000Y-80515000D01*
X176455000Y-81815000D02*
X182955000Y-81815000D01*
X176455000Y-86215000D02*
X176455000Y-81815000D01*
X176455000Y-90315000D02*
X175145000Y-90315000D01*
X176455000Y-90315000D02*
X176455000Y-90315000D01*
X176455000Y-94715000D02*
X176455000Y-90315000D01*
X182955000Y-81815000D02*
X182955000Y-94715000D01*
X182955000Y-94715000D02*
X176455000Y-94715000D01*
X184265000Y-80515000D02*
X184265000Y-96015000D01*
X184265000Y-96015000D02*
X175145000Y-96015000D01*
X133123000Y-73617064D02*
X133123000Y-73162936D01*
X134593000Y-73617064D02*
X134593000Y-73162936D01*
X136854000Y-84952064D02*
X136854000Y-84497936D01*
X138324000Y-84952064D02*
X138324000Y-84497936D01*
X145315000Y-93747064D02*
X145315000Y-93292936D01*
X146785000Y-93747064D02*
X146785000Y-93292936D01*
X123235000Y-55675000D02*
X123235000Y-56315000D01*
X123235000Y-56315000D02*
X123635000Y-56315000D01*
X123475000Y-49335000D02*
X123475000Y-56075000D01*
X123475000Y-49335000D02*
X129255000Y-49335000D01*
X123475000Y-50455000D02*
X129255000Y-50455000D01*
X123475000Y-55555000D02*
X129255000Y-55555000D01*
X123475000Y-56075000D02*
X129255000Y-56075000D01*
X129255000Y-49335000D02*
X129255000Y-56075000D01*
X112835000Y-49815000D02*
X119575000Y-49815000D01*
X112835000Y-55595000D02*
X112835000Y-49815000D01*
X112835000Y-55595000D02*
X119575000Y-55595000D01*
X113955000Y-55595000D02*
X113955000Y-49815000D01*
X119055000Y-55595000D02*
X119055000Y-49815000D01*
X119175000Y-55835000D02*
X119815000Y-55835000D01*
X119575000Y-55595000D02*
X119575000Y-49815000D01*
X119815000Y-55835000D02*
X119815000Y-55435000D01*
X125610000Y-59380000D02*
X128470000Y-59380000D01*
X128470000Y-57460000D02*
X125610000Y-57460000D01*
X128470000Y-59380000D02*
X128470000Y-57460000D01*
X163875000Y-55675000D02*
X163875000Y-56315000D01*
X163875000Y-56315000D02*
X164275000Y-56315000D01*
X164115000Y-49335000D02*
X164115000Y-56075000D01*
X164115000Y-49335000D02*
X174976000Y-49335000D01*
X164115000Y-50455000D02*
X174976000Y-50455000D01*
X164115000Y-55555000D02*
X174976000Y-55555000D01*
X164115000Y-56075000D02*
X174976000Y-56075000D01*
X174976000Y-49335000D02*
X174976000Y-56075000D01*
%LPC*%
G36*
G01*
X124899000Y-90983000D02*
X125799000Y-90983000D01*
G75*
G02*
X126049000Y-91233000I0J-250000D01*
G01*
X126049000Y-91933000D01*
G75*
G02*
X125799000Y-92183000I-250000J0D01*
G01*
X124899000Y-92183000D01*
G75*
G02*
X124649000Y-91933000I0J250000D01*
G01*
X124649000Y-91233000D01*
G75*
G02*
X124899000Y-90983000I250000J0D01*
G01*
G37*
G36*
G01*
X124899000Y-92983000D02*
X125799000Y-92983000D01*
G75*
G02*
X126049000Y-93233000I0J-250000D01*
G01*
X126049000Y-93933000D01*
G75*
G02*
X125799000Y-94183000I-250000J0D01*
G01*
X124899000Y-94183000D01*
G75*
G02*
X124649000Y-93933000I0J250000D01*
G01*
X124649000Y-93233000D01*
G75*
G02*
X124899000Y-92983000I250000J0D01*
G01*
G37*
G36*
G01*
X166090000Y-88298000D02*
X166090000Y-89248000D01*
G75*
G02*
X165840000Y-89498000I-250000J0D01*
G01*
X165165000Y-89498000D01*
G75*
G02*
X164915000Y-89248000I0J250000D01*
G01*
X164915000Y-88298000D01*
G75*
G02*
X165165000Y-88048000I250000J0D01*
G01*
X165840000Y-88048000D01*
G75*
G02*
X166090000Y-88298000I0J-250000D01*
G01*
G37*
G36*
G01*
X164015000Y-88298000D02*
X164015000Y-89248000D01*
G75*
G02*
X163765000Y-89498000I-250000J0D01*
G01*
X163090000Y-89498000D01*
G75*
G02*
X162840000Y-89248000I0J250000D01*
G01*
X162840000Y-88298000D01*
G75*
G02*
X163090000Y-88048000I250000J0D01*
G01*
X163765000Y-88048000D01*
G75*
G02*
X164015000Y-88298000I0J-250000D01*
G01*
G37*
G36*
G01*
X130498000Y-80680000D02*
X129598000Y-80680000D01*
G75*
G02*
X129348000Y-80430000I0J250000D01*
G01*
X129348000Y-79780000D01*
G75*
G02*
X129598000Y-79530000I250000J0D01*
G01*
X130498000Y-79530000D01*
G75*
G02*
X130748000Y-79780000I0J-250000D01*
G01*
X130748000Y-80430000D01*
G75*
G02*
X130498000Y-80680000I-250000J0D01*
G01*
G37*
G36*
G01*
X130498000Y-78630000D02*
X129598000Y-78630000D01*
G75*
G02*
X129348000Y-78380000I0J250000D01*
G01*
X129348000Y-77730000D01*
G75*
G02*
X129598000Y-77480000I250000J0D01*
G01*
X130498000Y-77480000D01*
G75*
G02*
X130748000Y-77730000I0J-250000D01*
G01*
X130748000Y-78380000D01*
G75*
G02*
X130498000Y-78630000I-250000J0D01*
G01*
G37*
D15*
X175895000Y-62865000D03*
D16*
X175895000Y-65405000D03*
X175895000Y-67945000D03*
X175895000Y-70485000D03*
X175895000Y-73025000D03*
X175895000Y-75565000D03*
G36*
G01*
X144333000Y-85459000D02*
X144333000Y-85859000D01*
G75*
G02*
X144133000Y-86059000I-200000J0D01*
G01*
X142633000Y-86059000D01*
G75*
G02*
X142433000Y-85859000I0J200000D01*
G01*
X142433000Y-85459000D01*
G75*
G02*
X142633000Y-85259000I200000J0D01*
G01*
X144133000Y-85259000D01*
G75*
G02*
X144333000Y-85459000I0J-200000D01*
G01*
G37*
G36*
G01*
X144333000Y-83559000D02*
X144333000Y-83959000D01*
G75*
G02*
X144133000Y-84159000I-200000J0D01*
G01*
X142633000Y-84159000D01*
G75*
G02*
X142433000Y-83959000I0J200000D01*
G01*
X142433000Y-83559000D01*
G75*
G02*
X142633000Y-83359000I200000J0D01*
G01*
X144133000Y-83359000D01*
G75*
G02*
X144333000Y-83559000I0J-200000D01*
G01*
G37*
G36*
G01*
X141333000Y-84509000D02*
X141333000Y-84909000D01*
G75*
G02*
X141133000Y-85109000I-200000J0D01*
G01*
X139633000Y-85109000D01*
G75*
G02*
X139433000Y-84909000I0J200000D01*
G01*
X139433000Y-84509000D01*
G75*
G02*
X139633000Y-84309000I200000J0D01*
G01*
X141133000Y-84309000D01*
G75*
G02*
X141333000Y-84509000I0J-200000D01*
G01*
G37*
G36*
G01*
X154405000Y-89248000D02*
X154405000Y-88298000D01*
G75*
G02*
X154655000Y-88048000I250000J0D01*
G01*
X155330000Y-88048000D01*
G75*
G02*
X155580000Y-88298000I0J-250000D01*
G01*
X155580000Y-89248000D01*
G75*
G02*
X155330000Y-89498000I-250000J0D01*
G01*
X154655000Y-89498000D01*
G75*
G02*
X154405000Y-89248000I0J250000D01*
G01*
G37*
G36*
G01*
X156480000Y-89248000D02*
X156480000Y-88298000D01*
G75*
G02*
X156730000Y-88048000I250000J0D01*
G01*
X157405000Y-88048000D01*
G75*
G02*
X157655000Y-88298000I0J-250000D01*
G01*
X157655000Y-89248000D01*
G75*
G02*
X157405000Y-89498000I-250000J0D01*
G01*
X156730000Y-89498000D01*
G75*
G02*
X156480000Y-89248000I0J250000D01*
G01*
G37*
D15*
X133985000Y-59055000D03*
D16*
X136525000Y-59055000D03*
X139065000Y-59055000D03*
G36*
G01*
X160325000Y-62785000D02*
X160325000Y-61885000D01*
G75*
G02*
X160575000Y-61635000I250000J0D01*
G01*
X161275000Y-61635000D01*
G75*
G02*
X161525000Y-61885000I0J-250000D01*
G01*
X161525000Y-62785000D01*
G75*
G02*
X161275000Y-63035000I-250000J0D01*
G01*
X160575000Y-63035000D01*
G75*
G02*
X160325000Y-62785000I0J250000D01*
G01*
G37*
G36*
G01*
X162325000Y-62785000D02*
X162325000Y-61885000D01*
G75*
G02*
X162575000Y-61635000I250000J0D01*
G01*
X163275000Y-61635000D01*
G75*
G02*
X163525000Y-61885000I0J-250000D01*
G01*
X163525000Y-62785000D01*
G75*
G02*
X163275000Y-63035000I-250000J0D01*
G01*
X162575000Y-63035000D01*
G75*
G02*
X162325000Y-62785000I0J250000D01*
G01*
G37*
G36*
G01*
X134308000Y-69275000D02*
X133408000Y-69275000D01*
G75*
G02*
X133158000Y-69025000I0J250000D01*
G01*
X133158000Y-68325000D01*
G75*
G02*
X133408000Y-68075000I250000J0D01*
G01*
X134308000Y-68075000D01*
G75*
G02*
X134558000Y-68325000I0J-250000D01*
G01*
X134558000Y-69025000D01*
G75*
G02*
X134308000Y-69275000I-250000J0D01*
G01*
G37*
G36*
G01*
X134308000Y-67275000D02*
X133408000Y-67275000D01*
G75*
G02*
X133158000Y-67025000I0J250000D01*
G01*
X133158000Y-66325000D01*
G75*
G02*
X133408000Y-66075000I250000J0D01*
G01*
X134308000Y-66075000D01*
G75*
G02*
X134558000Y-66325000I0J-250000D01*
G01*
X134558000Y-67025000D01*
G75*
G02*
X134308000Y-67275000I-250000J0D01*
G01*
G37*
G36*
G01*
X138118000Y-80705000D02*
X137218000Y-80705000D01*
G75*
G02*
X136968000Y-80455000I0J250000D01*
G01*
X136968000Y-79755000D01*
G75*
G02*
X137218000Y-79505000I250000J0D01*
G01*
X138118000Y-79505000D01*
G75*
G02*
X138368000Y-79755000I0J-250000D01*
G01*
X138368000Y-80455000D01*
G75*
G02*
X138118000Y-80705000I-250000J0D01*
G01*
G37*
G36*
G01*
X138118000Y-78705000D02*
X137218000Y-78705000D01*
G75*
G02*
X136968000Y-78455000I0J250000D01*
G01*
X136968000Y-77755000D01*
G75*
G02*
X137218000Y-77505000I250000J0D01*
G01*
X138118000Y-77505000D01*
G75*
G02*
X138368000Y-77755000I0J-250000D01*
G01*
X138368000Y-78455000D01*
G75*
G02*
X138118000Y-78705000I-250000J0D01*
G01*
G37*
G36*
G01*
X144333000Y-79905000D02*
X144333000Y-80305000D01*
G75*
G02*
X144133000Y-80505000I-200000J0D01*
G01*
X142633000Y-80505000D01*
G75*
G02*
X142433000Y-80305000I0J200000D01*
G01*
X142433000Y-79905000D01*
G75*
G02*
X142633000Y-79705000I200000J0D01*
G01*
X144133000Y-79705000D01*
G75*
G02*
X144333000Y-79905000I0J-200000D01*
G01*
G37*
G36*
G01*
X144333000Y-78005000D02*
X144333000Y-78405000D01*
G75*
G02*
X144133000Y-78605000I-200000J0D01*
G01*
X142633000Y-78605000D01*
G75*
G02*
X142433000Y-78405000I0J200000D01*
G01*
X142433000Y-78005000D01*
G75*
G02*
X142633000Y-77805000I200000J0D01*
G01*
X144133000Y-77805000D01*
G75*
G02*
X144333000Y-78005000I0J-200000D01*
G01*
G37*
G36*
G01*
X141333000Y-78955000D02*
X141333000Y-79355000D01*
G75*
G02*
X141133000Y-79555000I-200000J0D01*
G01*
X139633000Y-79555000D01*
G75*
G02*
X139433000Y-79355000I0J200000D01*
G01*
X139433000Y-78955000D01*
G75*
G02*
X139633000Y-78755000I200000J0D01*
G01*
X141133000Y-78755000D01*
G75*
G02*
X141333000Y-78955000I0J-200000D01*
G01*
G37*
G36*
G01*
X130419000Y-86300000D02*
X129519000Y-86300000D01*
G75*
G02*
X129269000Y-86050000I0J250000D01*
G01*
X129269000Y-85400000D01*
G75*
G02*
X129519000Y-85150000I250000J0D01*
G01*
X130419000Y-85150000D01*
G75*
G02*
X130669000Y-85400000I0J-250000D01*
G01*
X130669000Y-86050000D01*
G75*
G02*
X130419000Y-86300000I-250000J0D01*
G01*
G37*
G36*
G01*
X130419000Y-84250000D02*
X129519000Y-84250000D01*
G75*
G02*
X129269000Y-84000000I0J250000D01*
G01*
X129269000Y-83350000D01*
G75*
G02*
X129519000Y-83100000I250000J0D01*
G01*
X130419000Y-83100000D01*
G75*
G02*
X130669000Y-83350000I0J-250000D01*
G01*
X130669000Y-84000000D01*
G75*
G02*
X130419000Y-84250000I-250000J0D01*
G01*
G37*
G36*
G01*
X144333000Y-74190000D02*
X144333000Y-74590000D01*
G75*
G02*
X144133000Y-74790000I-200000J0D01*
G01*
X142633000Y-74790000D01*
G75*
G02*
X142433000Y-74590000I0J200000D01*
G01*
X142433000Y-74190000D01*
G75*
G02*
X142633000Y-73990000I200000J0D01*
G01*
X144133000Y-73990000D01*
G75*
G02*
X144333000Y-74190000I0J-200000D01*
G01*
G37*
G36*
G01*
X144333000Y-72290000D02*
X144333000Y-72690000D01*
G75*
G02*
X144133000Y-72890000I-200000J0D01*
G01*
X142633000Y-72890000D01*
G75*
G02*
X142433000Y-72690000I0J200000D01*
G01*
X142433000Y-72290000D01*
G75*
G02*
X142633000Y-72090000I200000J0D01*
G01*
X144133000Y-72090000D01*
G75*
G02*
X144333000Y-72290000I0J-200000D01*
G01*
G37*
G36*
G01*
X141333000Y-73240000D02*
X141333000Y-73640000D01*
G75*
G02*
X141133000Y-73840000I-200000J0D01*
G01*
X139633000Y-73840000D01*
G75*
G02*
X139433000Y-73640000I0J200000D01*
G01*
X139433000Y-73240000D01*
G75*
G02*
X139633000Y-73040000I200000J0D01*
G01*
X141133000Y-73040000D01*
G75*
G02*
X141333000Y-73240000I0J-200000D01*
G01*
G37*
G36*
G01*
X134229000Y-86325000D02*
X133329000Y-86325000D01*
G75*
G02*
X133079000Y-86075000I0J250000D01*
G01*
X133079000Y-85375000D01*
G75*
G02*
X133329000Y-85125000I250000J0D01*
G01*
X134229000Y-85125000D01*
G75*
G02*
X134479000Y-85375000I0J-250000D01*
G01*
X134479000Y-86075000D01*
G75*
G02*
X134229000Y-86325000I-250000J0D01*
G01*
G37*
G36*
G01*
X134229000Y-84325000D02*
X133329000Y-84325000D01*
G75*
G02*
X133079000Y-84075000I0J250000D01*
G01*
X133079000Y-83375000D01*
G75*
G02*
X133329000Y-83125000I250000J0D01*
G01*
X134229000Y-83125000D01*
G75*
G02*
X134479000Y-83375000I0J-250000D01*
G01*
X134479000Y-84075000D01*
G75*
G02*
X134229000Y-84325000I-250000J0D01*
G01*
G37*
G36*
G01*
X128509000Y-90660000D02*
X129809000Y-90660000D01*
G75*
G02*
X130059000Y-90910000I0J-250000D01*
G01*
X130059000Y-91735000D01*
G75*
G02*
X129809000Y-91985000I-250000J0D01*
G01*
X128509000Y-91985000D01*
G75*
G02*
X128259000Y-91735000I0J250000D01*
G01*
X128259000Y-90910000D01*
G75*
G02*
X128509000Y-90660000I250000J0D01*
G01*
G37*
G36*
G01*
X128509000Y-93785000D02*
X129809000Y-93785000D01*
G75*
G02*
X130059000Y-94035000I0J-250000D01*
G01*
X130059000Y-94860000D01*
G75*
G02*
X129809000Y-95110000I-250000J0D01*
G01*
X128509000Y-95110000D01*
G75*
G02*
X128259000Y-94860000I0J250000D01*
G01*
X128259000Y-94035000D01*
G75*
G02*
X128509000Y-93785000I250000J0D01*
G01*
G37*
G36*
G01*
X144333000Y-68475000D02*
X144333000Y-68875000D01*
G75*
G02*
X144133000Y-69075000I-200000J0D01*
G01*
X142633000Y-69075000D01*
G75*
G02*
X142433000Y-68875000I0J200000D01*
G01*
X142433000Y-68475000D01*
G75*
G02*
X142633000Y-68275000I200000J0D01*
G01*
X144133000Y-68275000D01*
G75*
G02*
X144333000Y-68475000I0J-200000D01*
G01*
G37*
G36*
G01*
X144333000Y-66575000D02*
X144333000Y-66975000D01*
G75*
G02*
X144133000Y-67175000I-200000J0D01*
G01*
X142633000Y-67175000D01*
G75*
G02*
X142433000Y-66975000I0J200000D01*
G01*
X142433000Y-66575000D01*
G75*
G02*
X142633000Y-66375000I200000J0D01*
G01*
X144133000Y-66375000D01*
G75*
G02*
X144333000Y-66575000I0J-200000D01*
G01*
G37*
G36*
G01*
X141333000Y-67525000D02*
X141333000Y-67925000D01*
G75*
G02*
X141133000Y-68125000I-200000J0D01*
G01*
X139633000Y-68125000D01*
G75*
G02*
X139433000Y-67925000I0J200000D01*
G01*
X139433000Y-67525000D01*
G75*
G02*
X139633000Y-67325000I200000J0D01*
G01*
X141133000Y-67325000D01*
G75*
G02*
X141333000Y-67525000I0J-200000D01*
G01*
G37*
D17*
X156780000Y-76135000D03*
X156780000Y-76935000D03*
X156780000Y-77735000D03*
X156780000Y-78535000D03*
X156780000Y-79335000D03*
X156780000Y-80135000D03*
X156780000Y-80935000D03*
X156780000Y-81735000D03*
D18*
X158230000Y-83185000D03*
X159030000Y-83185000D03*
X159830000Y-83185000D03*
X160630000Y-83185000D03*
X161430000Y-83185000D03*
X162230000Y-83185000D03*
X163030000Y-83185000D03*
X163830000Y-83185000D03*
D17*
X165280000Y-81735000D03*
X165280000Y-80935000D03*
X165280000Y-80135000D03*
X165280000Y-79335000D03*
X165280000Y-78535000D03*
X165280000Y-77735000D03*
X165280000Y-76935000D03*
X165280000Y-76135000D03*
D18*
X163830000Y-74685000D03*
X163030000Y-74685000D03*
X162230000Y-74685000D03*
X161430000Y-74685000D03*
X160630000Y-74685000D03*
X159830000Y-74685000D03*
X159030000Y-74685000D03*
X158230000Y-74685000D03*
G36*
G01*
X137045000Y-95565000D02*
X136645000Y-95565000D01*
G75*
G02*
X136445000Y-95365000I0J200000D01*
G01*
X136445000Y-93865000D01*
G75*
G02*
X136645000Y-93665000I200000J0D01*
G01*
X137045000Y-93665000D01*
G75*
G02*
X137245000Y-93865000I0J-200000D01*
G01*
X137245000Y-95365000D01*
G75*
G02*
X137045000Y-95565000I-200000J0D01*
G01*
G37*
G36*
G01*
X138945000Y-95565000D02*
X138545000Y-95565000D01*
G75*
G02*
X138345000Y-95365000I0J200000D01*
G01*
X138345000Y-93865000D01*
G75*
G02*
X138545000Y-93665000I200000J0D01*
G01*
X138945000Y-93665000D01*
G75*
G02*
X139145000Y-93865000I0J-200000D01*
G01*
X139145000Y-95365000D01*
G75*
G02*
X138945000Y-95565000I-200000J0D01*
G01*
G37*
G36*
G01*
X137995000Y-92565000D02*
X137595000Y-92565000D01*
G75*
G02*
X137395000Y-92365000I0J200000D01*
G01*
X137395000Y-90865000D01*
G75*
G02*
X137595000Y-90665000I200000J0D01*
G01*
X137995000Y-90665000D01*
G75*
G02*
X138195000Y-90865000I0J-200000D01*
G01*
X138195000Y-92365000D01*
G75*
G02*
X137995000Y-92565000I-200000J0D01*
G01*
G37*
G36*
G01*
X138118000Y-74990000D02*
X137218000Y-74990000D01*
G75*
G02*
X136968000Y-74740000I0J250000D01*
G01*
X136968000Y-74040000D01*
G75*
G02*
X137218000Y-73790000I250000J0D01*
G01*
X138118000Y-73790000D01*
G75*
G02*
X138368000Y-74040000I0J-250000D01*
G01*
X138368000Y-74740000D01*
G75*
G02*
X138118000Y-74990000I-250000J0D01*
G01*
G37*
G36*
G01*
X138118000Y-72990000D02*
X137218000Y-72990000D01*
G75*
G02*
X136968000Y-72740000I0J250000D01*
G01*
X136968000Y-72040000D01*
G75*
G02*
X137218000Y-71790000I250000J0D01*
G01*
X138118000Y-71790000D01*
G75*
G02*
X138368000Y-72040000I0J-250000D01*
G01*
X138368000Y-72740000D01*
G75*
G02*
X138118000Y-72990000I-250000J0D01*
G01*
G37*
G36*
G01*
X156773000Y-67525000D02*
X156773000Y-65825000D01*
G75*
G02*
X156875000Y-65723000I102000J0D01*
G01*
X158075000Y-65723000D01*
G75*
G02*
X158177000Y-65825000I0J-102000D01*
G01*
X158177000Y-67525000D01*
G75*
G02*
X158075000Y-67627000I-102000J0D01*
G01*
X156875000Y-67627000D01*
G75*
G02*
X156773000Y-67525000I0J102000D01*
G01*
G37*
G36*
G01*
X152973000Y-67525000D02*
X152973000Y-65825000D01*
G75*
G02*
X153075000Y-65723000I102000J0D01*
G01*
X154275000Y-65723000D01*
G75*
G02*
X154377000Y-65825000I0J-102000D01*
G01*
X154377000Y-67525000D01*
G75*
G02*
X154275000Y-67627000I-102000J0D01*
G01*
X153075000Y-67627000D01*
G75*
G02*
X152973000Y-67525000I0J102000D01*
G01*
G37*
G36*
G01*
X155073000Y-69175000D02*
X155073000Y-67775000D01*
G75*
G02*
X155175000Y-67673000I102000J0D01*
G01*
X155975000Y-67673000D01*
G75*
G02*
X156077000Y-67775000I0J-102000D01*
G01*
X156077000Y-69175000D01*
G75*
G02*
X155975000Y-69277000I-102000J0D01*
G01*
X155175000Y-69277000D01*
G75*
G02*
X155073000Y-69175000I0J102000D01*
G01*
G37*
G36*
G01*
X138118000Y-69275000D02*
X137218000Y-69275000D01*
G75*
G02*
X136968000Y-69025000I0J250000D01*
G01*
X136968000Y-68325000D01*
G75*
G02*
X137218000Y-68075000I250000J0D01*
G01*
X138118000Y-68075000D01*
G75*
G02*
X138368000Y-68325000I0J-250000D01*
G01*
X138368000Y-69025000D01*
G75*
G02*
X138118000Y-69275000I-250000J0D01*
G01*
G37*
G36*
G01*
X138118000Y-67275000D02*
X137218000Y-67275000D01*
G75*
G02*
X136968000Y-67025000I0J250000D01*
G01*
X136968000Y-66325000D01*
G75*
G02*
X137218000Y-66075000I250000J0D01*
G01*
X138118000Y-66075000D01*
G75*
G02*
X138368000Y-66325000I0J-250000D01*
G01*
X138368000Y-67025000D01*
G75*
G02*
X138118000Y-67275000I-250000J0D01*
G01*
G37*
D15*
X145415000Y-59055000D03*
D16*
X147955000Y-59055000D03*
X150495000Y-59055000D03*
G36*
G01*
X132319000Y-90660000D02*
X133619000Y-90660000D01*
G75*
G02*
X133869000Y-90910000I0J-250000D01*
G01*
X133869000Y-91735000D01*
G75*
G02*
X133619000Y-91985000I-250000J0D01*
G01*
X132319000Y-91985000D01*
G75*
G02*
X132069000Y-91735000I0J250000D01*
G01*
X132069000Y-90910000D01*
G75*
G02*
X132319000Y-90660000I250000J0D01*
G01*
G37*
G36*
G01*
X132319000Y-93785000D02*
X133619000Y-93785000D01*
G75*
G02*
X133869000Y-94035000I0J-250000D01*
G01*
X133869000Y-94860000D01*
G75*
G02*
X133619000Y-95110000I-250000J0D01*
G01*
X132319000Y-95110000D01*
G75*
G02*
X132069000Y-94860000I0J250000D01*
G01*
X132069000Y-94035000D01*
G75*
G02*
X132319000Y-93785000I250000J0D01*
G01*
G37*
G36*
G01*
X142890000Y-95110000D02*
X141590000Y-95110000D01*
G75*
G02*
X141340000Y-94860000I0J250000D01*
G01*
X141340000Y-94035000D01*
G75*
G02*
X141590000Y-93785000I250000J0D01*
G01*
X142890000Y-93785000D01*
G75*
G02*
X143140000Y-94035000I0J-250000D01*
G01*
X143140000Y-94860000D01*
G75*
G02*
X142890000Y-95110000I-250000J0D01*
G01*
G37*
G36*
G01*
X142890000Y-91985000D02*
X141590000Y-91985000D01*
G75*
G02*
X141340000Y-91735000I0J250000D01*
G01*
X141340000Y-90910000D01*
G75*
G02*
X141590000Y-90660000I250000J0D01*
G01*
X142890000Y-90660000D01*
G75*
G02*
X143140000Y-90910000I0J-250000D01*
G01*
X143140000Y-91735000D01*
G75*
G02*
X142890000Y-91985000I-250000J0D01*
G01*
G37*
D19*
X116205000Y-85725000D03*
D20*
X116205000Y-83185000D03*
X116205000Y-80645000D03*
X116205000Y-78105000D03*
X116205000Y-75565000D03*
X116205000Y-73025000D03*
X116205000Y-70485000D03*
X116205000Y-67945000D03*
G36*
G01*
X130498000Y-74965000D02*
X129598000Y-74965000D01*
G75*
G02*
X129348000Y-74715000I0J250000D01*
G01*
X129348000Y-74065000D01*
G75*
G02*
X129598000Y-73815000I250000J0D01*
G01*
X130498000Y-73815000D01*
G75*
G02*
X130748000Y-74065000I0J-250000D01*
G01*
X130748000Y-74715000D01*
G75*
G02*
X130498000Y-74965000I-250000J0D01*
G01*
G37*
G36*
G01*
X130498000Y-72915000D02*
X129598000Y-72915000D01*
G75*
G02*
X129348000Y-72665000I0J250000D01*
G01*
X129348000Y-72015000D01*
G75*
G02*
X129598000Y-71765000I250000J0D01*
G01*
X130498000Y-71765000D01*
G75*
G02*
X130748000Y-72015000I0J-250000D01*
G01*
X130748000Y-72665000D01*
G75*
G02*
X130498000Y-72915000I-250000J0D01*
G01*
G37*
G36*
G01*
X125679000Y-87815000D02*
X125679000Y-88715000D01*
G75*
G02*
X125429000Y-88965000I-250000J0D01*
G01*
X124779000Y-88965000D01*
G75*
G02*
X124529000Y-88715000I0J250000D01*
G01*
X124529000Y-87815000D01*
G75*
G02*
X124779000Y-87565000I250000J0D01*
G01*
X125429000Y-87565000D01*
G75*
G02*
X125679000Y-87815000I0J-250000D01*
G01*
G37*
G36*
G01*
X123629000Y-87815000D02*
X123629000Y-88715000D01*
G75*
G02*
X123379000Y-88965000I-250000J0D01*
G01*
X122729000Y-88965000D01*
G75*
G02*
X122479000Y-88715000I0J250000D01*
G01*
X122479000Y-87815000D01*
G75*
G02*
X122729000Y-87565000I250000J0D01*
G01*
X123379000Y-87565000D01*
G75*
G02*
X123629000Y-87815000I0J-250000D01*
G01*
G37*
D19*
X156845000Y-52705000D03*
D20*
X159385000Y-52705000D03*
G36*
G01*
X157440000Y-61885000D02*
X157440000Y-62785000D01*
G75*
G02*
X157190000Y-63035000I-250000J0D01*
G01*
X156490000Y-63035000D01*
G75*
G02*
X156240000Y-62785000I0J250000D01*
G01*
X156240000Y-61885000D01*
G75*
G02*
X156490000Y-61635000I250000J0D01*
G01*
X157190000Y-61635000D01*
G75*
G02*
X157440000Y-61885000I0J-250000D01*
G01*
G37*
G36*
G01*
X155440000Y-61885000D02*
X155440000Y-62785000D01*
G75*
G02*
X155190000Y-63035000I-250000J0D01*
G01*
X154490000Y-63035000D01*
G75*
G02*
X154240000Y-62785000I0J250000D01*
G01*
X154240000Y-61885000D01*
G75*
G02*
X154490000Y-61635000I250000J0D01*
G01*
X155190000Y-61635000D01*
G75*
G02*
X155440000Y-61885000I0J-250000D01*
G01*
G37*
G36*
G01*
X134308000Y-80705000D02*
X133408000Y-80705000D01*
G75*
G02*
X133158000Y-80455000I0J250000D01*
G01*
X133158000Y-79755000D01*
G75*
G02*
X133408000Y-79505000I250000J0D01*
G01*
X134308000Y-79505000D01*
G75*
G02*
X134558000Y-79755000I0J-250000D01*
G01*
X134558000Y-80455000D01*
G75*
G02*
X134308000Y-80705000I-250000J0D01*
G01*
G37*
G36*
G01*
X134308000Y-78705000D02*
X133408000Y-78705000D01*
G75*
G02*
X133158000Y-78455000I0J250000D01*
G01*
X133158000Y-77755000D01*
G75*
G02*
X133408000Y-77505000I250000J0D01*
G01*
X134308000Y-77505000D01*
G75*
G02*
X134558000Y-77755000I0J-250000D01*
G01*
X134558000Y-78455000D01*
G75*
G02*
X134308000Y-78705000I-250000J0D01*
G01*
G37*
G36*
G01*
X165950000Y-65477000D02*
X164250000Y-65477000D01*
G75*
G02*
X164148000Y-65375000I0J102000D01*
G01*
X164148000Y-64175000D01*
G75*
G02*
X164250000Y-64073000I102000J0D01*
G01*
X165950000Y-64073000D01*
G75*
G02*
X166052000Y-64175000I0J-102000D01*
G01*
X166052000Y-65375000D01*
G75*
G02*
X165950000Y-65477000I-102000J0D01*
G01*
G37*
G36*
G01*
X165950000Y-69277000D02*
X164250000Y-69277000D01*
G75*
G02*
X164148000Y-69175000I0J102000D01*
G01*
X164148000Y-67975000D01*
G75*
G02*
X164250000Y-67873000I102000J0D01*
G01*
X165950000Y-67873000D01*
G75*
G02*
X166052000Y-67975000I0J-102000D01*
G01*
X166052000Y-69175000D01*
G75*
G02*
X165950000Y-69277000I-102000J0D01*
G01*
G37*
G36*
G01*
X167600000Y-67177000D02*
X166200000Y-67177000D01*
G75*
G02*
X166098000Y-67075000I0J102000D01*
G01*
X166098000Y-66275000D01*
G75*
G02*
X166200000Y-66173000I102000J0D01*
G01*
X167600000Y-66173000D01*
G75*
G02*
X167702000Y-66275000I0J-102000D01*
G01*
X167702000Y-67075000D01*
G75*
G02*
X167600000Y-67177000I-102000J0D01*
G01*
G37*
D21*
X117475000Y-92075000D03*
G36*
G01*
X130498000Y-69250000D02*
X129598000Y-69250000D01*
G75*
G02*
X129348000Y-69000000I0J250000D01*
G01*
X129348000Y-68350000D01*
G75*
G02*
X129598000Y-68100000I250000J0D01*
G01*
X130498000Y-68100000D01*
G75*
G02*
X130748000Y-68350000I0J-250000D01*
G01*
X130748000Y-69000000D01*
G75*
G02*
X130498000Y-69250000I-250000J0D01*
G01*
G37*
G36*
G01*
X130498000Y-67200000D02*
X129598000Y-67200000D01*
G75*
G02*
X129348000Y-66950000I0J250000D01*
G01*
X129348000Y-66300000D01*
G75*
G02*
X129598000Y-66050000I250000J0D01*
G01*
X130498000Y-66050000D01*
G75*
G02*
X130748000Y-66300000I0J-250000D01*
G01*
X130748000Y-66950000D01*
G75*
G02*
X130498000Y-67200000I-250000J0D01*
G01*
G37*
D22*
X154717500Y-93345000D03*
X166592500Y-93345000D03*
D23*
X114935000Y-61595000D03*
X117475000Y-61595000D03*
X120015000Y-61595000D03*
X114935000Y-59055000D03*
X120015000Y-59055000D03*
G36*
G01*
X129695000Y-63615000D02*
X129695000Y-64015000D01*
G75*
G02*
X129495000Y-64215000I-200000J0D01*
G01*
X127995000Y-64215000D01*
G75*
G02*
X127795000Y-64015000I0J200000D01*
G01*
X127795000Y-63615000D01*
G75*
G02*
X127995000Y-63415000I200000J0D01*
G01*
X129495000Y-63415000D01*
G75*
G02*
X129695000Y-63615000I0J-200000D01*
G01*
G37*
G36*
G01*
X129695000Y-61715000D02*
X129695000Y-62115000D01*
G75*
G02*
X129495000Y-62315000I-200000J0D01*
G01*
X127995000Y-62315000D01*
G75*
G02*
X127795000Y-62115000I0J200000D01*
G01*
X127795000Y-61715000D01*
G75*
G02*
X127995000Y-61515000I200000J0D01*
G01*
X129495000Y-61515000D01*
G75*
G02*
X129695000Y-61715000I0J-200000D01*
G01*
G37*
G36*
G01*
X126695000Y-62665000D02*
X126695000Y-63065000D01*
G75*
G02*
X126495000Y-63265000I-200000J0D01*
G01*
X124995000Y-63265000D01*
G75*
G02*
X124795000Y-63065000I0J200000D01*
G01*
X124795000Y-62665000D01*
G75*
G02*
X124995000Y-62465000I200000J0D01*
G01*
X126495000Y-62465000D01*
G75*
G02*
X126695000Y-62665000I0J-200000D01*
G01*
G37*
D21*
X180975000Y-53975000D03*
G36*
G01*
X177585000Y-86325000D02*
X177585000Y-85125000D01*
G75*
G02*
X177835000Y-84875000I250000J0D01*
G01*
X179035000Y-84875000D01*
G75*
G02*
X179285000Y-85125000I0J-250000D01*
G01*
X179285000Y-86325000D01*
G75*
G02*
X179035000Y-86575000I-250000J0D01*
G01*
X177835000Y-86575000D01*
G75*
G02*
X177585000Y-86325000I0J250000D01*
G01*
G37*
D24*
X180975000Y-85725000D03*
X178435000Y-88265000D03*
X180975000Y-88265000D03*
X178435000Y-90805000D03*
X180975000Y-90805000D03*
G36*
G01*
X134308000Y-74990000D02*
X133408000Y-74990000D01*
G75*
G02*
X133158000Y-74740000I0J250000D01*
G01*
X133158000Y-74040000D01*
G75*
G02*
X133408000Y-73790000I250000J0D01*
G01*
X134308000Y-73790000D01*
G75*
G02*
X134558000Y-74040000I0J-250000D01*
G01*
X134558000Y-74740000D01*
G75*
G02*
X134308000Y-74990000I-250000J0D01*
G01*
G37*
G36*
G01*
X134308000Y-72990000D02*
X133408000Y-72990000D01*
G75*
G02*
X133158000Y-72740000I0J250000D01*
G01*
X133158000Y-72040000D01*
G75*
G02*
X133408000Y-71790000I250000J0D01*
G01*
X134308000Y-71790000D01*
G75*
G02*
X134558000Y-72040000I0J-250000D01*
G01*
X134558000Y-72740000D01*
G75*
G02*
X134308000Y-72990000I-250000J0D01*
G01*
G37*
G36*
G01*
X138039000Y-86325000D02*
X137139000Y-86325000D01*
G75*
G02*
X136889000Y-86075000I0J250000D01*
G01*
X136889000Y-85375000D01*
G75*
G02*
X137139000Y-85125000I250000J0D01*
G01*
X138039000Y-85125000D01*
G75*
G02*
X138289000Y-85375000I0J-250000D01*
G01*
X138289000Y-86075000D01*
G75*
G02*
X138039000Y-86325000I-250000J0D01*
G01*
G37*
G36*
G01*
X138039000Y-84325000D02*
X137139000Y-84325000D01*
G75*
G02*
X136889000Y-84075000I0J250000D01*
G01*
X136889000Y-83375000D01*
G75*
G02*
X137139000Y-83125000I250000J0D01*
G01*
X138039000Y-83125000D01*
G75*
G02*
X138289000Y-83375000I0J-250000D01*
G01*
X138289000Y-84075000D01*
G75*
G02*
X138039000Y-84325000I-250000J0D01*
G01*
G37*
G36*
G01*
X146500000Y-95120000D02*
X145600000Y-95120000D01*
G75*
G02*
X145350000Y-94870000I0J250000D01*
G01*
X145350000Y-94170000D01*
G75*
G02*
X145600000Y-93920000I250000J0D01*
G01*
X146500000Y-93920000D01*
G75*
G02*
X146750000Y-94170000I0J-250000D01*
G01*
X146750000Y-94870000D01*
G75*
G02*
X146500000Y-95120000I-250000J0D01*
G01*
G37*
G36*
G01*
X146500000Y-93120000D02*
X145600000Y-93120000D01*
G75*
G02*
X145350000Y-92870000I0J250000D01*
G01*
X145350000Y-92170000D01*
G75*
G02*
X145600000Y-91920000I250000J0D01*
G01*
X146500000Y-91920000D01*
G75*
G02*
X146750000Y-92170000I0J-250000D01*
G01*
X146750000Y-92870000D01*
G75*
G02*
X146500000Y-93120000I-250000J0D01*
G01*
G37*
D19*
X125095000Y-52705000D03*
D20*
X127635000Y-52705000D03*
D19*
X116205000Y-53975000D03*
D20*
X116205000Y-51435000D03*
G36*
G01*
X128210000Y-57970000D02*
X128210000Y-58870000D01*
G75*
G02*
X127960000Y-59120000I-250000J0D01*
G01*
X127310000Y-59120000D01*
G75*
G02*
X127060000Y-58870000I0J250000D01*
G01*
X127060000Y-57970000D01*
G75*
G02*
X127310000Y-57720000I250000J0D01*
G01*
X127960000Y-57720000D01*
G75*
G02*
X128210000Y-57970000I0J-250000D01*
G01*
G37*
G36*
G01*
X126160000Y-57970000D02*
X126160000Y-58870000D01*
G75*
G02*
X125910000Y-59120000I-250000J0D01*
G01*
X125260000Y-59120000D01*
G75*
G02*
X125010000Y-58870000I0J250000D01*
G01*
X125010000Y-57970000D01*
G75*
G02*
X125260000Y-57720000I250000J0D01*
G01*
X125910000Y-57720000D01*
G75*
G02*
X126160000Y-57970000I0J-250000D01*
G01*
G37*
D19*
X165735000Y-52705000D03*
D20*
X168275000Y-52705000D03*
X170815000Y-52705000D03*
X173355000Y-52705000D03*
%LPD*%
M02*
