G04 #@! TF.GenerationSoftware,KiCad,Pcbnew,8.0.9-8.0.9-0~ubuntu22.04.1*
G04 #@! TF.CreationDate,2025-03-10T17:04:52-04:00*
G04 #@! TF.ProjectId,sfx-202502,7366782d-3230-4323-9530-322e6b696361,rev?*
G04 #@! TF.SameCoordinates,Original*
G04 #@! TF.FileFunction,Copper,L1,Top*
G04 #@! TF.FilePolarity,Positive*
%FSLAX46Y46*%
G04 Gerber Fmt 4.6, Leading zero omitted, Abs format (unit mm)*
G04 Created by KiCad (PCBNEW 8.0.9-8.0.9-0~ubuntu22.04.1) date 2025-03-10 17:04:52*
%MOMM*%
%LPD*%
G01*
G04 APERTURE LIST*
G04 #@! TA.AperFunction,EtchedComponent*
%ADD10C,0.000000*%
G04 #@! TD*
G04 #@! TA.AperFunction,SMDPad,CuDef*
%ADD11C,0.500000*%
G04 #@! TD*
G04 #@! TA.AperFunction,ComponentPad*
%ADD12R,1.700000X1.700000*%
G04 #@! TD*
G04 #@! TA.AperFunction,ComponentPad*
%ADD13O,1.700000X1.700000*%
G04 #@! TD*
G04 #@! TA.AperFunction,SMDPad,CuDef*
%ADD14R,1.600000X0.550000*%
G04 #@! TD*
G04 #@! TA.AperFunction,SMDPad,CuDef*
%ADD15R,0.550000X1.600000*%
G04 #@! TD*
G04 #@! TA.AperFunction,SMDPad,CuDef*
%ADD16R,1.200000X1.700000*%
G04 #@! TD*
G04 #@! TA.AperFunction,SMDPad,CuDef*
%ADD17R,0.800000X1.400000*%
G04 #@! TD*
G04 #@! TA.AperFunction,ComponentPad*
%ADD18R,2.100000X2.100000*%
G04 #@! TD*
G04 #@! TA.AperFunction,ComponentPad*
%ADD19C,2.100000*%
G04 #@! TD*
G04 #@! TA.AperFunction,SMDPad,CuDef*
%ADD20R,1.700000X1.200000*%
G04 #@! TD*
G04 #@! TA.AperFunction,SMDPad,CuDef*
%ADD21R,1.400000X0.800000*%
G04 #@! TD*
G04 #@! TA.AperFunction,SMDPad,CuDef*
%ADD22R,7.875000X2.000000*%
G04 #@! TD*
G04 #@! TA.AperFunction,ComponentPad*
%ADD23C,1.778000*%
G04 #@! TD*
G04 #@! TA.AperFunction,ComponentPad*
%ADD24C,1.700000*%
G04 #@! TD*
G04 #@! TA.AperFunction,ViaPad*
%ADD25C,1.270000*%
G04 #@! TD*
G04 #@! TA.AperFunction,Conductor*
%ADD26C,0.508000*%
G04 #@! TD*
G04 #@! TA.AperFunction,Conductor*
%ADD27C,1.270000*%
G04 #@! TD*
G04 APERTURE END LIST*
D10*
G04 #@! TA.AperFunction,EtchedComponent*
G36*
X174363000Y-75815000D02*
G01*
X173363000Y-75815000D01*
X173363000Y-75315000D01*
X174363000Y-75315000D01*
X174363000Y-75815000D01*
G37*
G04 #@! TD.AperFunction*
G04 #@! TA.AperFunction,EtchedComponent*
G36*
X172585000Y-63115000D02*
G01*
X171585000Y-63115000D01*
X171585000Y-62615000D01*
X172585000Y-62615000D01*
X172585000Y-63115000D01*
G37*
G04 #@! TD.AperFunction*
G04 #@! TA.AperFunction,EtchedComponent*
G36*
X173093000Y-73275000D02*
G01*
X172093000Y-73275000D01*
X172093000Y-72775000D01*
X173093000Y-72775000D01*
X173093000Y-73275000D01*
G37*
G04 #@! TD.AperFunction*
G04 #@! TA.AperFunction,EtchedComponent*
G36*
X173093000Y-70735000D02*
G01*
X172093000Y-70735000D01*
X172093000Y-70235000D01*
X173093000Y-70235000D01*
X173093000Y-70735000D01*
G37*
G04 #@! TD.AperFunction*
D11*
X173363000Y-75565000D03*
X174363000Y-75565000D03*
G04 #@! TA.AperFunction,SMDPad,CuDef*
G36*
G01*
X124899000Y-90983000D02*
X125799000Y-90983000D01*
G75*
G02*
X126049000Y-91233000I0J-250000D01*
G01*
X126049000Y-91933000D01*
G75*
G02*
X125799000Y-92183000I-250000J0D01*
G01*
X124899000Y-92183000D01*
G75*
G02*
X124649000Y-91933000I0J250000D01*
G01*
X124649000Y-91233000D01*
G75*
G02*
X124899000Y-90983000I250000J0D01*
G01*
G37*
G04 #@! TD.AperFunction*
G04 #@! TA.AperFunction,SMDPad,CuDef*
G36*
G01*
X124899000Y-92983000D02*
X125799000Y-92983000D01*
G75*
G02*
X126049000Y-93233000I0J-250000D01*
G01*
X126049000Y-93933000D01*
G75*
G02*
X125799000Y-94183000I-250000J0D01*
G01*
X124899000Y-94183000D01*
G75*
G02*
X124649000Y-93933000I0J250000D01*
G01*
X124649000Y-93233000D01*
G75*
G02*
X124899000Y-92983000I250000J0D01*
G01*
G37*
G04 #@! TD.AperFunction*
G04 #@! TA.AperFunction,SMDPad,CuDef*
G36*
G01*
X166090000Y-88298000D02*
X166090000Y-89248000D01*
G75*
G02*
X165840000Y-89498000I-250000J0D01*
G01*
X165165000Y-89498000D01*
G75*
G02*
X164915000Y-89248000I0J250000D01*
G01*
X164915000Y-88298000D01*
G75*
G02*
X165165000Y-88048000I250000J0D01*
G01*
X165840000Y-88048000D01*
G75*
G02*
X166090000Y-88298000I0J-250000D01*
G01*
G37*
G04 #@! TD.AperFunction*
G04 #@! TA.AperFunction,SMDPad,CuDef*
G36*
G01*
X164015000Y-88298000D02*
X164015000Y-89248000D01*
G75*
G02*
X163765000Y-89498000I-250000J0D01*
G01*
X163090000Y-89498000D01*
G75*
G02*
X162840000Y-89248000I0J250000D01*
G01*
X162840000Y-88298000D01*
G75*
G02*
X163090000Y-88048000I250000J0D01*
G01*
X163765000Y-88048000D01*
G75*
G02*
X164015000Y-88298000I0J-250000D01*
G01*
G37*
G04 #@! TD.AperFunction*
X171585000Y-62865000D03*
X172585000Y-62865000D03*
G04 #@! TA.AperFunction,SMDPad,CuDef*
G36*
G01*
X130498000Y-80680000D02*
X129598000Y-80680000D01*
G75*
G02*
X129348000Y-80430000I0J250000D01*
G01*
X129348000Y-79780000D01*
G75*
G02*
X129598000Y-79530000I250000J0D01*
G01*
X130498000Y-79530000D01*
G75*
G02*
X130748000Y-79780000I0J-250000D01*
G01*
X130748000Y-80430000D01*
G75*
G02*
X130498000Y-80680000I-250000J0D01*
G01*
G37*
G04 #@! TD.AperFunction*
G04 #@! TA.AperFunction,SMDPad,CuDef*
G36*
G01*
X130498000Y-78630000D02*
X129598000Y-78630000D01*
G75*
G02*
X129348000Y-78380000I0J250000D01*
G01*
X129348000Y-77730000D01*
G75*
G02*
X129598000Y-77480000I250000J0D01*
G01*
X130498000Y-77480000D01*
G75*
G02*
X130748000Y-77730000I0J-250000D01*
G01*
X130748000Y-78380000D01*
G75*
G02*
X130498000Y-78630000I-250000J0D01*
G01*
G37*
G04 #@! TD.AperFunction*
D12*
X175895000Y-62865000D03*
D13*
X175895000Y-65405000D03*
X175895000Y-67945000D03*
X175895000Y-70485000D03*
X175895000Y-73025000D03*
X175895000Y-75565000D03*
G04 #@! TA.AperFunction,SMDPad,CuDef*
G36*
G01*
X144333000Y-85459000D02*
X144333000Y-85859000D01*
G75*
G02*
X144133000Y-86059000I-200000J0D01*
G01*
X142633000Y-86059000D01*
G75*
G02*
X142433000Y-85859000I0J200000D01*
G01*
X142433000Y-85459000D01*
G75*
G02*
X142633000Y-85259000I200000J0D01*
G01*
X144133000Y-85259000D01*
G75*
G02*
X144333000Y-85459000I0J-200000D01*
G01*
G37*
G04 #@! TD.AperFunction*
G04 #@! TA.AperFunction,SMDPad,CuDef*
G36*
G01*
X144333000Y-83559000D02*
X144333000Y-83959000D01*
G75*
G02*
X144133000Y-84159000I-200000J0D01*
G01*
X142633000Y-84159000D01*
G75*
G02*
X142433000Y-83959000I0J200000D01*
G01*
X142433000Y-83559000D01*
G75*
G02*
X142633000Y-83359000I200000J0D01*
G01*
X144133000Y-83359000D01*
G75*
G02*
X144333000Y-83559000I0J-200000D01*
G01*
G37*
G04 #@! TD.AperFunction*
G04 #@! TA.AperFunction,SMDPad,CuDef*
G36*
G01*
X141333000Y-84509000D02*
X141333000Y-84909000D01*
G75*
G02*
X141133000Y-85109000I-200000J0D01*
G01*
X139633000Y-85109000D01*
G75*
G02*
X139433000Y-84909000I0J200000D01*
G01*
X139433000Y-84509000D01*
G75*
G02*
X139633000Y-84309000I200000J0D01*
G01*
X141133000Y-84309000D01*
G75*
G02*
X141333000Y-84509000I0J-200000D01*
G01*
G37*
G04 #@! TD.AperFunction*
G04 #@! TA.AperFunction,SMDPad,CuDef*
G36*
G01*
X154405000Y-89248000D02*
X154405000Y-88298000D01*
G75*
G02*
X154655000Y-88048000I250000J0D01*
G01*
X155330000Y-88048000D01*
G75*
G02*
X155580000Y-88298000I0J-250000D01*
G01*
X155580000Y-89248000D01*
G75*
G02*
X155330000Y-89498000I-250000J0D01*
G01*
X154655000Y-89498000D01*
G75*
G02*
X154405000Y-89248000I0J250000D01*
G01*
G37*
G04 #@! TD.AperFunction*
G04 #@! TA.AperFunction,SMDPad,CuDef*
G36*
G01*
X156480000Y-89248000D02*
X156480000Y-88298000D01*
G75*
G02*
X156730000Y-88048000I250000J0D01*
G01*
X157405000Y-88048000D01*
G75*
G02*
X157655000Y-88298000I0J-250000D01*
G01*
X157655000Y-89248000D01*
G75*
G02*
X157405000Y-89498000I-250000J0D01*
G01*
X156730000Y-89498000D01*
G75*
G02*
X156480000Y-89248000I0J250000D01*
G01*
G37*
G04 #@! TD.AperFunction*
D12*
X133985000Y-59055000D03*
D13*
X136525000Y-59055000D03*
X139065000Y-59055000D03*
G04 #@! TA.AperFunction,SMDPad,CuDef*
G36*
G01*
X160325000Y-62785000D02*
X160325000Y-61885000D01*
G75*
G02*
X160575000Y-61635000I250000J0D01*
G01*
X161275000Y-61635000D01*
G75*
G02*
X161525000Y-61885000I0J-250000D01*
G01*
X161525000Y-62785000D01*
G75*
G02*
X161275000Y-63035000I-250000J0D01*
G01*
X160575000Y-63035000D01*
G75*
G02*
X160325000Y-62785000I0J250000D01*
G01*
G37*
G04 #@! TD.AperFunction*
G04 #@! TA.AperFunction,SMDPad,CuDef*
G36*
G01*
X162325000Y-62785000D02*
X162325000Y-61885000D01*
G75*
G02*
X162575000Y-61635000I250000J0D01*
G01*
X163275000Y-61635000D01*
G75*
G02*
X163525000Y-61885000I0J-250000D01*
G01*
X163525000Y-62785000D01*
G75*
G02*
X163275000Y-63035000I-250000J0D01*
G01*
X162575000Y-63035000D01*
G75*
G02*
X162325000Y-62785000I0J250000D01*
G01*
G37*
G04 #@! TD.AperFunction*
G04 #@! TA.AperFunction,SMDPad,CuDef*
G36*
G01*
X134308000Y-69275000D02*
X133408000Y-69275000D01*
G75*
G02*
X133158000Y-69025000I0J250000D01*
G01*
X133158000Y-68325000D01*
G75*
G02*
X133408000Y-68075000I250000J0D01*
G01*
X134308000Y-68075000D01*
G75*
G02*
X134558000Y-68325000I0J-250000D01*
G01*
X134558000Y-69025000D01*
G75*
G02*
X134308000Y-69275000I-250000J0D01*
G01*
G37*
G04 #@! TD.AperFunction*
G04 #@! TA.AperFunction,SMDPad,CuDef*
G36*
G01*
X134308000Y-67275000D02*
X133408000Y-67275000D01*
G75*
G02*
X133158000Y-67025000I0J250000D01*
G01*
X133158000Y-66325000D01*
G75*
G02*
X133408000Y-66075000I250000J0D01*
G01*
X134308000Y-66075000D01*
G75*
G02*
X134558000Y-66325000I0J-250000D01*
G01*
X134558000Y-67025000D01*
G75*
G02*
X134308000Y-67275000I-250000J0D01*
G01*
G37*
G04 #@! TD.AperFunction*
G04 #@! TA.AperFunction,SMDPad,CuDef*
G36*
G01*
X138118000Y-80705000D02*
X137218000Y-80705000D01*
G75*
G02*
X136968000Y-80455000I0J250000D01*
G01*
X136968000Y-79755000D01*
G75*
G02*
X137218000Y-79505000I250000J0D01*
G01*
X138118000Y-79505000D01*
G75*
G02*
X138368000Y-79755000I0J-250000D01*
G01*
X138368000Y-80455000D01*
G75*
G02*
X138118000Y-80705000I-250000J0D01*
G01*
G37*
G04 #@! TD.AperFunction*
G04 #@! TA.AperFunction,SMDPad,CuDef*
G36*
G01*
X138118000Y-78705000D02*
X137218000Y-78705000D01*
G75*
G02*
X136968000Y-78455000I0J250000D01*
G01*
X136968000Y-77755000D01*
G75*
G02*
X137218000Y-77505000I250000J0D01*
G01*
X138118000Y-77505000D01*
G75*
G02*
X138368000Y-77755000I0J-250000D01*
G01*
X138368000Y-78455000D01*
G75*
G02*
X138118000Y-78705000I-250000J0D01*
G01*
G37*
G04 #@! TD.AperFunction*
G04 #@! TA.AperFunction,SMDPad,CuDef*
G36*
G01*
X144333000Y-79905000D02*
X144333000Y-80305000D01*
G75*
G02*
X144133000Y-80505000I-200000J0D01*
G01*
X142633000Y-80505000D01*
G75*
G02*
X142433000Y-80305000I0J200000D01*
G01*
X142433000Y-79905000D01*
G75*
G02*
X142633000Y-79705000I200000J0D01*
G01*
X144133000Y-79705000D01*
G75*
G02*
X144333000Y-79905000I0J-200000D01*
G01*
G37*
G04 #@! TD.AperFunction*
G04 #@! TA.AperFunction,SMDPad,CuDef*
G36*
G01*
X144333000Y-78005000D02*
X144333000Y-78405000D01*
G75*
G02*
X144133000Y-78605000I-200000J0D01*
G01*
X142633000Y-78605000D01*
G75*
G02*
X142433000Y-78405000I0J200000D01*
G01*
X142433000Y-78005000D01*
G75*
G02*
X142633000Y-77805000I200000J0D01*
G01*
X144133000Y-77805000D01*
G75*
G02*
X144333000Y-78005000I0J-200000D01*
G01*
G37*
G04 #@! TD.AperFunction*
G04 #@! TA.AperFunction,SMDPad,CuDef*
G36*
G01*
X141333000Y-78955000D02*
X141333000Y-79355000D01*
G75*
G02*
X141133000Y-79555000I-200000J0D01*
G01*
X139633000Y-79555000D01*
G75*
G02*
X139433000Y-79355000I0J200000D01*
G01*
X139433000Y-78955000D01*
G75*
G02*
X139633000Y-78755000I200000J0D01*
G01*
X141133000Y-78755000D01*
G75*
G02*
X141333000Y-78955000I0J-200000D01*
G01*
G37*
G04 #@! TD.AperFunction*
G04 #@! TA.AperFunction,SMDPad,CuDef*
G36*
G01*
X130419000Y-86300000D02*
X129519000Y-86300000D01*
G75*
G02*
X129269000Y-86050000I0J250000D01*
G01*
X129269000Y-85400000D01*
G75*
G02*
X129519000Y-85150000I250000J0D01*
G01*
X130419000Y-85150000D01*
G75*
G02*
X130669000Y-85400000I0J-250000D01*
G01*
X130669000Y-86050000D01*
G75*
G02*
X130419000Y-86300000I-250000J0D01*
G01*
G37*
G04 #@! TD.AperFunction*
G04 #@! TA.AperFunction,SMDPad,CuDef*
G36*
G01*
X130419000Y-84250000D02*
X129519000Y-84250000D01*
G75*
G02*
X129269000Y-84000000I0J250000D01*
G01*
X129269000Y-83350000D01*
G75*
G02*
X129519000Y-83100000I250000J0D01*
G01*
X130419000Y-83100000D01*
G75*
G02*
X130669000Y-83350000I0J-250000D01*
G01*
X130669000Y-84000000D01*
G75*
G02*
X130419000Y-84250000I-250000J0D01*
G01*
G37*
G04 #@! TD.AperFunction*
G04 #@! TA.AperFunction,SMDPad,CuDef*
G36*
G01*
X144333000Y-74190000D02*
X144333000Y-74590000D01*
G75*
G02*
X144133000Y-74790000I-200000J0D01*
G01*
X142633000Y-74790000D01*
G75*
G02*
X142433000Y-74590000I0J200000D01*
G01*
X142433000Y-74190000D01*
G75*
G02*
X142633000Y-73990000I200000J0D01*
G01*
X144133000Y-73990000D01*
G75*
G02*
X144333000Y-74190000I0J-200000D01*
G01*
G37*
G04 #@! TD.AperFunction*
G04 #@! TA.AperFunction,SMDPad,CuDef*
G36*
G01*
X144333000Y-72290000D02*
X144333000Y-72690000D01*
G75*
G02*
X144133000Y-72890000I-200000J0D01*
G01*
X142633000Y-72890000D01*
G75*
G02*
X142433000Y-72690000I0J200000D01*
G01*
X142433000Y-72290000D01*
G75*
G02*
X142633000Y-72090000I200000J0D01*
G01*
X144133000Y-72090000D01*
G75*
G02*
X144333000Y-72290000I0J-200000D01*
G01*
G37*
G04 #@! TD.AperFunction*
G04 #@! TA.AperFunction,SMDPad,CuDef*
G36*
G01*
X141333000Y-73240000D02*
X141333000Y-73640000D01*
G75*
G02*
X141133000Y-73840000I-200000J0D01*
G01*
X139633000Y-73840000D01*
G75*
G02*
X139433000Y-73640000I0J200000D01*
G01*
X139433000Y-73240000D01*
G75*
G02*
X139633000Y-73040000I200000J0D01*
G01*
X141133000Y-73040000D01*
G75*
G02*
X141333000Y-73240000I0J-200000D01*
G01*
G37*
G04 #@! TD.AperFunction*
G04 #@! TA.AperFunction,SMDPad,CuDef*
G36*
G01*
X134229000Y-86325000D02*
X133329000Y-86325000D01*
G75*
G02*
X133079000Y-86075000I0J250000D01*
G01*
X133079000Y-85375000D01*
G75*
G02*
X133329000Y-85125000I250000J0D01*
G01*
X134229000Y-85125000D01*
G75*
G02*
X134479000Y-85375000I0J-250000D01*
G01*
X134479000Y-86075000D01*
G75*
G02*
X134229000Y-86325000I-250000J0D01*
G01*
G37*
G04 #@! TD.AperFunction*
G04 #@! TA.AperFunction,SMDPad,CuDef*
G36*
G01*
X134229000Y-84325000D02*
X133329000Y-84325000D01*
G75*
G02*
X133079000Y-84075000I0J250000D01*
G01*
X133079000Y-83375000D01*
G75*
G02*
X133329000Y-83125000I250000J0D01*
G01*
X134229000Y-83125000D01*
G75*
G02*
X134479000Y-83375000I0J-250000D01*
G01*
X134479000Y-84075000D01*
G75*
G02*
X134229000Y-84325000I-250000J0D01*
G01*
G37*
G04 #@! TD.AperFunction*
G04 #@! TA.AperFunction,SMDPad,CuDef*
G36*
G01*
X128509000Y-90660000D02*
X129809000Y-90660000D01*
G75*
G02*
X130059000Y-90910000I0J-250000D01*
G01*
X130059000Y-91735000D01*
G75*
G02*
X129809000Y-91985000I-250000J0D01*
G01*
X128509000Y-91985000D01*
G75*
G02*
X128259000Y-91735000I0J250000D01*
G01*
X128259000Y-90910000D01*
G75*
G02*
X128509000Y-90660000I250000J0D01*
G01*
G37*
G04 #@! TD.AperFunction*
G04 #@! TA.AperFunction,SMDPad,CuDef*
G36*
G01*
X128509000Y-93785000D02*
X129809000Y-93785000D01*
G75*
G02*
X130059000Y-94035000I0J-250000D01*
G01*
X130059000Y-94860000D01*
G75*
G02*
X129809000Y-95110000I-250000J0D01*
G01*
X128509000Y-95110000D01*
G75*
G02*
X128259000Y-94860000I0J250000D01*
G01*
X128259000Y-94035000D01*
G75*
G02*
X128509000Y-93785000I250000J0D01*
G01*
G37*
G04 #@! TD.AperFunction*
G04 #@! TA.AperFunction,SMDPad,CuDef*
G36*
G01*
X144333000Y-68475000D02*
X144333000Y-68875000D01*
G75*
G02*
X144133000Y-69075000I-200000J0D01*
G01*
X142633000Y-69075000D01*
G75*
G02*
X142433000Y-68875000I0J200000D01*
G01*
X142433000Y-68475000D01*
G75*
G02*
X142633000Y-68275000I200000J0D01*
G01*
X144133000Y-68275000D01*
G75*
G02*
X144333000Y-68475000I0J-200000D01*
G01*
G37*
G04 #@! TD.AperFunction*
G04 #@! TA.AperFunction,SMDPad,CuDef*
G36*
G01*
X144333000Y-66575000D02*
X144333000Y-66975000D01*
G75*
G02*
X144133000Y-67175000I-200000J0D01*
G01*
X142633000Y-67175000D01*
G75*
G02*
X142433000Y-66975000I0J200000D01*
G01*
X142433000Y-66575000D01*
G75*
G02*
X142633000Y-66375000I200000J0D01*
G01*
X144133000Y-66375000D01*
G75*
G02*
X144333000Y-66575000I0J-200000D01*
G01*
G37*
G04 #@! TD.AperFunction*
G04 #@! TA.AperFunction,SMDPad,CuDef*
G36*
G01*
X141333000Y-67525000D02*
X141333000Y-67925000D01*
G75*
G02*
X141133000Y-68125000I-200000J0D01*
G01*
X139633000Y-68125000D01*
G75*
G02*
X139433000Y-67925000I0J200000D01*
G01*
X139433000Y-67525000D01*
G75*
G02*
X139633000Y-67325000I200000J0D01*
G01*
X141133000Y-67325000D01*
G75*
G02*
X141333000Y-67525000I0J-200000D01*
G01*
G37*
G04 #@! TD.AperFunction*
D14*
X156780000Y-76135000D03*
X156780000Y-76935000D03*
X156780000Y-77735000D03*
X156780000Y-78535000D03*
X156780000Y-79335000D03*
X156780000Y-80135000D03*
X156780000Y-80935000D03*
X156780000Y-81735000D03*
D15*
X158230000Y-83185000D03*
X159030000Y-83185000D03*
X159830000Y-83185000D03*
X160630000Y-83185000D03*
X161430000Y-83185000D03*
X162230000Y-83185000D03*
X163030000Y-83185000D03*
X163830000Y-83185000D03*
D14*
X165280000Y-81735000D03*
X165280000Y-80935000D03*
X165280000Y-80135000D03*
X165280000Y-79335000D03*
X165280000Y-78535000D03*
X165280000Y-77735000D03*
X165280000Y-76935000D03*
X165280000Y-76135000D03*
D15*
X163830000Y-74685000D03*
X163030000Y-74685000D03*
X162230000Y-74685000D03*
X161430000Y-74685000D03*
X160630000Y-74685000D03*
X159830000Y-74685000D03*
X159030000Y-74685000D03*
X158230000Y-74685000D03*
G04 #@! TA.AperFunction,SMDPad,CuDef*
G36*
G01*
X137045000Y-95565000D02*
X136645000Y-95565000D01*
G75*
G02*
X136445000Y-95365000I0J200000D01*
G01*
X136445000Y-93865000D01*
G75*
G02*
X136645000Y-93665000I200000J0D01*
G01*
X137045000Y-93665000D01*
G75*
G02*
X137245000Y-93865000I0J-200000D01*
G01*
X137245000Y-95365000D01*
G75*
G02*
X137045000Y-95565000I-200000J0D01*
G01*
G37*
G04 #@! TD.AperFunction*
G04 #@! TA.AperFunction,SMDPad,CuDef*
G36*
G01*
X138945000Y-95565000D02*
X138545000Y-95565000D01*
G75*
G02*
X138345000Y-95365000I0J200000D01*
G01*
X138345000Y-93865000D01*
G75*
G02*
X138545000Y-93665000I200000J0D01*
G01*
X138945000Y-93665000D01*
G75*
G02*
X139145000Y-93865000I0J-200000D01*
G01*
X139145000Y-95365000D01*
G75*
G02*
X138945000Y-95565000I-200000J0D01*
G01*
G37*
G04 #@! TD.AperFunction*
G04 #@! TA.AperFunction,SMDPad,CuDef*
G36*
G01*
X137995000Y-92565000D02*
X137595000Y-92565000D01*
G75*
G02*
X137395000Y-92365000I0J200000D01*
G01*
X137395000Y-90865000D01*
G75*
G02*
X137595000Y-90665000I200000J0D01*
G01*
X137995000Y-90665000D01*
G75*
G02*
X138195000Y-90865000I0J-200000D01*
G01*
X138195000Y-92365000D01*
G75*
G02*
X137995000Y-92565000I-200000J0D01*
G01*
G37*
G04 #@! TD.AperFunction*
G04 #@! TA.AperFunction,SMDPad,CuDef*
G36*
G01*
X138118000Y-74990000D02*
X137218000Y-74990000D01*
G75*
G02*
X136968000Y-74740000I0J250000D01*
G01*
X136968000Y-74040000D01*
G75*
G02*
X137218000Y-73790000I250000J0D01*
G01*
X138118000Y-73790000D01*
G75*
G02*
X138368000Y-74040000I0J-250000D01*
G01*
X138368000Y-74740000D01*
G75*
G02*
X138118000Y-74990000I-250000J0D01*
G01*
G37*
G04 #@! TD.AperFunction*
G04 #@! TA.AperFunction,SMDPad,CuDef*
G36*
G01*
X138118000Y-72990000D02*
X137218000Y-72990000D01*
G75*
G02*
X136968000Y-72740000I0J250000D01*
G01*
X136968000Y-72040000D01*
G75*
G02*
X137218000Y-71790000I250000J0D01*
G01*
X138118000Y-71790000D01*
G75*
G02*
X138368000Y-72040000I0J-250000D01*
G01*
X138368000Y-72740000D01*
G75*
G02*
X138118000Y-72990000I-250000J0D01*
G01*
G37*
G04 #@! TD.AperFunction*
D16*
X157475000Y-66675000D03*
X153675000Y-66675000D03*
D17*
X155575000Y-68475000D03*
G04 #@! TA.AperFunction,SMDPad,CuDef*
G36*
G01*
X138118000Y-69275000D02*
X137218000Y-69275000D01*
G75*
G02*
X136968000Y-69025000I0J250000D01*
G01*
X136968000Y-68325000D01*
G75*
G02*
X137218000Y-68075000I250000J0D01*
G01*
X138118000Y-68075000D01*
G75*
G02*
X138368000Y-68325000I0J-250000D01*
G01*
X138368000Y-69025000D01*
G75*
G02*
X138118000Y-69275000I-250000J0D01*
G01*
G37*
G04 #@! TD.AperFunction*
G04 #@! TA.AperFunction,SMDPad,CuDef*
G36*
G01*
X138118000Y-67275000D02*
X137218000Y-67275000D01*
G75*
G02*
X136968000Y-67025000I0J250000D01*
G01*
X136968000Y-66325000D01*
G75*
G02*
X137218000Y-66075000I250000J0D01*
G01*
X138118000Y-66075000D01*
G75*
G02*
X138368000Y-66325000I0J-250000D01*
G01*
X138368000Y-67025000D01*
G75*
G02*
X138118000Y-67275000I-250000J0D01*
G01*
G37*
G04 #@! TD.AperFunction*
D11*
X172093000Y-73025000D03*
X173093000Y-73025000D03*
D12*
X145415000Y-59055000D03*
D13*
X147955000Y-59055000D03*
X150495000Y-59055000D03*
G04 #@! TA.AperFunction,SMDPad,CuDef*
G36*
G01*
X132319000Y-90660000D02*
X133619000Y-90660000D01*
G75*
G02*
X133869000Y-90910000I0J-250000D01*
G01*
X133869000Y-91735000D01*
G75*
G02*
X133619000Y-91985000I-250000J0D01*
G01*
X132319000Y-91985000D01*
G75*
G02*
X132069000Y-91735000I0J250000D01*
G01*
X132069000Y-90910000D01*
G75*
G02*
X132319000Y-90660000I250000J0D01*
G01*
G37*
G04 #@! TD.AperFunction*
G04 #@! TA.AperFunction,SMDPad,CuDef*
G36*
G01*
X132319000Y-93785000D02*
X133619000Y-93785000D01*
G75*
G02*
X133869000Y-94035000I0J-250000D01*
G01*
X133869000Y-94860000D01*
G75*
G02*
X133619000Y-95110000I-250000J0D01*
G01*
X132319000Y-95110000D01*
G75*
G02*
X132069000Y-94860000I0J250000D01*
G01*
X132069000Y-94035000D01*
G75*
G02*
X132319000Y-93785000I250000J0D01*
G01*
G37*
G04 #@! TD.AperFunction*
G04 #@! TA.AperFunction,SMDPad,CuDef*
G36*
G01*
X142890000Y-95110000D02*
X141590000Y-95110000D01*
G75*
G02*
X141340000Y-94860000I0J250000D01*
G01*
X141340000Y-94035000D01*
G75*
G02*
X141590000Y-93785000I250000J0D01*
G01*
X142890000Y-93785000D01*
G75*
G02*
X143140000Y-94035000I0J-250000D01*
G01*
X143140000Y-94860000D01*
G75*
G02*
X142890000Y-95110000I-250000J0D01*
G01*
G37*
G04 #@! TD.AperFunction*
G04 #@! TA.AperFunction,SMDPad,CuDef*
G36*
G01*
X142890000Y-91985000D02*
X141590000Y-91985000D01*
G75*
G02*
X141340000Y-91735000I0J250000D01*
G01*
X141340000Y-90910000D01*
G75*
G02*
X141590000Y-90660000I250000J0D01*
G01*
X142890000Y-90660000D01*
G75*
G02*
X143140000Y-90910000I0J-250000D01*
G01*
X143140000Y-91735000D01*
G75*
G02*
X142890000Y-91985000I-250000J0D01*
G01*
G37*
G04 #@! TD.AperFunction*
D18*
X116205000Y-85725000D03*
D19*
X116205000Y-83185000D03*
X116205000Y-80645000D03*
X116205000Y-78105000D03*
X116205000Y-75565000D03*
X116205000Y-73025000D03*
X116205000Y-70485000D03*
X116205000Y-67945000D03*
G04 #@! TA.AperFunction,SMDPad,CuDef*
G36*
G01*
X130498000Y-74965000D02*
X129598000Y-74965000D01*
G75*
G02*
X129348000Y-74715000I0J250000D01*
G01*
X129348000Y-74065000D01*
G75*
G02*
X129598000Y-73815000I250000J0D01*
G01*
X130498000Y-73815000D01*
G75*
G02*
X130748000Y-74065000I0J-250000D01*
G01*
X130748000Y-74715000D01*
G75*
G02*
X130498000Y-74965000I-250000J0D01*
G01*
G37*
G04 #@! TD.AperFunction*
G04 #@! TA.AperFunction,SMDPad,CuDef*
G36*
G01*
X130498000Y-72915000D02*
X129598000Y-72915000D01*
G75*
G02*
X129348000Y-72665000I0J250000D01*
G01*
X129348000Y-72015000D01*
G75*
G02*
X129598000Y-71765000I250000J0D01*
G01*
X130498000Y-71765000D01*
G75*
G02*
X130748000Y-72015000I0J-250000D01*
G01*
X130748000Y-72665000D01*
G75*
G02*
X130498000Y-72915000I-250000J0D01*
G01*
G37*
G04 #@! TD.AperFunction*
G04 #@! TA.AperFunction,SMDPad,CuDef*
G36*
G01*
X125679000Y-87815000D02*
X125679000Y-88715000D01*
G75*
G02*
X125429000Y-88965000I-250000J0D01*
G01*
X124779000Y-88965000D01*
G75*
G02*
X124529000Y-88715000I0J250000D01*
G01*
X124529000Y-87815000D01*
G75*
G02*
X124779000Y-87565000I250000J0D01*
G01*
X125429000Y-87565000D01*
G75*
G02*
X125679000Y-87815000I0J-250000D01*
G01*
G37*
G04 #@! TD.AperFunction*
G04 #@! TA.AperFunction,SMDPad,CuDef*
G36*
G01*
X123629000Y-87815000D02*
X123629000Y-88715000D01*
G75*
G02*
X123379000Y-88965000I-250000J0D01*
G01*
X122729000Y-88965000D01*
G75*
G02*
X122479000Y-88715000I0J250000D01*
G01*
X122479000Y-87815000D01*
G75*
G02*
X122729000Y-87565000I250000J0D01*
G01*
X123379000Y-87565000D01*
G75*
G02*
X123629000Y-87815000I0J-250000D01*
G01*
G37*
G04 #@! TD.AperFunction*
D18*
X156845000Y-52705000D03*
D19*
X159385000Y-52705000D03*
G04 #@! TA.AperFunction,SMDPad,CuDef*
G36*
G01*
X157440000Y-61885000D02*
X157440000Y-62785000D01*
G75*
G02*
X157190000Y-63035000I-250000J0D01*
G01*
X156490000Y-63035000D01*
G75*
G02*
X156240000Y-62785000I0J250000D01*
G01*
X156240000Y-61885000D01*
G75*
G02*
X156490000Y-61635000I250000J0D01*
G01*
X157190000Y-61635000D01*
G75*
G02*
X157440000Y-61885000I0J-250000D01*
G01*
G37*
G04 #@! TD.AperFunction*
G04 #@! TA.AperFunction,SMDPad,CuDef*
G36*
G01*
X155440000Y-61885000D02*
X155440000Y-62785000D01*
G75*
G02*
X155190000Y-63035000I-250000J0D01*
G01*
X154490000Y-63035000D01*
G75*
G02*
X154240000Y-62785000I0J250000D01*
G01*
X154240000Y-61885000D01*
G75*
G02*
X154490000Y-61635000I250000J0D01*
G01*
X155190000Y-61635000D01*
G75*
G02*
X155440000Y-61885000I0J-250000D01*
G01*
G37*
G04 #@! TD.AperFunction*
G04 #@! TA.AperFunction,SMDPad,CuDef*
G36*
G01*
X134308000Y-80705000D02*
X133408000Y-80705000D01*
G75*
G02*
X133158000Y-80455000I0J250000D01*
G01*
X133158000Y-79755000D01*
G75*
G02*
X133408000Y-79505000I250000J0D01*
G01*
X134308000Y-79505000D01*
G75*
G02*
X134558000Y-79755000I0J-250000D01*
G01*
X134558000Y-80455000D01*
G75*
G02*
X134308000Y-80705000I-250000J0D01*
G01*
G37*
G04 #@! TD.AperFunction*
G04 #@! TA.AperFunction,SMDPad,CuDef*
G36*
G01*
X134308000Y-78705000D02*
X133408000Y-78705000D01*
G75*
G02*
X133158000Y-78455000I0J250000D01*
G01*
X133158000Y-77755000D01*
G75*
G02*
X133408000Y-77505000I250000J0D01*
G01*
X134308000Y-77505000D01*
G75*
G02*
X134558000Y-77755000I0J-250000D01*
G01*
X134558000Y-78455000D01*
G75*
G02*
X134308000Y-78705000I-250000J0D01*
G01*
G37*
G04 #@! TD.AperFunction*
D20*
X165100000Y-64775000D03*
X165100000Y-68575000D03*
D21*
X166900000Y-66675000D03*
G04 #@! TA.AperFunction,SMDPad,CuDef*
G36*
G01*
X130498000Y-69250000D02*
X129598000Y-69250000D01*
G75*
G02*
X129348000Y-69000000I0J250000D01*
G01*
X129348000Y-68350000D01*
G75*
G02*
X129598000Y-68100000I250000J0D01*
G01*
X130498000Y-68100000D01*
G75*
G02*
X130748000Y-68350000I0J-250000D01*
G01*
X130748000Y-69000000D01*
G75*
G02*
X130498000Y-69250000I-250000J0D01*
G01*
G37*
G04 #@! TD.AperFunction*
G04 #@! TA.AperFunction,SMDPad,CuDef*
G36*
G01*
X130498000Y-67200000D02*
X129598000Y-67200000D01*
G75*
G02*
X129348000Y-66950000I0J250000D01*
G01*
X129348000Y-66300000D01*
G75*
G02*
X129598000Y-66050000I250000J0D01*
G01*
X130498000Y-66050000D01*
G75*
G02*
X130748000Y-66300000I0J-250000D01*
G01*
X130748000Y-66950000D01*
G75*
G02*
X130498000Y-67200000I-250000J0D01*
G01*
G37*
G04 #@! TD.AperFunction*
D22*
X154717500Y-93345000D03*
X166592500Y-93345000D03*
D23*
X114935000Y-61595000D03*
X117475000Y-61595000D03*
X120015000Y-61595000D03*
X114935000Y-59055000D03*
X120015000Y-59055000D03*
G04 #@! TA.AperFunction,SMDPad,CuDef*
G36*
G01*
X129695000Y-63615000D02*
X129695000Y-64015000D01*
G75*
G02*
X129495000Y-64215000I-200000J0D01*
G01*
X127995000Y-64215000D01*
G75*
G02*
X127795000Y-64015000I0J200000D01*
G01*
X127795000Y-63615000D01*
G75*
G02*
X127995000Y-63415000I200000J0D01*
G01*
X129495000Y-63415000D01*
G75*
G02*
X129695000Y-63615000I0J-200000D01*
G01*
G37*
G04 #@! TD.AperFunction*
G04 #@! TA.AperFunction,SMDPad,CuDef*
G36*
G01*
X129695000Y-61715000D02*
X129695000Y-62115000D01*
G75*
G02*
X129495000Y-62315000I-200000J0D01*
G01*
X127995000Y-62315000D01*
G75*
G02*
X127795000Y-62115000I0J200000D01*
G01*
X127795000Y-61715000D01*
G75*
G02*
X127995000Y-61515000I200000J0D01*
G01*
X129495000Y-61515000D01*
G75*
G02*
X129695000Y-61715000I0J-200000D01*
G01*
G37*
G04 #@! TD.AperFunction*
G04 #@! TA.AperFunction,SMDPad,CuDef*
G36*
G01*
X126695000Y-62665000D02*
X126695000Y-63065000D01*
G75*
G02*
X126495000Y-63265000I-200000J0D01*
G01*
X124995000Y-63265000D01*
G75*
G02*
X124795000Y-63065000I0J200000D01*
G01*
X124795000Y-62665000D01*
G75*
G02*
X124995000Y-62465000I200000J0D01*
G01*
X126495000Y-62465000D01*
G75*
G02*
X126695000Y-62665000I0J-200000D01*
G01*
G37*
G04 #@! TD.AperFunction*
G04 #@! TA.AperFunction,ComponentPad*
G36*
G01*
X177585000Y-86325000D02*
X177585000Y-85125000D01*
G75*
G02*
X177835000Y-84875000I250000J0D01*
G01*
X179035000Y-84875000D01*
G75*
G02*
X179285000Y-85125000I0J-250000D01*
G01*
X179285000Y-86325000D01*
G75*
G02*
X179035000Y-86575000I-250000J0D01*
G01*
X177835000Y-86575000D01*
G75*
G02*
X177585000Y-86325000I0J250000D01*
G01*
G37*
G04 #@! TD.AperFunction*
D24*
X180975000Y-85725000D03*
X178435000Y-88265000D03*
X180975000Y-88265000D03*
X178435000Y-90805000D03*
X180975000Y-90805000D03*
G04 #@! TA.AperFunction,SMDPad,CuDef*
G36*
G01*
X134308000Y-74990000D02*
X133408000Y-74990000D01*
G75*
G02*
X133158000Y-74740000I0J250000D01*
G01*
X133158000Y-74040000D01*
G75*
G02*
X133408000Y-73790000I250000J0D01*
G01*
X134308000Y-73790000D01*
G75*
G02*
X134558000Y-74040000I0J-250000D01*
G01*
X134558000Y-74740000D01*
G75*
G02*
X134308000Y-74990000I-250000J0D01*
G01*
G37*
G04 #@! TD.AperFunction*
G04 #@! TA.AperFunction,SMDPad,CuDef*
G36*
G01*
X134308000Y-72990000D02*
X133408000Y-72990000D01*
G75*
G02*
X133158000Y-72740000I0J250000D01*
G01*
X133158000Y-72040000D01*
G75*
G02*
X133408000Y-71790000I250000J0D01*
G01*
X134308000Y-71790000D01*
G75*
G02*
X134558000Y-72040000I0J-250000D01*
G01*
X134558000Y-72740000D01*
G75*
G02*
X134308000Y-72990000I-250000J0D01*
G01*
G37*
G04 #@! TD.AperFunction*
G04 #@! TA.AperFunction,SMDPad,CuDef*
G36*
G01*
X138039000Y-86325000D02*
X137139000Y-86325000D01*
G75*
G02*
X136889000Y-86075000I0J250000D01*
G01*
X136889000Y-85375000D01*
G75*
G02*
X137139000Y-85125000I250000J0D01*
G01*
X138039000Y-85125000D01*
G75*
G02*
X138289000Y-85375000I0J-250000D01*
G01*
X138289000Y-86075000D01*
G75*
G02*
X138039000Y-86325000I-250000J0D01*
G01*
G37*
G04 #@! TD.AperFunction*
G04 #@! TA.AperFunction,SMDPad,CuDef*
G36*
G01*
X138039000Y-84325000D02*
X137139000Y-84325000D01*
G75*
G02*
X136889000Y-84075000I0J250000D01*
G01*
X136889000Y-83375000D01*
G75*
G02*
X137139000Y-83125000I250000J0D01*
G01*
X138039000Y-83125000D01*
G75*
G02*
X138289000Y-83375000I0J-250000D01*
G01*
X138289000Y-84075000D01*
G75*
G02*
X138039000Y-84325000I-250000J0D01*
G01*
G37*
G04 #@! TD.AperFunction*
G04 #@! TA.AperFunction,SMDPad,CuDef*
G36*
G01*
X146500000Y-95120000D02*
X145600000Y-95120000D01*
G75*
G02*
X145350000Y-94870000I0J250000D01*
G01*
X145350000Y-94170000D01*
G75*
G02*
X145600000Y-93920000I250000J0D01*
G01*
X146500000Y-93920000D01*
G75*
G02*
X146750000Y-94170000I0J-250000D01*
G01*
X146750000Y-94870000D01*
G75*
G02*
X146500000Y-95120000I-250000J0D01*
G01*
G37*
G04 #@! TD.AperFunction*
G04 #@! TA.AperFunction,SMDPad,CuDef*
G36*
G01*
X146500000Y-93120000D02*
X145600000Y-93120000D01*
G75*
G02*
X145350000Y-92870000I0J250000D01*
G01*
X145350000Y-92170000D01*
G75*
G02*
X145600000Y-91920000I250000J0D01*
G01*
X146500000Y-91920000D01*
G75*
G02*
X146750000Y-92170000I0J-250000D01*
G01*
X146750000Y-92870000D01*
G75*
G02*
X146500000Y-93120000I-250000J0D01*
G01*
G37*
G04 #@! TD.AperFunction*
D18*
X125095000Y-52705000D03*
D19*
X127635000Y-52705000D03*
D11*
X172093000Y-70485000D03*
X173093000Y-70485000D03*
D18*
X116205000Y-53975000D03*
D19*
X116205000Y-51435000D03*
G04 #@! TA.AperFunction,SMDPad,CuDef*
G36*
G01*
X128210000Y-57970000D02*
X128210000Y-58870000D01*
G75*
G02*
X127960000Y-59120000I-250000J0D01*
G01*
X127310000Y-59120000D01*
G75*
G02*
X127060000Y-58870000I0J250000D01*
G01*
X127060000Y-57970000D01*
G75*
G02*
X127310000Y-57720000I250000J0D01*
G01*
X127960000Y-57720000D01*
G75*
G02*
X128210000Y-57970000I0J-250000D01*
G01*
G37*
G04 #@! TD.AperFunction*
G04 #@! TA.AperFunction,SMDPad,CuDef*
G36*
G01*
X126160000Y-57970000D02*
X126160000Y-58870000D01*
G75*
G02*
X125910000Y-59120000I-250000J0D01*
G01*
X125260000Y-59120000D01*
G75*
G02*
X125010000Y-58870000I0J250000D01*
G01*
X125010000Y-57970000D01*
G75*
G02*
X125260000Y-57720000I250000J0D01*
G01*
X125910000Y-57720000D01*
G75*
G02*
X126160000Y-57970000I0J-250000D01*
G01*
G37*
G04 #@! TD.AperFunction*
D18*
X165735000Y-52705000D03*
D19*
X168275000Y-52705000D03*
X170815000Y-52705000D03*
X173355000Y-52705000D03*
D25*
X145669000Y-78105000D03*
X125349000Y-95631000D03*
X154305000Y-78359000D03*
X145669000Y-83693000D03*
X145669000Y-66675000D03*
X130429000Y-59563000D03*
X168021000Y-63881000D03*
X147955000Y-90805000D03*
X145669000Y-72263000D03*
X160147000Y-88773000D03*
X167767000Y-77597000D03*
X157607000Y-69723000D03*
X161925000Y-85725000D03*
X154305000Y-82677000D03*
X152273000Y-89789000D03*
X152273000Y-82677000D03*
X151765000Y-62357000D03*
X155829000Y-72517000D03*
X152273000Y-79121000D03*
X149479000Y-88265000D03*
X159385000Y-77851000D03*
X158877000Y-62335000D03*
X170053000Y-78613000D03*
X163195000Y-72263000D03*
X160909000Y-67945000D03*
X172339000Y-83185000D03*
X172085000Y-75565000D03*
X172085000Y-65405000D03*
X126365000Y-85725000D03*
X147701000Y-73787000D03*
X150749000Y-73787000D03*
X133985000Y-63881000D03*
X147066000Y-64262000D03*
X169545000Y-68961000D03*
X169545000Y-73025000D03*
X146431000Y-85659000D03*
X153543000Y-75819000D03*
D26*
X170569000Y-63881000D02*
X171585000Y-62865000D01*
X157607000Y-69723000D02*
X158369000Y-68961000D01*
X143383000Y-78205000D02*
X145569000Y-78205000D01*
X145569000Y-66775000D02*
X143383000Y-66775000D01*
X155281000Y-79335000D02*
X154305000Y-78359000D01*
X126349000Y-94615000D02*
X128991500Y-94615000D01*
X146050000Y-91186000D02*
X146431000Y-90805000D01*
X165280000Y-78535000D02*
X166829000Y-78535000D01*
X168021000Y-63881000D02*
X170569000Y-63881000D01*
X132969000Y-94447500D02*
X132882500Y-94447500D01*
X165100000Y-64775000D02*
X165100000Y-64770000D01*
X165100000Y-64770000D02*
X165989000Y-63881000D01*
X125349000Y-93583000D02*
X125349000Y-93615000D01*
X136845000Y-95057000D02*
X136779000Y-95123000D01*
X145442000Y-72490000D02*
X145669000Y-72263000D01*
X160147000Y-88773000D02*
X163427500Y-88773000D01*
X143383000Y-83759000D02*
X145603000Y-83759000D01*
X132882500Y-94447500D02*
X132207000Y-95123000D01*
X166829000Y-78535000D02*
X167767000Y-77597000D01*
X158369000Y-68961000D02*
X158369000Y-67569000D01*
X168021000Y-65913000D02*
X168021000Y-63881000D01*
X145669000Y-66675000D02*
X145569000Y-66775000D01*
X156780000Y-77735000D02*
X154929000Y-77735000D01*
X158369000Y-67569000D02*
X157475000Y-66675000D01*
X145569000Y-78205000D02*
X145669000Y-78105000D01*
X126349000Y-94615000D02*
X126349000Y-94631000D01*
X157067500Y-88773000D02*
X160147000Y-88773000D01*
X133644500Y-95123000D02*
X132969000Y-94447500D01*
X126349000Y-94631000D02*
X125349000Y-95631000D01*
X156780000Y-79335000D02*
X155281000Y-79335000D01*
X136779000Y-95123000D02*
X133644500Y-95123000D01*
X125349000Y-93615000D02*
X126349000Y-94615000D01*
X146050000Y-91186000D02*
X145669000Y-90805000D01*
X155575000Y-68961000D02*
X155575000Y-68475000D01*
X132207000Y-95123000D02*
X129834500Y-95123000D01*
X168021000Y-63881000D02*
X165989000Y-63881000D01*
X128991500Y-94615000D02*
X129159000Y-94447500D01*
X142611500Y-91322500D02*
X142240000Y-91322500D01*
X130429000Y-61341000D02*
X130429000Y-59563000D01*
X129834500Y-95123000D02*
X129159000Y-94447500D01*
X128745000Y-61915000D02*
X129855000Y-61915000D01*
X143383000Y-72490000D02*
X145442000Y-72490000D01*
X145669000Y-90805000D02*
X143129000Y-90805000D01*
X146431000Y-90805000D02*
X147955000Y-90805000D01*
X156337000Y-69723000D02*
X155575000Y-68961000D01*
X129855000Y-61915000D02*
X130429000Y-61341000D01*
X157607000Y-69723000D02*
X156337000Y-69723000D01*
X145603000Y-83759000D02*
X145669000Y-83693000D01*
X136845000Y-94615000D02*
X136845000Y-95057000D01*
X154929000Y-77735000D02*
X154305000Y-78359000D01*
X167259000Y-66675000D02*
X168021000Y-65913000D01*
X143129000Y-90805000D02*
X142611500Y-91322500D01*
X166900000Y-66675000D02*
X167259000Y-66675000D01*
X146050000Y-92520000D02*
X146050000Y-91186000D01*
X167767000Y-87503000D02*
X167259000Y-86995000D01*
X163195000Y-86995000D02*
X161925000Y-85725000D01*
X156780000Y-81735000D02*
X155247000Y-81735000D01*
X167767000Y-88773000D02*
X165502500Y-88773000D01*
X167259000Y-86995000D02*
X163195000Y-86995000D01*
X169037000Y-93345000D02*
X169037000Y-90043000D01*
X155247000Y-81735000D02*
X154305000Y-82677000D01*
X166592500Y-93345000D02*
X169037000Y-93345000D01*
X169037000Y-90043000D02*
X167767000Y-88773000D01*
X167767000Y-88773000D02*
X167767000Y-87503000D01*
X152273000Y-93345000D02*
X154717500Y-93345000D01*
X152273000Y-82677000D02*
X154015000Y-80935000D01*
X152273000Y-89789000D02*
X152273000Y-93345000D01*
X152273000Y-89789000D02*
X153289000Y-88773000D01*
X154015000Y-80935000D02*
X156780000Y-80935000D01*
X153289000Y-88773000D02*
X154992500Y-88773000D01*
X156780000Y-78535000D02*
X158701000Y-78535000D01*
X159385000Y-77851000D02*
X160401000Y-78867000D01*
X162230000Y-80135000D02*
X163030000Y-80935000D01*
X160401000Y-78867000D02*
X160401000Y-80135000D01*
X165280000Y-80935000D02*
X178217000Y-80935000D01*
X146050000Y-94520000D02*
X142312500Y-94520000D01*
X138811000Y-95123000D02*
X138745000Y-95057000D01*
X158877000Y-62335000D02*
X160925000Y-62335000D01*
X178217000Y-80935000D02*
X180975000Y-83693000D01*
X156840000Y-62335000D02*
X158877000Y-62335000D01*
X158701000Y-78535000D02*
X159385000Y-77851000D01*
X152273000Y-79121000D02*
X153287000Y-80135000D01*
X151765000Y-68453000D02*
X155829000Y-72517000D01*
X149479000Y-93091000D02*
X149479000Y-88773000D01*
X142312500Y-94520000D02*
X142240000Y-94447500D01*
X180975000Y-83693000D02*
X180975000Y-85725000D01*
X160401000Y-80135000D02*
X162230000Y-80135000D01*
X151765000Y-62357000D02*
X151765000Y-67945000D01*
X148971000Y-93599000D02*
X149479000Y-93091000D01*
X146050000Y-94520000D02*
X148050000Y-94520000D01*
X159639000Y-80135000D02*
X160401000Y-80135000D01*
X153287000Y-80135000D02*
X156780000Y-80135000D01*
X148050000Y-94520000D02*
X148971000Y-93599000D01*
X141564500Y-95123000D02*
X138811000Y-95123000D01*
X163030000Y-80935000D02*
X165280000Y-80935000D01*
X149479000Y-88773000D02*
X149479000Y-88265000D01*
X142240000Y-94447500D02*
X141564500Y-95123000D01*
X151765000Y-67945000D02*
X151765000Y-68453000D01*
X138745000Y-95057000D02*
X138745000Y-94615000D01*
X156780000Y-80135000D02*
X159639000Y-80135000D01*
X132969000Y-91322500D02*
X132724500Y-91322500D01*
X127381000Y-89789000D02*
X125349000Y-89789000D01*
X137795000Y-91059000D02*
X137541000Y-90805000D01*
X125349000Y-91583000D02*
X125349000Y-89789000D01*
X129921000Y-90805000D02*
X129403500Y-91322500D01*
X132724500Y-91322500D02*
X132207000Y-90805000D01*
X137795000Y-91615000D02*
X137795000Y-91059000D01*
X129403500Y-91322500D02*
X129159000Y-91322500D01*
X125349000Y-88510000D02*
X125104000Y-88265000D01*
X133477000Y-90805000D02*
X132969000Y-91313000D01*
X125349000Y-89789000D02*
X125349000Y-88510000D01*
X137541000Y-90805000D02*
X133477000Y-90805000D01*
X129159000Y-91322500D02*
X128914500Y-91322500D01*
X128914500Y-91322500D02*
X127381000Y-89789000D01*
X132207000Y-90805000D02*
X129921000Y-90805000D01*
X132969000Y-91313000D02*
X132969000Y-91322500D01*
X129969000Y-85725000D02*
X133779000Y-85725000D01*
X127635000Y-58420000D02*
X127635000Y-52705000D01*
D27*
X113665000Y-78105000D02*
X113665000Y-73025000D01*
D26*
X129903000Y-83675000D02*
X129159000Y-82931000D01*
X129871000Y-66625000D02*
X129159000Y-65913000D01*
D27*
X120015000Y-62865000D02*
X120015000Y-61595000D01*
X114935000Y-64135000D02*
X118745000Y-64135000D01*
X113665000Y-73025000D02*
X113665000Y-67945000D01*
D26*
X123317000Y-82931000D02*
X121285000Y-84963000D01*
D27*
X119507000Y-83185000D02*
X116205000Y-83185000D01*
D26*
X123825000Y-71755000D02*
X122555000Y-73025000D01*
D27*
X113665000Y-65405000D02*
X114935000Y-64135000D01*
X113665000Y-81915000D02*
X113665000Y-78105000D01*
D26*
X129159000Y-65913000D02*
X124587000Y-65913000D01*
D27*
X116205000Y-78105000D02*
X113665000Y-78105000D01*
D26*
X129871000Y-78055000D02*
X129159000Y-77343000D01*
D27*
X116205000Y-67945000D02*
X113665000Y-67945000D01*
X116205000Y-73025000D02*
X113665000Y-73025000D01*
D26*
X130048000Y-78055000D02*
X129871000Y-78055000D01*
X122301000Y-78105000D02*
X116205000Y-78105000D01*
X130048000Y-72340000D02*
X129744000Y-72340000D01*
X129744000Y-72340000D02*
X129159000Y-71755000D01*
D27*
X114935000Y-83185000D02*
X113665000Y-81915000D01*
X121285000Y-84963000D02*
X119507000Y-83185000D01*
D26*
X129159000Y-77343000D02*
X123063000Y-77343000D01*
X122555000Y-67945000D02*
X116205000Y-67945000D01*
X130048000Y-66625000D02*
X129871000Y-66625000D01*
D27*
X121285000Y-87249000D02*
X121285000Y-84963000D01*
X116205000Y-83185000D02*
X114935000Y-83185000D01*
X123054000Y-88265000D02*
X122301000Y-88265000D01*
X118745000Y-64135000D02*
X120015000Y-62865000D01*
D26*
X129969000Y-83675000D02*
X129903000Y-83675000D01*
X129159000Y-71755000D02*
X123825000Y-71755000D01*
X124587000Y-65913000D02*
X122555000Y-67945000D01*
X122555000Y-73025000D02*
X116205000Y-73025000D01*
X129159000Y-82931000D02*
X123317000Y-82931000D01*
D27*
X113665000Y-67945000D02*
X113665000Y-65405000D01*
D26*
X123063000Y-77343000D02*
X122301000Y-78105000D01*
D27*
X122301000Y-88265000D02*
X121285000Y-87249000D01*
D26*
X130048000Y-80105000D02*
X133858000Y-80105000D01*
X130048000Y-74390000D02*
X133858000Y-74390000D01*
X130048000Y-68675000D02*
X133858000Y-68675000D01*
X125585000Y-58420000D02*
X125585000Y-62705000D01*
X125585000Y-55735000D02*
X125095000Y-55245000D01*
X125095000Y-55245000D02*
X125095000Y-52705000D01*
X125585000Y-58420000D02*
X125585000Y-55735000D01*
X125585000Y-62705000D02*
X125745000Y-62865000D01*
X153675000Y-63500000D02*
X154840000Y-62335000D01*
X158115000Y-57785000D02*
X165735000Y-57785000D01*
X153675000Y-64389000D02*
X159639000Y-64389000D01*
X154840000Y-61060000D02*
X158115000Y-57785000D01*
X165735000Y-57785000D02*
X168275000Y-55245000D01*
X168275000Y-55245000D02*
X168275000Y-52705000D01*
X170053000Y-76581000D02*
X170053000Y-78613000D01*
X160909000Y-65659000D02*
X160909000Y-67945000D01*
X160630000Y-74685000D02*
X160630000Y-73304000D01*
X163195000Y-72263000D02*
X165735000Y-72263000D01*
X154840000Y-62335000D02*
X154840000Y-61060000D01*
X153675000Y-64389000D02*
X153675000Y-63500000D01*
X159639000Y-64389000D02*
X160909000Y-65659000D01*
X153675000Y-66675000D02*
X153675000Y-64389000D01*
X160630000Y-73304000D02*
X161671000Y-72263000D01*
X165735000Y-72263000D02*
X170053000Y-76581000D01*
X161671000Y-72263000D02*
X163195000Y-72263000D01*
X163030000Y-84544000D02*
X164465000Y-85979000D01*
X182753000Y-91821000D02*
X181991000Y-92583000D01*
X181991000Y-92583000D02*
X177419000Y-92583000D01*
X180975000Y-88265000D02*
X182245000Y-88265000D01*
X177419000Y-92583000D02*
X170815000Y-85979000D01*
X163030000Y-83185000D02*
X163030000Y-84544000D01*
X182753000Y-88773000D02*
X182753000Y-91821000D01*
X164465000Y-85979000D02*
X170815000Y-85979000D01*
X182245000Y-88265000D02*
X182753000Y-88773000D01*
X164719000Y-84963000D02*
X172847000Y-84963000D01*
X173609000Y-85725000D02*
X178435000Y-85725000D01*
X172847000Y-84963000D02*
X173609000Y-85725000D01*
X163830000Y-84074000D02*
X164719000Y-84963000D01*
X163830000Y-83185000D02*
X163830000Y-84074000D01*
X172339000Y-83185000D02*
X170889000Y-81735000D01*
X170889000Y-81735000D02*
X165280000Y-81735000D01*
X175895000Y-62865000D02*
X172585000Y-62865000D01*
X175895000Y-73025000D02*
X173093000Y-73025000D01*
X175895000Y-70485000D02*
X173093000Y-70485000D01*
X175895000Y-75565000D02*
X174363000Y-75565000D01*
X175895000Y-65405000D02*
X172085000Y-65405000D01*
X173363000Y-75565000D02*
X172085000Y-75565000D01*
X127889000Y-87249000D02*
X126365000Y-85725000D01*
X137589000Y-85725000D02*
X137589000Y-86693000D01*
X137033000Y-87249000D02*
X127889000Y-87249000D01*
X137589000Y-86693000D02*
X137033000Y-87249000D01*
X136017000Y-76073000D02*
X123063000Y-76073000D01*
X137668000Y-74390000D02*
X137668000Y-74422000D01*
X123063000Y-76073000D02*
X122555000Y-75565000D01*
X122555000Y-75565000D02*
X116205000Y-75565000D01*
X137668000Y-74422000D02*
X136017000Y-76073000D01*
X136017000Y-81661000D02*
X123317000Y-81661000D01*
X137573000Y-80105000D02*
X136017000Y-81661000D01*
X122301000Y-80645000D02*
X116205000Y-80645000D01*
X123317000Y-81661000D02*
X122301000Y-80645000D01*
X137668000Y-80105000D02*
X137573000Y-80105000D01*
X137573000Y-68675000D02*
X135763000Y-70485000D01*
X135763000Y-70485000D02*
X116205000Y-70485000D01*
X137668000Y-68675000D02*
X137573000Y-68675000D01*
X158230000Y-84340000D02*
X158230000Y-83185000D01*
X135001000Y-62865000D02*
X133985000Y-63881000D01*
X148717000Y-63881000D02*
X147701000Y-62865000D01*
X147098000Y-74390000D02*
X147701000Y-73787000D01*
X151511000Y-84709000D02*
X157861000Y-84709000D01*
X150749000Y-72263000D02*
X148717000Y-70231000D01*
X150749000Y-73787000D02*
X150749000Y-83947000D01*
X157861000Y-84709000D02*
X158230000Y-84340000D01*
X150749000Y-73787000D02*
X150749000Y-72263000D01*
X147701000Y-62865000D02*
X135001000Y-62865000D01*
X148717000Y-70231000D02*
X148717000Y-63881000D01*
X143383000Y-74390000D02*
X147098000Y-74390000D01*
X150749000Y-83947000D02*
X151511000Y-84709000D01*
D27*
X158115000Y-55245000D02*
X159385000Y-53975000D01*
X136525000Y-57785000D02*
X139065000Y-55245000D01*
X159385000Y-53975000D02*
X159385000Y-52705000D01*
X139065000Y-55245000D02*
X146685000Y-55245000D01*
X147955000Y-59055000D02*
X147955000Y-55245000D01*
X146685000Y-55245000D02*
X147955000Y-55245000D01*
X147955000Y-55245000D02*
X158115000Y-55245000D01*
X136525000Y-59055000D02*
X136525000Y-57785000D01*
D26*
X149225000Y-72263000D02*
X149225000Y-84201000D01*
X146431000Y-69469000D02*
X147193000Y-68707000D01*
X146431000Y-69469000D02*
X149225000Y-72263000D01*
X145637000Y-68675000D02*
X146431000Y-69469000D01*
X159030000Y-84810000D02*
X159030000Y-83185000D01*
X143383000Y-68675000D02*
X145637000Y-68675000D01*
X145415000Y-59055000D02*
X145415000Y-59309000D01*
X149225000Y-84201000D02*
X150749000Y-85725000D01*
X150749000Y-85725000D02*
X158115000Y-85725000D01*
X158115000Y-85725000D02*
X159030000Y-84810000D01*
X147193000Y-64389000D02*
X147193000Y-68707000D01*
X147066000Y-64262000D02*
X147193000Y-64389000D01*
D27*
X120015000Y-52705000D02*
X118745000Y-51435000D01*
X116205000Y-59055000D02*
X120015000Y-55245000D01*
X120015000Y-55245000D02*
X120015000Y-52705000D01*
X118745000Y-51435000D02*
X116205000Y-51435000D01*
X114935000Y-59055000D02*
X116205000Y-59055000D01*
D26*
X161639000Y-69215000D02*
X162925000Y-67929000D01*
X162925000Y-62335000D02*
X162925000Y-67929000D01*
X163571000Y-68575000D02*
X165100000Y-68575000D01*
X162925000Y-67929000D02*
X163571000Y-68575000D01*
X162925000Y-62335000D02*
X166265000Y-62335000D01*
X160401000Y-69215000D02*
X161639000Y-69215000D01*
X166265000Y-62335000D02*
X173355000Y-55245000D01*
X158230000Y-71386000D02*
X160401000Y-69215000D01*
X173355000Y-55245000D02*
X173355000Y-52705000D01*
X158230000Y-74685000D02*
X158230000Y-71386000D01*
X171404000Y-71174000D02*
X172093000Y-70485000D01*
X159830000Y-72580000D02*
X161236000Y-71174000D01*
X159830000Y-74685000D02*
X159830000Y-72580000D01*
X161236000Y-71174000D02*
X171404000Y-71174000D01*
X168275000Y-70231000D02*
X169545000Y-68961000D01*
X160909000Y-70231000D02*
X168275000Y-70231000D01*
X159030000Y-74685000D02*
X159030000Y-72110000D01*
X169545000Y-73025000D02*
X172093000Y-73025000D01*
X159030000Y-72110000D02*
X160909000Y-70231000D01*
X137589000Y-83725000D02*
X138891000Y-83725000D01*
X139875000Y-84709000D02*
X140383000Y-84709000D01*
X138891000Y-83725000D02*
X139875000Y-84709000D01*
X133779000Y-83725000D02*
X137589000Y-83725000D01*
X154659000Y-76935000D02*
X156780000Y-76935000D01*
X146431000Y-85659000D02*
X143383000Y-85659000D01*
X153543000Y-75819000D02*
X154659000Y-76935000D01*
X150241000Y-86741000D02*
X147447000Y-83947000D01*
X159830000Y-85280000D02*
X158369000Y-86741000D01*
X147447000Y-81915000D02*
X147447000Y-83947000D01*
X158369000Y-86741000D02*
X150241000Y-86741000D01*
X145637000Y-80105000D02*
X143383000Y-80105000D01*
X145637000Y-80105000D02*
X147447000Y-81915000D01*
X159830000Y-83185000D02*
X159830000Y-85280000D01*
X139909000Y-79155000D02*
X138859000Y-78105000D01*
X138859000Y-78105000D02*
X137668000Y-78105000D01*
X140383000Y-79155000D02*
X139909000Y-79155000D01*
X133858000Y-78105000D02*
X137668000Y-78105000D01*
X140383000Y-73440000D02*
X139782000Y-73440000D01*
X133858000Y-72390000D02*
X137668000Y-72390000D01*
X139782000Y-73440000D02*
X138732000Y-72390000D01*
X138732000Y-72390000D02*
X137668000Y-72390000D01*
X133858000Y-66675000D02*
X137668000Y-66675000D01*
X138859000Y-66675000D02*
X139909000Y-67725000D01*
X137668000Y-66675000D02*
X138859000Y-66675000D01*
X139909000Y-67725000D02*
X140383000Y-67725000D01*
X155637000Y-76135000D02*
X156780000Y-76135000D01*
X131003000Y-63815000D02*
X133223000Y-61595000D01*
X149733000Y-63373000D02*
X149733000Y-68453000D01*
X155321000Y-75819000D02*
X155637000Y-76135000D01*
X149733000Y-68453000D02*
X155321000Y-74041000D01*
X147955000Y-61595000D02*
X149733000Y-63373000D01*
X128745000Y-63815000D02*
X131003000Y-63815000D01*
X155321000Y-74041000D02*
X155321000Y-75819000D01*
X133223000Y-61595000D02*
X147955000Y-61595000D01*
M02*
