G04 start of page 9 for group -4015 idx -4015 *
G04 Title: (unknown), toppaste *
G04 Creator: pcb 20140316 *
G04 CreationDate: Mon 07 Sep 2020 04:57:56 PM GMT UTC *
G04 For: thomasc *
G04 Format: Gerber/RS-274X *
G04 PCB-Dimensions (mil): 2000.00 1000.00 *
G04 PCB-Coordinate-Origin: lower left *
%MOIN*%
%FSLAX25Y25*%
%LNTOPPASTE*%
%ADD62R,0.0400X0.0400*%
%ADD61R,0.0600X0.0600*%
%ADD60R,0.0200X0.0200*%
%ADD59R,0.0500X0.0500*%
%ADD58R,0.0157X0.0157*%
G54D58*X68150Y44350D02*X75236D01*
X68150Y41201D02*X75236D01*
X68150Y38051D02*X75236D01*
X68150Y34902D02*X75236D01*
X68150Y31752D02*X75236D01*
X68150Y28602D02*X75236D01*
X68150Y25453D02*X75236D01*
X68150Y22303D02*X75236D01*
X65000Y19154D02*Y12067D01*
X61850Y19154D02*Y12067D01*
X58701Y19154D02*Y12067D01*
X55551Y19154D02*Y12067D01*
X52402Y19154D02*Y12067D01*
X49252Y19154D02*Y12067D01*
X46102Y19154D02*Y12067D01*
X42953Y19154D02*Y12067D01*
X32717Y22303D02*X39803D01*
X32717Y25453D02*X39803D01*
X32717Y28602D02*X39803D01*
X32717Y31752D02*X39803D01*
X32717Y34902D02*X39803D01*
X32717Y38051D02*X39803D01*
X32717Y41201D02*X39803D01*
X32717Y44350D02*X39803D01*
X42953Y54587D02*Y47500D01*
X46102Y54587D02*Y47500D01*
X49252Y54587D02*Y47500D01*
X52402Y54587D02*Y47500D01*
X55551Y54587D02*Y47500D01*
X58701Y54587D02*Y47500D01*
X61850Y54587D02*Y47500D01*
X65000Y54587D02*Y47500D01*
G54D59*X40000Y78000D02*Y75000D01*
Y90000D02*Y87000D01*
X50000Y78000D02*Y75000D01*
Y90000D02*Y87000D01*
X60000Y78000D02*Y75000D01*
Y90000D02*Y87000D01*
X95000Y78000D02*Y75000D01*
Y90000D02*Y87000D01*
X105000Y78000D02*Y75000D01*
Y90000D02*Y87000D01*
X115000Y78000D02*Y75000D01*
Y90000D02*Y87000D01*
G54D60*X68500D02*X74500D01*
X68500Y79000D02*X74500D01*
X80500Y83000D02*X86500D01*
G54D59*X155000Y78000D02*Y75000D01*
Y90000D02*Y87000D01*
X125000Y76000D02*Y73000D01*
Y88000D02*Y85000D01*
G54D60*X127000Y52000D02*Y46000D01*
X135000Y52000D02*Y46000D01*
X131000Y64000D02*Y58000D01*
X157000Y64000D02*Y58000D01*
X149000Y64000D02*Y58000D01*
X153000Y52000D02*Y46000D01*
G54D61*X85000Y20000D02*X87500D01*
X102500D02*X105000D01*
G54D62*X95000Y12500D02*Y10000D01*
G54D59*X20000Y52000D02*Y49000D01*
Y64000D02*Y61000D01*
X137000Y38000D02*X140000D01*
X149000D02*X152000D01*
X137000Y28000D02*X140000D01*
X149000D02*X152000D01*
X162000Y23000D02*Y20000D01*
Y35000D02*Y32000D01*
M02*
