G04 start of page 8 for group -4079 idx -4079 *
G04 Title: (unknown), topsilk *
G04 Creator: pcb 20140316 *
G04 CreationDate: Fri 04 Sep 2020 02:51:09 AM GMT UTC *
G04 For: thomasc *
G04 Format: Gerber/RS-274X *
G04 PCB-Dimensions (mil): 2000.00 1000.00 *
G04 PCB-Coordinate-Origin: lower left *
%MOIN*%
%FSLAX25Y25*%
%LNTOPSILK*%
%ADD57C,0.0157*%
%ADD56C,0.0150*%
%ADD55C,0.0100*%
%ADD54C,0.0001*%
G54D54*G36*
X28000Y5000D02*X23000D01*
Y10000D01*
X28000D01*
Y5000D01*
G37*
G54D55*X120000Y95000D02*X130000D01*
Y93000D01*
X150000Y70000D02*Y68000D01*
X160000D01*
Y70000D01*
X110000D02*Y68000D01*
X120000D01*
Y70000D01*
X151000Y18500D02*X154000D01*
X164000D02*X167000D01*
X165500Y20000D02*Y17000D01*
X133000Y18500D02*X136000D01*
X122000D02*X125000D01*
X123500Y20000D02*Y17000D01*
X102750Y39750D02*Y37500D01*
Y39750D02*X103500Y40500D01*
X105000D01*
X102000D02*X102750Y39750D01*
X106800Y40500D02*X109800Y37500D01*
X106800D02*X109800Y40500D01*
X98750Y60500D02*Y55250D01*
X99500Y54500D01*
X98000Y58250D02*X99500D01*
X101000Y57500D02*X104000Y54500D01*
X101000D02*X104000Y57500D01*
X100250Y50500D02*X101000Y49750D01*
X98750Y50500D02*X100250D01*
X98000Y49750D02*X98750Y50500D01*
X98000Y49750D02*Y48250D01*
X98750Y47500D01*
X100250D01*
X101000Y48250D01*
X98000Y46000D02*X98750Y45250D01*
X100250D01*
X101000Y46000D01*
Y50500D02*Y46000D01*
X103550Y49750D02*Y47500D01*
Y49750D02*X104300Y50500D01*
X105050D01*
X105800Y49750D01*
Y47500D01*
X102800Y50500D02*X103550Y49750D01*
X110600Y53500D02*Y47500D01*
X109850D02*X110600Y48250D01*
X108350Y47500D02*X109850D01*
X107600Y48250D02*X108350Y47500D01*
X107600Y49750D02*Y48250D01*
Y49750D02*X108350Y50500D01*
X109850D01*
X110600Y49750D01*
X118000Y18500D02*Y13250D01*
X118750Y12500D01*
X121000D02*X123250D01*
X120250Y13250D02*X121000Y12500D01*
X120250Y14750D02*Y13250D01*
Y14750D02*X121000Y15500D01*
X122500D01*
X123250Y14750D01*
X120250Y14000D02*X123250D01*
Y14750D02*Y14000D01*
X128050Y18500D02*Y12500D01*
X127300D02*X128050Y13250D01*
X125800Y12500D02*X127300D01*
X125050Y13250D02*X125800Y12500D01*
X125050Y14750D02*Y13250D01*
Y14750D02*X125800Y15500D01*
X127300D01*
X128050Y14750D01*
X147500Y84000D02*Y81750D01*
Y84000D02*X146750Y84750D01*
X146000Y84000D02*X146750Y84750D01*
X146000Y84000D02*Y81750D01*
X145250Y81000D02*X146000Y81750D01*
X145250Y81000D02*X144500Y81750D01*
Y84000D02*Y81750D01*
Y84000D02*X145250Y84750D01*
X146750Y81000D02*X147500Y81750D01*
X145250Y87300D02*X149750D01*
X144500Y86550D02*X145250Y87300D01*
X144500Y88050D01*
Y89550D02*Y88050D01*
Y89550D02*X145250Y90300D01*
X146750D01*
X147500Y89550D02*X146750Y90300D01*
X147500Y89550D02*Y88050D01*
X146750Y87300D02*X147500Y88050D01*
X141500Y92100D02*X147500D01*
X145250D02*X147500Y94350D01*
X145250Y92100D02*X143750Y93600D01*
X178000Y32750D02*Y31250D01*
Y32750D02*X178750Y33500D01*
X180250D01*
X181000Y32750D01*
Y31250D01*
X180250Y30500D02*X181000Y31250D01*
X178750Y30500D02*X180250D01*
X178000Y31250D02*X178750Y30500D01*
X183550Y35750D02*Y30500D01*
Y35750D02*X184300Y36500D01*
X185050D01*
X182800Y33500D02*X184300D01*
X187300Y35750D02*Y30500D01*
Y35750D02*X188050Y36500D01*
X188800D01*
X186550Y33500D02*X188050D01*
X133000Y11500D02*Y5500D01*
Y6250D02*X133750Y5500D01*
X135250D01*
X136000Y6250D01*
Y7750D02*Y6250D01*
X135250Y8500D02*X136000Y7750D01*
X133750Y8500D02*X135250D01*
X133000Y7750D02*X133750Y8500D01*
X140050D02*X140800Y7750D01*
X138550Y8500D02*X140050D01*
X137800Y7750D02*X138550Y8500D01*
X137800Y7750D02*Y6250D01*
X138550Y5500D01*
X140800Y8500D02*Y6250D01*
X141550Y5500D01*
X138550D02*X140050D01*
X140800Y6250D01*
X144100Y11500D02*Y6250D01*
X144850Y5500D01*
X143350Y9250D02*X144850D01*
X147100Y11500D02*Y6250D01*
X147850Y5500D01*
X146350Y9250D02*X147850D01*
G54D56*X5000Y10000D02*X25000D01*
Y40000D02*Y10000D01*
G54D55*Y16000D02*X29000D01*
G54D56*X5000Y40000D02*X25000D01*
G54D55*Y12000D02*X29000D01*
Y16000D02*Y12000D01*
G54D56*X5000Y40000D02*Y10000D01*
G54D57*X78386Y57736D02*Y8917D01*
X29567D02*X78386D01*
X29567Y57736D02*Y8917D01*
Y57736D02*X78386D01*
X70512D02*X78386Y49862D01*
G54D55*X92500Y25000D02*Y27500D01*
X107500D01*
Y25000D01*
Y15000D02*Y12500D01*
X105000D01*
X95000D02*X92500D01*
Y15000D01*
G54D56*X85000Y65000D02*Y35000D01*
X95000Y65000D02*Y35000D01*
G54D55*X99000Y41000D02*Y37000D01*
X95000Y41000D02*X99000D01*
X95000Y37000D02*X99000D01*
G54D56*X85000Y35000D02*X95000D01*
X85000Y65000D02*X95000D01*
G54D55*X15000Y69000D02*Y44000D01*
Y69000D02*X25000D01*
Y44000D01*
X15000D02*X25000D01*
X170000Y95000D02*Y40000D01*
X195000D01*
Y95000D01*
X170000D01*
X100000D02*Y70000D01*
Y95000D02*X110000D01*
Y70000D01*
X100000D02*X110000D01*
Y95000D02*Y70000D01*
Y95000D02*X120000D01*
Y70000D01*
X110000D02*X120000D01*
Y93000D02*Y68000D01*
Y93000D02*X130000D01*
Y68000D01*
X120000D02*X130000D01*
G54D56*X131000Y95000D02*Y75000D01*
X141000Y95000D02*Y75000D01*
G54D55*X145000Y81000D02*Y77000D01*
X141000Y81000D02*X145000D01*
X141000Y77000D02*X145000D01*
G54D56*X131000Y75000D02*X141000D01*
X131000Y95000D02*X141000D01*
X120000Y67000D02*X142000D01*
X120000D02*Y43000D01*
X142000D01*
Y67000D02*Y43000D01*
G54D55*X120000Y48000D02*X125000Y43000D01*
G54D56*X120000Y23000D02*X140000D01*
X120000Y33000D02*X140000D01*
G54D55*X134000Y37000D02*X138000D01*
X134000D02*Y33000D01*
X138000Y37000D02*Y33000D01*
G54D56*X140000D02*Y23000D01*
X120000Y33000D02*Y23000D01*
G54D55*X35000Y95000D02*Y70000D01*
Y95000D02*X45000D01*
Y70000D01*
X35000D02*X45000D01*
Y95000D02*Y70000D01*
Y95000D02*X55000D01*
Y70000D01*
X45000D02*X55000D01*
Y95000D02*Y70000D01*
Y95000D02*X65000D01*
Y70000D01*
X55000D02*X65000D01*
X90000Y95000D02*Y70000D01*
Y95000D02*X100000D01*
Y70000D01*
X90000D02*X100000D01*
G54D56*X89500Y94000D02*Y72000D01*
X65500Y94000D02*X89500D01*
X65500D02*Y72000D01*
X89500D01*
G54D55*X70500Y94000D02*X65500Y89000D01*
X150000Y95000D02*Y70000D01*
Y95000D02*X160000D01*
Y70000D01*
X150000D02*X160000D01*
G54D56*X142000Y43000D02*X164000D01*
Y67000D02*Y43000D01*
X142000Y67000D02*X164000D01*
X142000D02*Y43000D01*
G54D55*X164000Y62000D02*X159000Y67000D01*
X140000Y43000D02*X165000D01*
Y33000D01*
X140000D01*
Y43000D01*
Y33000D02*X165000D01*
Y23000D01*
X140000D01*
Y33000D01*
G54D56*X150000Y15000D02*X170000D01*
X150000Y5000D02*X170000D01*
X150000Y15000D02*Y5000D01*
X170000Y15000D02*Y5000D01*
M02*
